Kalam_1.ufo
<glyph name="exclam" format="1">
  <advance width="478"/>
  <unicode hex="0021"/>
  <outline>
	<contour>
	  <point x="374" y="740"/>
	  <point x="283" y="823"/>
	  <point x="241" y="823" type="curve" smooth="yes"/>
	  <point x="225" y="823"/>
	  <point x="209" y="815"/>
	  <point x="209" y="794" type="curve" smooth="yes"/>
	  <point x="209" y="494"/>
	  <point x="160" y="356"/>
	  <point x="167" y="322" type="curve" smooth="yes"/>
	  <point x="168" y="283"/>
	  <point x="210" y="236"/>
	  <point x="247" y="236" type="curve" smooth="yes"/>
	  <point x="299" y="236"/>
	  <point x="374" y="655"/>
	  <point x="374" y="715" type="curve" smooth="yes"/>
	</contour>
	<contour>
	  <point x="259" y="78"/>
	  <point x="208" y="181"/>
	  <point x="176" y="181" type="curve" smooth="yes"/>
	  <point x="143" y="181"/>
	  <point x="106" y="135"/>
	  <point x="106" y="103" type="curve" smooth="yes"/>
	  <point x="106" y="66"/>
	  <point x="170" y="1"/>
	  <point x="210" y="1" type="curve" smooth="yes"/>
	  <point x="232" y="1"/>
	  <point x="259" y="29"/>
	  <point x="259" y="46" type="curve" smooth="yes"/>
	</contour>
  </outline>
</glyph>
<glyph name="quotedbl" format="1">
  <advance width="484"/>
  <unicode hex="0022"/>
  <outline>
    <contour>
      <point x="232" y="823" type="curve" smooth="yes"/>
      <point x="232" y="836"/>
      <point x="174" y="882"/>
      <point x="150" y="882" type="curve" smooth="yes"/>
      <point x="142" y="882"/>
      <point x="135" y="878"/>
      <point x="135" y="867" type="curve" smooth="yes"/>
      <point x="135" y="730"/>
      <point x="117" y="605"/>
      <point x="117" y="574" type="curve" smooth="yes"/>
      <point x="117" y="553"/>
      <point x="150" y="528"/>
      <point x="165" y="528" type="curve" smooth="yes"/>
      <point x="211" y="528"/>
      <point x="232" y="783"/>
    </contour>
    <contour>
      <point x="442" y="823" type="curve" smooth="yes"/>
      <point x="442" y="836"/>
      <point x="384" y="882"/>
      <point x="360" y="882" type="curve" smooth="yes"/>
      <point x="352" y="882"/>
      <point x="344" y="878"/>
      <point x="344" y="867" type="curve" smooth="yes"/>
      <point x="344" y="730"/>
      <point x="326" y="605"/>
      <point x="326" y="574" type="curve" smooth="yes"/>
      <point x="326" y="553"/>
      <point x="360" y="528"/>
      <point x="375" y="528" type="curve" smooth="yes"/>
      <point x="420" y="528"/>
      <point x="442" y="783"/>
    </contour>
  </outline>
</glyph>
<glyph name="numbersign" format="1">
  <advance width="780"/>
  <unicode hex="0023"/>
  <outline>
	<contour>
	  <point x="298" y="528"/>
	  <point x="158" y="132"/>
	  <point x="178" y="104" type="curve" smooth="yes"/>
	  <point x="179" y="45"/>
	  <point x="203" y="-4"/>
	  <point x="232" y="-4" type="curve" smooth="yes"/>
	  <point x="267" y="-4"/>
	  <point x="290" y="97"/>
	  <point x="325" y="221" type="curve" smooth="yes"/>
	  <point x="381" y="422"/>
	  <point x="438" y="599"/>
	  <point x="438" y="645" type="curve" smooth="yes"/>
	  <point x="438" y="699"/>
	  <point x="358" y="748"/>
	  <point x="329" y="748" type="curve" smooth="yes"/>
	  <point x="306" y="748"/>
	  <point x="299" y="736"/>
	  <point x="298" y="719" type="curve" smooth="yes"/>
	</contour>
	<contour>
	  <point x="532" y="549"/>
	  <point x="394" y="122"/>
	  <point x="413" y="81" type="curve" smooth="yes"/>
	  <point x="414" y="39"/>
	  <point x="429" y="-4"/>
	  <point x="455" y="-4" type="curve" smooth="yes"/>
	  <point x="491" y="-4"/>
	  <point x="522" y="77"/>
	  <point x="556" y="202" type="curve" smooth="yes"/>
	  <point x="611" y="403"/>
	  <point x="672" y="599"/>
	  <point x="672" y="645" type="curve" smooth="yes"/>
	  <point x="672" y="699"/>
	  <point x="593" y="748"/>
	  <point x="563" y="748" type="curve" smooth="yes"/>
	  <point x="540" y="748"/>
	  <point x="533" y="736"/>
	  <point x="533" y="719" type="curve" smooth="yes"/>
	</contour>
	<contour>
	  <point x="766" y="571"/>
	  <point x="766" y="589"/>
	  <point x="669" y="589" type="curve" smooth="yes"/>
	  <point x="536" y="589"/>
	  <point x="104" y="582"/>
	  <point x="104" y="507" type="curve" smooth="yes"/>
	  <point x="104" y="474"/>
	  <point x="124" y="427"/>
	  <point x="148" y="427" type="curve" smooth="yes"/>
	  <point x="168" y="427"/>
	  <point x="301" y="451"/>
	  <point x="444" y="469" type="curve" smooth="yes"/>
	  <point x="553" y="484"/>
	  <point x="767" y="490"/>
	  <point x="767" y="550" type="curve" smooth="yes"/>
	</contour>
	<contour>
	  <point x="723" y="282"/>
	  <point x="723" y="300"/>
	  <point x="624" y="300" type="curve" smooth="yes"/>
	  <point x="493" y="300"/>
	  <point x="62" y="293"/>
	  <point x="62" y="218" type="curve" smooth="yes"/>
	  <point x="62" y="185"/>
	  <point x="82" y="137"/>
	  <point x="106" y="138" type="curve" smooth="yes"/>
	  <point x="125" y="138"/>
	  <point x="257" y="161"/>
	  <point x="401" y="180" type="curve" smooth="yes"/>
	  <point x="510" y="195"/>
	  <point x="723" y="201"/>
	  <point x="723" y="261" type="curve" smooth="yes"/>
	</contour>
  </outline>
</glyph>
<glyph name="dollar" format="1">
  <advance width="592"/>
  <unicode hex="0024"/>
  <outline>
    <contour>
      <point x="511" y="670"/>
      <point x="478" y="751"/>
      <point x="427" y="751" type="curve" smooth="yes"/>
      <point x="357" y="751"/>
      <point x="174" y="680"/>
      <point x="118" y="613" type="curve" smooth="yes"/>
      <point x="100" y="590"/>
      <point x="86" y="535"/>
      <point x="86" y="492" type="curve" smooth="yes"/>
      <point x="86" y="362"/>
      <point x="398" y="253"/>
      <point x="398" y="183" type="curve" smooth="yes"/>
      <point x="398" y="137"/>
      <point x="280" y="128"/>
      <point x="201" y="128" type="curve" smooth="yes"/>
      <point x="124" y="128"/>
      <point x="107" y="212"/>
      <point x="58" y="212" type="curve" smooth="yes"/>
      <point x="41" y="212"/>
      <point x="31" y="189"/>
      <point x="31" y="147" type="curve" smooth="yes"/>
      <point x="31" y="78"/>
      <point x="100" y="-15"/>
      <point x="218" y="-15" type="curve" smooth="yes"/>
      <point x="343" y="-15"/>
      <point x="535" y="48"/>
      <point x="533" y="174" type="curve" smooth="yes"/>
      <point x="532" y="347"/>
      <point x="218" y="464"/>
      <point x="218" y="506" type="curve" smooth="yes"/>
      <point x="218" y="531"/>
      <point x="369" y="597"/>
      <point x="431" y="598" type="curve" smooth="yes"/>
      <point x="470" y="598"/>
      <point x="471" y="588"/>
      <point x="490" y="588" type="curve" smooth="yes"/>
      <point x="501" y="588"/>
      <point x="511" y="597"/>
      <point x="511" y="614" type="curve" smooth="yes"/>
    </contour>
    <contour>
      <point x="461" y="811"/>
      <point x="456" y="842"/>
      <point x="429" y="844" type="curve" smooth="yes"/>
      <point x="370" y="845"/>
      <point x="304" y="556"/>
      <point x="266" y="367" type="curve" smooth="yes"/>
      <point x="220" y="171"/>
      <point x="177" y="-3"/>
      <point x="176" y="-46" type="curve" smooth="yes"/>
      <point x="175" y="-64"/>
      <point x="191" y="-87"/>
      <point x="209" y="-88" type="curve" smooth="yes"/>
      <point x="254" y="-89"/>
      <point x="273" y="134"/>
      <point x="447" y="715" type="curve" smooth="yes"/>
      <point x="457" y="748"/>
      <point x="460" y="772"/>
      <point x="460" y="788" type="curve" smooth="yes"/>
    </contour>
  </outline>
</glyph>
<glyph name="ampersand" format="1">
  <advance width="786"/>
  <unicode hex="0026"/>
  <outline>
	<contour>
	  <point x="709" y="393"/>
	  <point x="698" y="421"/>
	  <point x="660" y="421" type="curve" smooth="yes"/>
	  <point x="623" y="421"/>
	  <point x="241" y="117"/>
	  <point x="146" y="117" type="curve" smooth="yes"/>
	  <point x="142" y="117"/>
	  <point x="140" y="119"/>
	  <point x="140" y="122" type="curve" smooth="yes"/>
	  <point x="140" y="179"/>
	  <point x="514" y="403"/>
	  <point x="513" y="575" type="curve" smooth="yes"/>
	  <point x="512" y="628"/>
	  <point x="484" y="726"/>
	  <point x="381" y="726" type="curve" smooth="yes"/>
	  <point x="254" y="726"/>
	  <point x="163" y="641"/>
	  <point x="164" y="541" type="curve" smooth="yes"/>
	  <point x="166" y="348"/>
	  <point x="380" y="9"/>
	  <point x="588" y="9" type="curve" smooth="yes"/>
	  <point x="669" y="9"/>
	  <point x="714" y="36"/>
	  <point x="714" y="79" type="curve" smooth="yes"/>
	  <point x="714" y="104"/>
	  <point x="691" y="111"/>
	  <point x="620" y="111" type="curve" smooth="yes"/>
	  <point x="445" y="111"/>
	  <point x="304" y="363"/>
	  <point x="302" y="531" type="curve" smooth="yes"/>
	  <point x="301" y="571"/>
	  <point x="313" y="605"/>
	  <point x="343" y="605" type="curve" smooth="yes"/>
	  <point x="361" y="605"/>
	  <point x="372" y="580"/>
	  <point x="373" y="552" type="curve" smooth="yes"/>
	  <point x="374" y="444"/>
	  <point x="3" y="232"/>
	  <point x="3" y="139" type="curve" smooth="yes"/>
	  <point x="3" y="92"/>
	  <point x="81" y="-3"/>
	  <point x="148" y="-3" type="curve" smooth="yes"/>
	  <point x="300" y="-3"/>
	  <point x="709" y="292"/>
	  <point x="709" y="367" type="curve" smooth="yes"/>
	</contour>
  </outline>
</glyph>
<glyph name="quotesingle" format="1">
  <advance width="220"/>
  <unicode hex="0027"/>
  <outline>
	<contour>
	  <point x="258" y="836"/>
	  <point x="188" y="882"/>
	  <point x="165" y="882" type="curve" smooth="yes"/>
	  <point x="157" y="882"/>
	  <point x="149" y="878"/>
	  <point x="149" y="867" type="curve" smooth="yes"/>
	  <point x="149" y="738"/>
	  <point x="119" y="605"/>
	  <point x="119" y="574" type="curve" smooth="yes"/>
	  <point x="119" y="553"/>
	  <point x="153" y="528"/>
	  <point x="167" y="528" type="curve" smooth="yes"/>
	  <point x="208" y="510"/>
	  <point x="258" y="789"/>
	  <point x="258" y="823" type="curve" smooth="yes"/>
	</contour>
  </outline>
</glyph>
<glyph name="parenleft" format="1">
  <advance width="478"/>
  <unicode hex="0028"/>
  <outline>
    <contour>
      <point x="211" y="258" type="curve" smooth="yes"/>
      <point x="211" y="626"/>
      <point x="576" y="742"/>
      <point x="576" y="825" type="curve" smooth="yes"/>
      <point x="576" y="858"/>
      <point x="543" y="888"/>
      <point x="506" y="888" type="curve" smooth="yes"/>
      <point x="396" y="888"/>
      <point x="73" y="623"/>
      <point x="73" y="275" type="curve" smooth="yes"/>
      <point x="73" y="61"/>
      <point x="258" y="-100"/>
      <point x="432" y="-100" type="curve" smooth="yes"/>
      <point x="454" y="-100"/>
      <point x="465" y="-90"/>
      <point x="465" y="-77" type="curve" smooth="yes"/>
      <point x="465" y="-1"/>
      <point x="211" y="28"/>
    </contour>
  </outline>
</glyph>
<glyph name="parenright" format="1">
  <advance width="530"/>
  <unicode hex="0029"/>
  <outline>
	<contour>
	  <point x="88" y="-105"/>
	  <point x="456" y="176"/>
	  <point x="455" y="616" type="curve" smooth="yes"/>
	  <point x="455" y="751"/>
	  <point x="349" y="893"/>
	  <point x="242" y="893" type="curve" smooth="yes"/>
	  <point x="190" y="893"/>
	  <point x="160" y="866"/>
	  <point x="160" y="817" type="curve" smooth="yes"/>
	  <point x="160" y="733"/>
	  <point x="315" y="747"/>
	  <point x="315" y="553" type="curve" smooth="yes"/>
	  <point x="315" y="183"/>
	  <point x="-38" y="-10"/>
	  <point x="-38" y="-81" type="curve" smooth="yes"/>
	  <point x="-38" y="-94"/>
	  <point x="-26" y="-105"/>
	  <point x="-4" y="-105" type="curve" smooth="yes"/>
	</contour>
  </outline>
</glyph>
<glyph name="asterisk" format="1">
  <advance width="375"/>
  <unicode hex="002A"/>
  <outline>
    <contour>
      <point x="334" y="681"/>
      <point x="402" y="717"/>
      <point x="402" y="727" type="curve" smooth="yes"/>
      <point x="402" y="744"/>
      <point x="377" y="762"/>
      <point x="363" y="762" type="curve" smooth="yes"/>
      <point x="350" y="762"/>
      <point x="314" y="716"/>
      <point x="280" y="698" type="curve"/>
      <point x="283" y="713"/>
      <point x="297" y="750"/>
      <point x="297" y="762" type="curve" smooth="yes"/>
      <point x="297" y="779"/>
      <point x="258" y="806"/>
      <point x="241" y="806" type="curve" smooth="yes"/>
      <point x="232" y="806"/>
      <point x="228" y="802"/>
      <point x="228" y="789" type="curve" smooth="yes"/>
      <point x="228" y="775"/>
      <point x="231" y="732"/>
      <point x="231" y="694" type="curve"/>
      <point x="212" y="705"/>
      <point x="188" y="730"/>
      <point x="188" y="739" type="curve" smooth="yes"/>
      <point x="188" y="756"/>
      <point x="135" y="768"/>
      <point x="108" y="768" type="curve" smooth="yes"/>
      <point x="97" y="768"/>
      <point x="97" y="762"/>
      <point x="97" y="753" type="curve" smooth="yes"/>
      <point x="97" y="739"/>
      <point x="159" y="687"/>
      <point x="213" y="664" type="curve"/>
      <point x="184" y="643"/>
      <point x="92" y="616"/>
      <point x="92" y="603" type="curve" smooth="yes"/>
      <point x="92" y="592"/>
      <point x="110" y="576"/>
      <point x="123" y="576" type="curve" smooth="yes"/>
      <point x="135" y="576"/>
      <point x="197" y="604"/>
      <point x="223" y="629" type="curve"/>
      <point x="220" y="615"/>
      <point x="203" y="557"/>
      <point x="203" y="545" type="curve" smooth="yes"/>
      <point x="203" y="532"/>
      <point x="221" y="515"/>
      <point x="233" y="515" type="curve" smooth="yes"/>
      <point x="249" y="515"/>
      <point x="266" y="588"/>
      <point x="271" y="623" type="curve"/>
      <point x="297" y="601"/>
      <point x="344" y="577"/>
      <point x="362" y="577" type="curve" smooth="yes"/>
      <point x="373" y="577"/>
      <point x="389" y="586"/>
      <point x="389" y="597" type="curve" smooth="yes"/>
      <point x="389" y="608"/>
      <point x="322" y="637"/>
      <point x="294" y="662" type="curve"/>
    </contour>
  </outline>
</glyph>
<glyph name="hyphen" format="1">
  <advance width="531"/>
  <unicode hex="002D"/>
  <outline>
	<contour>
	  <point x="406" y="281"/>
	  <point x="497" y="299"/>
	  <point x="497" y="335" type="curve" smooth="yes"/>
	  <point x="497" y="356"/>
	  <point x="474" y="369"/>
	  <point x="421" y="369" type="curve" smooth="yes"/>
	  <point x="244" y="369"/>
	  <point x="50" y="339"/>
	  <point x="50" y="301" type="curve" smooth="yes"/>
	  <point x="50" y="268"/>
	  <point x="86" y="221"/>
	  <point x="117" y="221" type="curve" smooth="yes"/>
	  <point x="143" y="221"/>
	  <point x="214" y="243"/>
	  <point x="296" y="260" type="curve" smooth="yes"/>
	</contour>
  </outline>
</glyph>
<glyph name="period" format="1">
  <advance width="237"/>
  <unicode hex="002E"/>
  <outline>
    <contour>
      <point x="33" y="64"/>
      <point x="101" y="-5"/>
      <point x="144" y="-5" type="curve" smooth="yes"/>
      <point x="167" y="-5"/>
      <point x="198" y="26"/>
      <point x="198" y="46" type="curve" smooth="yes"/>
      <point x="198" y="79"/>
      <point x="145" y="187"/>
      <point x="109" y="187" type="curve" smooth="yes"/>
      <point x="74" y="187"/>
      <point x="33" y="138"/>
      <point x="33" y="103" type="curve" smooth="yes"/>
    </contour>
  </outline>
</glyph>
<glyph name="slash" format="1">
  <advance width="282"/>
  <unicode hex="002F"/>
  <outline>
	<contour>
	  <point x="96" y="-80"/>
	  <point x="179" y="116"/>
	  <point x="252" y="293" type="curve" smooth="yes"/>
	  <point x="365" y="568"/>
	  <point x="421" y="675"/>
	  <point x="421" y="729" type="curve" smooth="yes"/>
	  <point x="421" y="774"/>
	  <point x="350" y="857"/>
	  <point x="325" y="857" type="curve" smooth="yes"/>
	  <point x="304" y="857"/>
	  <point x="303" y="844"/>
	  <point x="297" y="827" type="curve" smooth="yes"/>
	  <point x="223" y="615"/>
	  <point x="-5" y="86"/>
	  <point x="-5" y="14" type="curve" smooth="yes"/>
	  <point x="-5" y="-17"/>
	  <point x="43" y="-80"/>
	  <point x="73" y="-80" type="curve" smooth="yes"/>
	</contour>
  </outline>
</glyph>
<glyph name="zero" format="1">
  <advance width="513"/>
  <unicode hex="0030"/>
  <outline>
    <contour>
      <point x="33" y="140"/>
      <point x="109" y="13"/>
      <point x="213" y="13" type="curve" smooth="yes"/>
      <point x="390" y="13"/>
      <point x="518" y="344"/>
      <point x="518" y="531" type="curve" smooth="yes"/>
      <point x="518" y="673"/>
      <point x="450" y="747"/>
      <point x="347" y="747" type="curve" smooth="yes"/>
      <point x="203" y="747"/>
      <point x="33" y="487"/>
      <point x="33" y="230" type="curve" smooth="yes"/>
    </contour>
    <contour>
      <point x="368" y="616"/>
      <point x="376" y="585"/>
      <point x="376" y="521" type="curve" smooth="yes"/>
      <point x="376" y="380"/>
      <point x="267" y="134"/>
      <point x="212" y="134" type="curve" smooth="yes"/>
      <point x="188" y="134"/>
      <point x="180" y="172"/>
      <point x="180" y="230" type="curve" smooth="yes"/>
      <point x="180" y="411"/>
      <point x="305" y="616"/>
      <point x="349" y="616" type="curve" smooth="yes"/>
    </contour>
    <contour>
      <point x="414" y="723" type="move" name="top"/>
    </contour>
  </outline>
</glyph>
<glyph name="two" format="1">
  <advance width="583"/>
  <unicode hex="0032"/>
  <outline>
    <contour>
      <point x="244" y="507"/>
      <point x="265" y="593"/>
      <point x="332" y="593" type="curve" smooth="yes"/>
      <point x="355" y="593"/>
      <point x="370" y="580"/>
      <point x="370" y="550" type="curve" smooth="yes"/>
      <point x="370" y="414"/>
      <point x="7" y="193"/>
      <point x="8" y="141" type="curve" smooth="yes"/>
      <point x="8" y="94"/>
      <point x="97" y="16"/>
      <point x="143" y="16" type="curve" smooth="yes"/>
      <point x="238" y="16"/>
      <point x="545" y="86"/>
      <point x="545" y="142" type="curve" smooth="yes"/>
      <point x="545" y="171"/>
      <point x="512" y="182"/>
      <point x="448" y="182" type="curve" smooth="yes"/>
      <point x="391" y="182"/>
      <point x="257" y="164"/>
      <point x="146" y="142" type="curve"/>
      <point x="141" y="127" type="line"/>
      <point x="338" y="228"/>
      <point x="512" y="396"/>
      <point x="512" y="559" type="curve" smooth="yes"/>
      <point x="512" y="665"/>
      <point x="443" y="745"/>
      <point x="333" y="745" type="curve" smooth="yes"/>
      <point x="205" y="745"/>
      <point x="122" y="654"/>
      <point x="122" y="585" type="curve" smooth="yes"/>
      <point x="122" y="556"/>
      <point x="193" y="507"/>
      <point x="227" y="507" type="curve" smooth="yes"/>
    </contour>
  </outline>
</glyph>
<glyph name="four" format="1">
  <advance width="545"/>
  <unicode hex="0034"/>
  <outline>
    <contour>
      <point x="317" y="232"/>
      <point x="470" y="296"/>
      <point x="470" y="367" type="curve" smooth="yes"/>
      <point x="470" y="411"/>
      <point x="442" y="416"/>
      <point x="397" y="416" type="curve" smooth="yes"/>
      <point x="352" y="416"/>
      <point x="276" y="357"/>
      <point x="207" y="357" type="curve" smooth="yes"/>
      <point x="189" y="357"/>
      <point x="185" y="359"/>
      <point x="185" y="373" type="curve" smooth="yes"/>
      <point x="185" y="419"/>
      <point x="372" y="643"/>
      <point x="372" y="682" type="curve" smooth="yes"/>
      <point x="372" y="714"/>
      <point x="324" y="756"/>
      <point x="293" y="756" type="curve" smooth="yes"/>
      <point x="237" y="756"/>
      <point x="47" y="470"/>
      <point x="47" y="372" type="curve" smooth="yes"/>
      <point x="47" y="286"/>
      <point x="104" y="232"/>
      <point x="186" y="232" type="curve" smooth="yes"/>
    </contour>
    <contour>
      <point x="528" y="514"/>
      <point x="450" y="579"/>
      <point x="418" y="579" type="curve" smooth="yes"/>
      <point x="402" y="579"/>
      <point x="387" y="570"/>
      <point x="387" y="549" type="curve" smooth="yes"/>
      <point x="387" y="334"/>
      <point x="284" y="148"/>
      <point x="284" y="65" type="curve" smooth="yes"/>
      <point x="284" y="30"/>
      <point x="326" y="-18"/>
      <point x="350" y="-18" type="curve" smooth="yes"/>
      <point x="403" y="-18"/>
      <point x="528" y="421"/>
      <point x="528" y="481" type="curve" smooth="yes"/>
    </contour>
  </outline>
</glyph>
<glyph name="seven" format="1">
  <advance width="472"/>
  <unicode hex="0037"/>
  <outline>
	<contour>
	  <point x="425" y="736"/>
	  <point x="370" y="741"/>
	  <point x="300" y="741" type="curve" smooth="yes"/>
	  <point x="191" y="741"/>
	  <point x="85" y="731"/>
	  <point x="85" y="703" type="curve" smooth="yes"/>
	  <point x="85" y="676"/>
	  <point x="139" y="594"/>
	  <point x="175" y="594" type="curve" smooth="yes"/>
	  <point x="207" y="594"/>
	  <point x="301" y="608"/>
	  <point x="334" y="608" type="curve" smooth="yes"/>
	  <point x="354" y="608"/>
	  <point x="369" y="607"/>
	  <point x="369" y="598" type="curve" smooth="yes"/>
	  <point x="369" y="546"/>
	  <point x="92" y="185"/>
	  <point x="92" y="86" type="curve" smooth="yes"/>
	  <point x="92" y="45"/>
	  <point x="130" y="0"/>
	  <point x="159" y="0" type="curve" smooth="yes"/>
	  <point x="200" y="0"/>
	  <point x="274" y="171"/>
	  <point x="377" y="350" type="curve" smooth="yes"/>
	  <point x="432" y="445"/>
	  <point x="500" y="551"/>
	  <point x="500" y="587" type="curve" smooth="yes"/>
	  <point x="500" y="637"/>
	  <point x="464" y="701"/>
	  <point x="436" y="726" type="curve" smooth="yes"/>
	</contour>
  </outline>
</glyph>
<glyph name="eight" format="1">
  <advance width="590"/>
  <unicode hex="0038"/>
  <outline>
    <contour>
      <point x="209" y="219"/>
      <point x="593" y="427"/>
      <point x="593" y="597" type="curve" smooth="yes"/>
      <point x="593" y="700"/>
      <point x="522" y="745"/>
      <point x="423" y="745" type="curve" smooth="yes"/>
      <point x="275" y="745"/>
      <point x="179" y="682"/>
      <point x="179" y="619" type="curve" smooth="yes"/>
      <point x="179" y="591"/>
      <point x="226" y="561"/>
      <point x="251" y="561" type="curve" smooth="yes"/>
      <point x="294" y="561"/>
      <point x="341" y="621"/>
      <point x="422" y="621" type="curve" smooth="yes"/>
      <point x="447" y="621"/>
      <point x="456" y="607"/>
      <point x="456" y="593" type="curve" smooth="yes"/>
      <point x="456" y="492"/>
      <point x="70" y="319"/>
      <point x="70" y="142" type="curve" smooth="yes"/>
      <point x="70" y="81"/>
      <point x="174" y="15"/>
      <point x="226" y="15" type="curve" smooth="yes"/>
      <point x="343" y="15"/>
      <point x="506" y="100"/>
      <point x="506" y="197" type="curve" smooth="yes"/>
      <point x="506" y="348"/>
      <point x="297" y="450"/>
      <point x="187" y="562" type="curve" smooth="yes"/>
      <point x="160" y="589"/>
      <point x="137" y="627"/>
      <point x="113" y="627" type="curve" smooth="yes"/>
      <point x="90" y="627"/>
      <point x="78" y="567"/>
      <point x="78" y="533" type="curve" smooth="yes"/>
      <point x="78" y="431"/>
      <point x="366" y="299"/>
      <point x="366" y="221" type="curve" smooth="yes"/>
      <point x="366" y="170"/>
      <point x="281" y="134"/>
      <point x="239" y="134" type="curve" smooth="yes"/>
      <point x="234" y="134"/>
      <point x="209" y="151"/>
      <point x="209" y="161" type="curve" smooth="yes"/>
    </contour>
  </outline>
</glyph>
<glyph name="colon" format="1">
  <advance width="246"/>
  <unicode hex="003A"/>
  <outline>
    <contour>
      <point x="47" y="99"/>
      <point x="114" y="-10"/>
      <point x="150" y="-10" type="curve" smooth="yes"/>
      <point x="179" y="-10"/>
      <point x="197" y="17"/>
      <point x="197" y="47" type="curve" smooth="yes"/>
      <point x="197" y="92"/>
      <point x="156" y="241"/>
      <point x="99" y="241" type="curve" smooth="yes"/>
      <point x="76" y="241"/>
      <point x="47" y="181"/>
      <point x="47" y="143" type="curve" smooth="yes"/>
    </contour>
    <contour>
      <point x="92" y="395"/>
      <point x="159" y="286"/>
      <point x="195" y="286" type="curve" smooth="yes"/>
      <point x="224" y="286"/>
      <point x="241" y="313"/>
      <point x="241" y="343" type="curve" smooth="yes"/>
      <point x="241" y="388"/>
      <point x="201" y="537"/>
      <point x="144" y="537" type="curve" smooth="yes"/>
      <point x="121" y="537"/>
      <point x="92" y="477"/>
      <point x="92" y="439" type="curve" smooth="yes"/>
    </contour>
  </outline>
</glyph>
<glyph name="semicolon" format="1">
  <advance width="306"/>
  <unicode hex="003B"/>
  <outline>
    <contour>
      <point x="120" y="395"/>
      <point x="186" y="286"/>
      <point x="223" y="286" type="curve" smooth="yes"/>
      <point x="251" y="286"/>
      <point x="269" y="313"/>
      <point x="269" y="343" type="curve" smooth="yes"/>
      <point x="269" y="388"/>
      <point x="229" y="537"/>
      <point x="171" y="537" type="curve" smooth="yes"/>
      <point x="148" y="537"/>
      <point x="120" y="477"/>
      <point x="120" y="439" type="curve" smooth="yes"/>
    </contour>
    <contour>
      <point x="114" y="-218"/>
      <point x="222" y="-83"/>
      <point x="222" y="26" type="curve" smooth="yes"/>
      <point x="222" y="85"/>
      <point x="173" y="149"/>
      <point x="120" y="149" type="curve" smooth="yes"/>
      <point x="79" y="149"/>
      <point x="34" y="96"/>
      <point x="34" y="69" type="curve" smooth="yes"/>
      <point x="34" y="35"/>
      <point x="105" y="27"/>
      <point x="105" y="-23" type="curve" smooth="yes"/>
      <point x="105" y="-90"/>
      <point x="21" y="-171"/>
      <point x="21" y="-197" type="curve" smooth="yes"/>
      <point x="21" y="-212"/>
      <point x="32" y="-218"/>
      <point x="51" y="-218" type="curve" smooth="yes"/>
    </contour>
  </outline>
</glyph>
<glyph name="less" format="1">
  <advance width="475"/>
  <unicode hex="003C"/>
  <outline>
    <contour>
      <point x="435" y="606" type="curve" smooth="yes"/>
      <point x="348" y="606"/>
      <point x="105" y="437"/>
      <point x="40" y="378" type="curve" smooth="yes"/>
      <point x="23" y="363"/>
      <point x="10" y="303"/>
      <point x="10" y="280" type="curve" smooth="yes"/>
      <point x="10" y="195"/>
      <point x="293" y="46"/>
      <point x="377" y="46" type="curve" smooth="yes"/>
      <point x="404" y="46"/>
      <point x="426" y="55"/>
      <point x="426" y="77" type="curve" smooth="yes"/>
      <point x="426" y="127"/>
      <point x="172" y="244"/>
      <point x="172" y="297" type="curve" smooth="yes"/>
      <point x="172" y="326"/>
      <point x="382" y="451"/>
      <point x="475" y="494" type="curve" smooth="yes"/>
      <point x="493" y="503"/>
      <point x="501" y="511"/>
      <point x="501" y="526" type="curve" smooth="yes"/>
      <point x="501" y="547"/>
      <point x="472" y="606"/>
    </contour>
  </outline>
</glyph>
<glyph name="equal" format="1">
  <advance width="672"/>
  <unicode hex="003D"/>
  <outline>
	<contour>
	  <point x="621" y="483"/>
	  <point x="531" y="488"/>
	  <point x="416" y="488" type="curve" smooth="yes"/>
	  <point x="274" y="488"/>
	  <point x="104" y="484"/>
	  <point x="104" y="447" type="curve" smooth="yes"/>
	  <point x="104" y="422"/>
	  <point x="136" y="362"/>
	  <point x="162" y="362" type="curve" smooth="yes"/>
	  <point x="217" y="362"/>
	  <point x="311" y="369"/>
	  <point x="394" y="377" type="curve" smooth="yes"/>
	  <point x="479" y="385"/>
	  <point x="621" y="404"/>
	  <point x="621" y="444" type="curve" smooth="yes"/>
	</contour>
	<contour>
	  <point x="589" y="307"/>
	  <point x="547" y="313"/>
	  <point x="482" y="313" type="curve" smooth="yes"/>
	  <point x="424" y="313"/>
	  <point x="62" y="280"/>
	  <point x="62" y="255" type="curve" smooth="yes"/>
	  <point x="62" y="230"/>
	  <point x="94" y="170"/>
	  <point x="120" y="170" type="curve" smooth="yes"/>
	  <point x="190" y="170"/>
	  <point x="276" y="177"/>
	  <point x="340" y="185" type="curve" smooth="yes"/>
	  <point x="486" y="205"/>
	  <point x="589" y="241"/>
	  <point x="589" y="283" type="curve" smooth="yes"/>
	</contour>
  </outline>
</glyph>
<glyph name="greater" format="1">
  <advance width="616"/>
  <unicode hex="003E"/>
  <outline>
    <contour>
      <point x="152" y="607" type="curve" smooth="yes"/>
      <point x="134" y="607"/>
      <point x="129" y="597"/>
      <point x="129" y="581" type="curve" smooth="yes"/>
      <point x="129" y="556"/>
      <point x="187" y="486"/>
      <point x="217" y="476" type="curve" smooth="yes"/>
      <point x="282" y="455"/>
      <point x="422" y="367"/>
      <point x="422" y="347" type="curve" smooth="yes"/>
      <point x="422" y="308"/>
      <point x="93" y="157"/>
      <point x="93" y="82" type="curve" smooth="yes"/>
      <point x="93" y="59"/>
      <point x="110" y="47"/>
      <point x="139" y="47" type="curve" smooth="yes"/>
      <point x="187" y="47"/>
      <point x="233" y="66"/>
      <point x="398" y="171" type="curve" smooth="yes"/>
      <point x="512" y="243"/>
      <point x="568" y="288"/>
      <point x="568" y="341" type="curve" smooth="yes"/>
      <point x="568" y="357"/>
      <point x="554" y="382"/>
      <point x="526" y="410" type="curve" smooth="yes"/>
      <point x="445" y="491"/>
      <point x="284" y="607"/>
    </contour>
  </outline>
</glyph>
<glyph name="question" format="1">
  <advance width="626"/>
  <unicode hex="003F"/>
  <outline>
    <contour>
      <point x="573" y="744"/>
      <point x="503" y="802"/>
      <point x="406" y="802" type="curve" smooth="yes"/>
      <point x="321" y="802"/>
      <point x="230" y="730"/>
      <point x="230" y="650" type="curve" smooth="yes"/>
      <point x="230" y="624"/>
      <point x="284" y="571"/>
      <point x="301" y="571" type="curve" smooth="yes"/>
      <point x="312" y="571"/>
      <point x="326" y="580"/>
      <point x="334" y="583" type="curve" smooth="yes"/>
      <point x="346" y="589"/>
      <point x="349" y="602"/>
      <point x="349" y="620" type="curve" smooth="yes"/>
      <point x="349" y="643"/>
      <point x="370" y="663"/>
      <point x="401" y="663" type="curve" smooth="yes"/>
      <point x="422" y="663"/>
      <point x="442" y="651"/>
      <point x="442" y="628" type="curve" smooth="yes"/>
      <point x="442" y="538"/>
      <point x="266" y="472"/>
      <point x="266" y="341" type="curve" smooth="yes"/>
      <point x="266" y="289"/>
      <point x="276" y="246"/>
      <point x="302" y="246" type="curve" smooth="yes"/>
      <point x="336" y="246"/>
      <point x="354" y="310"/>
      <point x="375" y="353" type="curve" smooth="yes"/>
      <point x="419" y="444"/>
      <point x="573" y="516"/>
      <point x="573" y="645" type="curve" smooth="yes"/>
    </contour>
    <contour>
      <point x="177" y="66"/>
      <point x="241" y="1"/>
      <point x="281" y="1" type="curve" smooth="yes"/>
      <point x="303" y="1"/>
      <point x="330" y="29"/>
      <point x="330" y="46" type="curve" smooth="yes"/>
      <point x="330" y="78"/>
      <point x="279" y="181"/>
      <point x="247" y="181" type="curve" smooth="yes"/>
      <point x="214" y="181"/>
      <point x="177" y="135"/>
      <point x="177" y="103" type="curve" smooth="yes"/>
    </contour>
  </outline>
</glyph>
<glyph name="A" format="1">
  <advance width="630"/>
  <unicode hex="0041"/>
  <outline>
    <contour>
      <point x="359" y="744"/>
      <point x="259" y="707"/>
      <point x="245" y="662" type="curve" smooth="yes"/>
      <point x="209" y="550"/>
      <point x="170" y="454"/>
      <point x="147" y="384" type="curve" smooth="yes"/>
      <point x="107" y="267"/>
      <point x="35" y="135"/>
      <point x="35" y="100" type="curve" smooth="yes"/>
      <point x="35" y="55"/>
      <point x="102" y="14"/>
      <point x="125" y="14" type="curve" smooth="yes"/>
      <point x="173" y="14"/>
      <point x="342" y="570"/>
      <point x="368" y="651" type="curve"/>
      <point x="337" y="656" type="line"/>
      <point x="351" y="560"/>
      <point x="375" y="241"/>
      <point x="391" y="136" type="curve" smooth="yes"/>
      <point x="407" y="33"/>
      <point x="424" y="14"/>
      <point x="451" y="14" type="curve" smooth="yes"/>
      <point x="484" y="14"/>
      <point x="499" y="48"/>
      <point x="499" y="177" type="curve" smooth="yes"/>
      <point x="499" y="505"/>
      <point x="452" y="744"/>
      <point x="391" y="744" type="curve" smooth="yes"/>
    </contour>
    <contour>
      <point x="584" y="381"/>
      <point x="560" y="388"/>
      <point x="509" y="388" type="curve" smooth="yes"/>
      <point x="300" y="388"/>
      <point x="32" y="338"/>
      <point x="32" y="277" type="curve" smooth="yes"/>
      <point x="32" y="243"/>
      <point x="68" y="196"/>
      <point x="101" y="196" type="curve" smooth="yes"/>
      <point x="132" y="196"/>
      <point x="191" y="220"/>
      <point x="271" y="242" type="curve" smooth="yes"/>
      <point x="373" y="270"/>
      <point x="584" y="303"/>
      <point x="584" y="353" type="curve" smooth="yes"/>
    </contour>
    <contour>
      <point x="398" y="8" type="move" name="ogonek"/>
    </contour>
    <contour>
      <point x="333" y="743" type="move" name="top"/>
    </contour>
  </outline>
</glyph>
<glyph name="C" format="1">
  <advance width="617"/>
  <unicode hex="0043"/>
  <outline>
    <contour>
      <point x="533" y="661"/>
      <point x="476" y="747"/>
      <point x="439" y="747" type="curve" smooth="yes"/>
      <point x="252" y="747"/>
      <point x="35" y="423"/>
      <point x="35" y="231" type="curve" smooth="yes"/>
      <point x="35" y="142"/>
      <point x="150" y="13"/>
      <point x="237" y="13" type="curve" smooth="yes"/>
      <point x="360" y="13"/>
      <point x="557" y="135"/>
      <point x="557" y="206" type="curve" smooth="yes"/>
      <point x="557" y="228"/>
      <point x="546" y="245"/>
      <point x="538" y="245" type="curve" smooth="yes"/>
      <point x="512" y="245"/>
      <point x="385" y="160"/>
      <point x="228" y="160" type="curve" smooth="yes"/>
      <point x="192" y="160"/>
      <point x="182" y="180"/>
      <point x="182" y="221" type="curve" smooth="yes"/>
      <point x="182" y="356"/>
      <point x="357" y="592"/>
      <point x="461" y="592" type="curve" smooth="yes"/>
      <point x="487" y="592"/>
      <point x="505" y="584"/>
      <point x="520" y="584" type="curve" smooth="yes"/>
      <point x="526" y="584"/>
      <point x="533" y="589"/>
      <point x="533" y="609" type="curve" smooth="yes"/>
    </contour>
    <contour>
      <point x="206" y="8" type="move" name="cedilla"/>
    </contour>
    <contour>
      <point x="436" y="743" type="move" name="top"/>
    </contour>
  </outline>
</glyph>
<glyph name="D" format="1">
  <advance width="666"/>
  <unicode hex="0044"/>
  <outline>
	<contour>
	  <point x="270" y="409"/>
	  <point x="299" y="518"/>
	  <point x="299" y="568" type="curve" smooth="yes"/>
	  <point x="299" y="624"/>
	  <point x="225" y="703"/>
	  <point x="204" y="703" type="curve" smooth="yes"/>
	  <point x="188" y="703"/>
	  <point x="183" y="696"/>
	  <point x="182" y="672" type="curve" smooth="yes"/>
	  <point x="175" y="534"/>
	  <point x="52" y="210"/>
	  <point x="52" y="123" type="curve" smooth="yes"/>
	  <point x="52" y="94"/>
	  <point x="122" y="13"/>
	  <point x="144" y="13" type="curve" smooth="yes"/>
	  <point x="301" y="13"/>
	  <point x="639" y="240"/>
	  <point x="639" y="358" type="curve" smooth="yes"/>
	  <point x="639" y="566"/>
	  <point x="319" y="747"/>
	  <point x="110" y="747" type="curve" smooth="yes"/>
	  <point x="98" y="747"/>
	  <point x="90" y="740"/>
	  <point x="90" y="724" type="curve" smooth="yes"/>
	  <point x="90" y="679"/>
	  <point x="158" y="601"/>
	  <point x="237" y="580" type="curve" smooth="yes"/>
	  <point x="368" y="544"/>
	  <point x="495" y="436"/>
	  <point x="495" y="386" type="curve" smooth="yes"/>
	  <point x="495" y="331"/>
	  <point x="320" y="199"/>
	  <point x="189" y="155" type="curve"/>
	  <point x="196" y="173"/>
	  <point x="204" y="206"/>
	  <point x="214" y="237" type="curve" smooth="yes"/>
	</contour>
	<contour>
	  <point x="429" y="683" type="move" name="top"/>
	</contour>
  </outline>
</glyph>
<glyph name="F" format="1">
  <advance width="542"/>
  <unicode hex="0046"/>
  <outline>
    <contour>
      <point x="41" y="100"/>
      <point x="105" y="13"/>
      <point x="134" y="13" type="curve" smooth="yes"/>
      <point x="152" y="13"/>
      <point x="172" y="129"/>
      <point x="206" y="265" type="curve" smooth="yes"/>
      <point x="246" y="429"/>
      <point x="267" y="567"/>
      <point x="267" y="591" type="curve" smooth="yes"/>
      <point x="267" y="624"/>
      <point x="199" y="696"/>
      <point x="170" y="696" type="curve" smooth="yes"/>
      <point x="147" y="696"/>
      <point x="144" y="683"/>
      <point x="144" y="666" type="curve" smooth="yes"/>
      <point x="144" y="572"/>
      <point x="41" y="213"/>
      <point x="41" y="130" type="curve" smooth="yes"/>
    </contour>
    <contour>
      <point x="102" y="354"/>
      <point x="159" y="274"/>
      <point x="197" y="274" type="curve" smooth="yes"/>
      <point x="264" y="274"/>
      <point x="489" y="301"/>
      <point x="489" y="381" type="curve" smooth="yes"/>
      <point x="489" y="396"/>
      <point x="471" y="410"/>
      <point x="449" y="410" type="curve" smooth="yes"/>
      <point x="404" y="410"/>
      <point x="352" y="399"/>
      <point x="277" y="399" type="curve" smooth="yes"/>
      <point x="220" y="399"/>
      <point x="184" y="406"/>
      <point x="128" y="406" type="curve" smooth="yes"/>
      <point x="109" y="406"/>
      <point x="102" y="396"/>
      <point x="102" y="380" type="curve" smooth="yes"/>
    </contour>
    <contour>
      <point x="143" y="617"/>
      <point x="185" y="587"/>
      <point x="215" y="587" type="curve" smooth="yes"/>
      <point x="249" y="587"/>
      <point x="308" y="601"/>
      <point x="372" y="608" type="curve" smooth="yes"/>
      <point x="486" y="620"/>
      <point x="592" y="624"/>
      <point x="592" y="667" type="curve" smooth="yes"/>
      <point x="592" y="712"/>
      <point x="496" y="734"/>
      <point x="398" y="734" type="curve" smooth="yes"/>
      <point x="209" y="734"/>
      <point x="143" y="727"/>
      <point x="143" y="661" type="curve" smooth="yes"/>
    </contour>
  </outline>
</glyph>
<glyph name="I" format="1">
  <advance width="309"/>
  <unicode hex="0049"/>
  <outline>
	<contour>
	  <point x="148" y="608"/>
	  <point x="50" y="162"/>
	  <point x="50" y="118" type="curve" smooth="yes"/>
	  <point x="50" y="90"/>
	  <point x="110" y="13"/>
	  <point x="138" y="13" type="curve" smooth="yes"/>
	  <point x="168" y="13"/>
	  <point x="187" y="140"/>
	  <point x="217" y="285" type="curve" smooth="yes"/>
	  <point x="253" y="459"/>
	  <point x="286" y="573"/>
	  <point x="286" y="607" type="curve" smooth="yes"/>
	  <point x="286" y="667"/>
	  <point x="210" y="745"/>
	  <point x="182" y="745" type="curve" smooth="yes"/>
	  <point x="160" y="745"/>
	  <point x="152" y="733"/>
	  <point x="151" y="712" type="curve" smooth="yes"/>
	</contour>
	<contour>
	  <point x="77" y="8" type="move" name="ogonek"/>
	</contour>
	<contour>
	  <point x="234" y="743" type="move" name="top"/>
	</contour>
  </outline>
</glyph>
<glyph name="M" format="1">
  <advance width="756"/>
  <unicode hex="004D"/>
  <outline>
	<contour>
	  <point x="309" y="672"/>
	  <point x="201" y="745"/>
	  <point x="179" y="745" type="curve" smooth="yes"/>
	  <point x="157" y="745"/>
	  <point x="150" y="733"/>
	  <point x="150" y="712" type="curve" smooth="yes"/>
	  <point x="150" y="595"/>
	  <point x="33" y="204"/>
	  <point x="33" y="132" type="curve" smooth="yes"/>
	  <point x="33" y="101"/>
	  <point x="90" y="13"/>
	  <point x="114" y="13" type="curve" smooth="yes"/>
	  <point x="137" y="13"/>
	  <point x="160" y="103"/>
	  <point x="193" y="229" type="curve" smooth="yes"/>
	  <point x="203" y="267"/>
	  <point x="224" y="363"/>
	  <point x="233" y="436" type="curve"/>
	  <point x="266" y="315"/>
	  <point x="279" y="244"/>
	  <point x="301" y="223" type="curve" smooth="yes"/>
	  <point x="322" y="202"/>
	  <point x="348" y="199"/>
	  <point x="367" y="199" type="curve" smooth="yes"/>
	  <point x="426" y="199"/>
	  <point x="490" y="303"/>
	  <point x="578" y="416" type="curve"/>
	  <point x="534" y="290"/>
	  <point x="517" y="201"/>
	  <point x="517" y="135" type="curve" smooth="yes"/>
	  <point x="517" y="78"/>
	  <point x="549" y="13"/>
	  <point x="578" y="13" type="curve" smooth="yes"/>
	  <point x="620" y="13"/>
	  <point x="625" y="90"/>
	  <point x="676" y="289" type="curve" smooth="yes"/>
	  <point x="712" y="429"/>
	  <point x="756" y="559"/>
	  <point x="756" y="637" type="curve" smooth="yes"/>
	  <point x="756" y="674"/>
	  <point x="712" y="718"/>
	  <point x="680" y="718" type="curve" smooth="yes"/>
	  <point x="626" y="718"/>
	  <point x="481" y="495"/>
	  <point x="385" y="384" type="curve"/>
	  <point x="344" y="473"/>
	  <point x="309" y="599"/>
	  <point x="309" y="644" type="curve" smooth="yes"/>
	</contour>
  </outline>
</glyph>
<glyph name="N" format="1">
  <advance width="631"/>
  <unicode hex="004E"/>
  <outline>
	<contour>
	  <point x="624" y="694"/>
	  <point x="565" y="750"/>
	  <point x="524" y="750" type="curve" smooth="yes"/>
	  <point x="514" y="750"/>
	  <point x="508" y="745"/>
	  <point x="505" y="730" type="curve" smooth="yes"/>
	  <point x="489" y="649"/>
	  <point x="468" y="420"/>
	  <point x="416" y="266" type="curve"/>
	  <point x="351" y="415"/>
	  <point x="304" y="618"/>
	  <point x="261" y="682" type="curve" smooth="yes"/>
	  <point x="241" y="711"/>
	  <point x="198" y="745"/>
	  <point x="175" y="745" type="curve" smooth="yes"/>
	  <point x="160" y="745"/>
	  <point x="154" y="732"/>
	  <point x="152" y="707" type="curve" smooth="yes"/>
	  <point x="142" y="584"/>
	  <point x="32" y="174"/>
	  <point x="32" y="108" type="curve" smooth="yes"/>
	  <point x="32" y="78"/>
	  <point x="90" y="13"/>
	  <point x="116" y="13" type="curve" smooth="yes"/>
	  <point x="149" y="13"/>
	  <point x="190" y="232"/>
	  <point x="234" y="432" type="curve"/>
	  <point x="293" y="300"/>
	  <point x="336" y="148"/>
	  <point x="365" y="68" type="curve" smooth="yes"/>
	  <point x="377" y="36"/>
	  <point x="419" y="13"/>
	  <point x="436" y="13" type="curve" smooth="yes"/>
	  <point x="517" y="13"/>
	  <point x="624" y="556"/>
	  <point x="624" y="671" type="curve" smooth="yes"/>
	</contour>
	<contour>
	  <point x="381" y="743" type="move" name="top"/>
	</contour>
  </outline>
</glyph>
<glyph name="O" format="1">
  <advance width="619"/>
  <unicode hex="004F"/>
  <outline>
    <contour>
      <point x="454" y="743" type="move" name="top"/>
    </contour>
    <contour>
      <point x="32" y="230" type="curve" smooth="yes"/>
      <point x="32" y="140"/>
      <point x="118" y="13"/>
      <point x="222" y="13" type="curve" smooth="yes"/>
      <point x="429" y="13"/>
      <point x="607" y="284"/>
      <point x="607" y="471" type="curve" smooth="yes"/>
      <point x="607" y="613"/>
      <point x="520" y="747"/>
      <point x="386" y="747" type="curve" smooth="yes"/>
      <point x="242" y="747"/>
      <point x="32" y="487"/>
    </contour>
    <contour>
      <point x="398" y="616" type="curve" smooth="yes"/>
      <point x="437" y="616"/>
      <point x="465" y="567"/>
      <point x="465" y="461" type="curve" smooth="yes"/>
      <point x="465" y="320"/>
      <point x="306" y="134"/>
      <point x="221" y="134" type="curve" smooth="yes"/>
      <point x="197" y="134"/>
      <point x="179" y="172"/>
      <point x="179" y="230" type="curve" smooth="yes"/>
      <point x="179" y="411"/>
      <point x="333" y="616"/>
    </contour>
  </outline>
</glyph>
<glyph name="P" format="1">
  <advance width="549"/>
  <unicode hex="0050"/>
  <outline>
    <contour>
      <point x="125" y="384"/>
      <point x="22" y="190"/>
      <point x="22" y="119" type="curve" smooth="yes"/>
      <point x="22" y="88"/>
      <point x="77" y="18"/>
      <point x="109" y="18" type="curve" smooth="yes"/>
      <point x="133" y="18"/>
      <point x="154" y="102"/>
      <point x="191" y="229" type="curve" smooth="yes"/>
      <point x="246" y="415"/>
      <point x="263" y="477"/>
      <point x="263" y="541" type="curve" smooth="yes"/>
      <point x="263" y="601"/>
      <point x="189" y="680"/>
      <point x="157" y="680" type="curve" smooth="yes"/>
      <point x="133" y="680"/>
      <point x="125" y="667"/>
      <point x="125" y="647" type="curve" smooth="yes"/>
    </contour>
    <contour>
      <point x="145" y="239" type="line"/>
      <point x="385" y="270"/>
      <point x="578" y="408"/>
      <point x="578" y="571" type="curve" smooth="yes"/>
      <point x="578" y="684"/>
      <point x="483" y="770"/>
      <point x="319" y="770" type="curve" smooth="yes"/>
      <point x="231" y="770"/>
      <point x="91" y="725"/>
      <point x="91" y="678" type="curve" smooth="yes"/>
      <point x="91" y="656"/>
      <point x="145" y="583"/>
      <point x="186" y="583" type="curve" smooth="yes"/>
      <point x="229" y="583"/>
      <point x="278" y="641"/>
      <point x="357" y="641" type="curve" smooth="yes"/>
      <point x="400" y="641"/>
      <point x="436" y="611"/>
      <point x="436" y="568" type="curve" smooth="yes"/>
      <point x="436" y="471"/>
      <point x="286" y="378"/>
      <point x="114" y="343" type="curve"/>
    </contour>
  </outline>
</glyph>
<glyph name="R" format="1">
  <advance width="601"/>
  <unicode hex="0052"/>
  <outline>
    <contour>
      <point x="581" y="674"/>
      <point x="480" y="744"/>
      <point x="337" y="744" type="curve" smooth="yes"/>
      <point x="203" y="744"/>
      <point x="87" y="685"/>
      <point x="87" y="648" type="curve" smooth="yes"/>
      <point x="87" y="616"/>
      <point x="131" y="549"/>
      <point x="162" y="549" type="curve" smooth="yes"/>
      <point x="211" y="549"/>
      <point x="265" y="603"/>
      <point x="345" y="603" type="curve" smooth="yes"/>
      <point x="405" y="603"/>
      <point x="427" y="587"/>
      <point x="427" y="561" type="curve" smooth="yes"/>
      <point x="427" y="447"/>
      <point x="209" y="387"/>
      <point x="210" y="320" type="curve" smooth="yes"/>
      <point x="211" y="220"/>
      <point x="375" y="8"/>
      <point x="510" y="8" type="curve" smooth="yes"/>
      <point x="552" y="8"/>
      <point x="567" y="26"/>
      <point x="567" y="49" type="curve" smooth="yes"/>
      <point x="567" y="78"/>
      <point x="504" y="125"/>
      <point x="443" y="185" type="curve" smooth="yes"/>
      <point x="394" y="234"/>
      <point x="368" y="260"/>
      <point x="368" y="295" type="curve" smooth="yes"/>
      <point x="368" y="321"/>
      <point x="581" y="403"/>
      <point x="581" y="571" type="curve" smooth="yes"/>
    </contour>
    <contour>
      <point x="35" y="78"/>
      <point x="91" y="8"/>
      <point x="123" y="8" type="curve" smooth="yes"/>
      <point x="147" y="8"/>
      <point x="168" y="92"/>
      <point x="205" y="199" type="curve" smooth="yes"/>
      <point x="268" y="382"/>
      <point x="277" y="447"/>
      <point x="277" y="511" type="curve" smooth="yes"/>
      <point x="277" y="571"/>
      <point x="202" y="650"/>
      <point x="170" y="650" type="curve" smooth="yes"/>
      <point x="146" y="650"/>
      <point x="138" y="637"/>
      <point x="138" y="617" type="curve" smooth="yes"/>
      <point x="138" y="354"/>
      <point x="35" y="180"/>
      <point x="35" y="109" type="curve" smooth="yes"/>
    </contour>
    <contour>
      <point x="367" y="743" type="move" name="top"/>
    </contour>
  </outline>
</glyph>
<glyph name="S" format="1">
  <advance width="552"/>
  <unicode hex="0053"/>
  <outline>
    <contour>
      <point x="191" y="0" type="move" name="cedilla"/>
    </contour>
    <contour>
      <point x="400" y="743" type="move" name="top"/>
    </contour>
    <contour>
      <point x="227" y="13" type="curve" smooth="yes"/>
      <point x="373" y="13"/>
      <point x="499" y="106"/>
      <point x="499" y="220" type="curve" smooth="yes"/>
      <point x="499" y="365"/>
      <point x="276" y="478"/>
      <point x="276" y="518" type="curve" smooth="yes"/>
      <point x="276" y="540"/>
      <point x="322" y="561"/>
      <point x="397" y="590" type="curve" smooth="yes"/>
      <point x="465" y="616"/>
      <point x="552" y="616"/>
      <point x="552" y="648" type="curve" smooth="yes"/>
      <point x="552" y="690"/>
      <point x="518" y="748"/>
      <point x="464" y="748" type="curve" smooth="yes"/>
      <point x="377" y="748"/>
      <point x="246" y="689"/>
      <point x="174" y="618" type="curve" smooth="yes"/>
      <point x="151" y="598"/>
      <point x="134" y="539"/>
      <point x="134" y="497" type="curve" smooth="yes"/>
      <point x="134" y="427"/>
      <point x="360" y="275"/>
      <point x="360" y="222" type="curve" smooth="yes"/>
      <point x="360" y="191"/>
      <point x="271" y="130"/>
      <point x="214" y="130" type="curve" smooth="yes"/>
      <point x="121" y="130"/>
      <point x="92" y="226"/>
      <point x="33" y="226" type="curve" smooth="yes"/>
      <point x="11" y="226"/>
      <point x="2" y="202"/>
      <point x="2" y="172" type="curve" smooth="yes"/>
      <point x="2" y="106"/>
      <point x="86" y="13"/>
    </contour>
  </outline>
</glyph>
<glyph name="T" format="1">
  <advance width="544"/>
  <unicode hex="0054"/>
  <outline>
    <contour>
      <point x="193" y="0" type="move" name="cedilla"/>
    </contour>
    <contour>
      <point x="365" y="743" type="move" name="top"/>
    </contour>
    <contour>
      <point x="249" y="684" type="curve" smooth="yes"/>
      <point x="249" y="471"/>
      <point x="153" y="190"/>
      <point x="153" y="119" type="curve" smooth="yes"/>
      <point x="153" y="88"/>
      <point x="208" y="18"/>
      <point x="237" y="18" type="curve" smooth="yes"/>
      <point x="259" y="18"/>
      <point x="273" y="99"/>
      <point x="300" y="229" type="curve" smooth="yes"/>
      <point x="337" y="405"/>
      <point x="380" y="537"/>
      <point x="380" y="579" type="curve" smooth="yes"/>
      <point x="380" y="639"/>
      <point x="307" y="717"/>
      <point x="278" y="717" type="curve" smooth="yes"/>
      <point x="256" y="717"/>
      <point x="249" y="704"/>
    </contour>
    <contour>
      <point x="340" y="737" type="curve" smooth="yes"/>
      <point x="208" y="737"/>
      <point x="55" y="730"/>
      <point x="55" y="688" type="curve" smooth="yes"/>
      <point x="55" y="644"/>
      <point x="96" y="597"/>
      <point x="127" y="597" type="curve" smooth="yes"/>
      <point x="177" y="597"/>
      <point x="235" y="605"/>
      <point x="324" y="605" type="curve" smooth="yes"/>
      <point x="454" y="605"/>
      <point x="518" y="598"/>
      <point x="569" y="598" type="curve" smooth="yes"/>
      <point x="604" y="598"/>
      <point x="624" y="618"/>
      <point x="624" y="634" type="curve" smooth="yes"/>
      <point x="624" y="684"/>
      <point x="550" y="737"/>
    </contour>
  </outline>
</glyph>
<glyph name="V" format="1">
  <advance width="532"/>
  <unicode hex="0056"/>
  <outline>
    <contour>
      <point x="179" y="705"/>
      <point x="123" y="745"/>
      <point x="80" y="745" type="curve" smooth="yes"/>
      <point x="65" y="745"/>
      <point x="53" y="733"/>
      <point x="53" y="701" type="curve" smooth="yes"/>
      <point x="53" y="631"/>
      <point x="137" y="188"/>
      <point x="178" y="80" type="curve" smooth="yes"/>
      <point x="190" y="49"/>
      <point x="237" y="14"/>
      <point x="255" y="14" type="curve" smooth="yes"/>
      <point x="314" y="14"/>
      <point x="359" y="171"/>
      <point x="443" y="341" type="curve" smooth="yes"/>
      <point x="524" y="506"/>
      <point x="597" y="629"/>
      <point x="597" y="681" type="curve" smooth="yes"/>
      <point x="597" y="712"/>
      <point x="548" y="745"/>
      <point x="512" y="745" type="curve" smooth="yes"/>
      <point x="470" y="745"/>
      <point x="394" y="596"/>
      <point x="249" y="195" type="curve"/>
      <point x="269" y="195" type="line"/>
      <point x="234" y="366"/>
      <point x="225" y="590"/>
      <point x="206" y="639" type="curve" smooth="yes"/>
    </contour>
  </outline>
</glyph>
<glyph name="W" format="1">
  <advance width="785"/>
  <unicode hex="0057"/>
  <outline>
    <contour>
      <point x="744" y="410" type="curve" smooth="yes"/>
      <point x="744" y="585"/>
      <point x="671" y="747"/>
      <point x="466" y="747" type="curve" smooth="yes"/>
      <point x="432" y="747"/>
      <point x="411" y="735"/>
      <point x="411" y="702" type="curve" smooth="yes"/>
      <point x="411" y="673"/>
      <point x="451" y="613"/>
      <point x="495" y="613" type="curve" smooth="yes"/>
      <point x="573" y="613"/>
      <point x="601" y="529"/>
      <point x="601" y="426" type="curve" smooth="yes"/>
      <point x="601" y="304"/>
      <point x="555" y="164"/>
      <point x="501" y="164" type="curve" smooth="yes"/>
      <point x="438" y="164"/>
      <point x="463" y="430"/>
      <point x="413" y="430" type="curve" smooth="yes"/>
      <point x="355" y="430"/>
      <point x="238" y="317"/>
      <point x="173" y="162" type="curve"/>
      <point x="191" y="166" type="line"/>
      <point x="191" y="335"/>
      <point x="263" y="574"/>
      <point x="263" y="625" type="curve" smooth="yes"/>
      <point x="263" y="682"/>
      <point x="170" y="745"/>
      <point x="126" y="745" type="curve" smooth="yes"/>
      <point x="110" y="745"/>
      <point x="100" y="733"/>
      <point x="100" y="703" type="curve" smooth="yes"/>
      <point x="100" y="404"/>
      <point x="58" y="284"/>
      <point x="58" y="107" type="curve" smooth="yes"/>
      <point x="58" y="60"/>
      <point x="133" y="13"/>
      <point x="153" y="13" type="curve" smooth="yes"/>
      <point x="191" y="13"/>
      <point x="253" y="69"/>
      <point x="325" y="176" type="curve" smooth="yes"/>
      <point x="369" y="240"/>
      <point x="393" y="273"/>
      <point x="425" y="327" type="curve"/>
      <point x="352" y="305" type="line"/>
      <point x="353" y="123"/>
      <point x="391" y="13"/>
      <point x="495" y="13" type="curve" smooth="yes"/>
      <point x="632" y="13"/>
      <point x="744" y="222"/>
    </contour>
  </outline>
</glyph>
<glyph name="Z" format="1">
  <advance width="646"/>
  <unicode hex="005A"/>
  <outline>
	<contour>
	  <point x="563" y="592"/>
	  <point x="524" y="674"/>
	  <point x="479" y="690" type="curve" smooth="yes"/>
	  <point x="427" y="709"/>
	  <point x="364" y="731"/>
	  <point x="259" y="731" type="curve" smooth="yes"/>
	  <point x="156" y="731"/>
	  <point x="119" y="707"/>
	  <point x="119" y="685" type="curve" smooth="yes"/>
	  <point x="119" y="653"/>
	  <point x="163" y="585"/>
	  <point x="202" y="585" type="curve" smooth="yes"/>
	  <point x="231" y="585"/>
	  <point x="239" y="596"/>
	  <point x="312" y="596" type="curve" smooth="yes"/>
	  <point x="381" y="596"/>
	  <point x="435" y="584"/>
	  <point x="435" y="550" type="curve" smooth="yes"/>
	  <point x="434" y="507"/>
	  <point x="50" y="278"/>
	  <point x="49" y="158" type="curve" smooth="yes"/>
	  <point x="49" y="112"/>
	  <point x="101" y="13"/>
	  <point x="173" y="13" type="curve" smooth="yes"/>
	  <point x="309" y="13"/>
	  <point x="560" y="74"/>
	  <point x="560" y="141" type="curve" smooth="yes"/>
	  <point x="560" y="163"/>
	  <point x="541" y="176"/>
	  <point x="493" y="176" type="curve" smooth="yes"/>
	  <point x="406" y="176"/>
	  <point x="320" y="151"/>
	  <point x="225" y="151" type="curve" smooth="yes"/>
	  <point x="216" y="151"/>
	  <point x="210" y="156"/>
	  <point x="210" y="166" type="curve" smooth="yes"/>
	  <point x="210" y="207"/>
	  <point x="563" y="414"/>
	  <point x="563" y="553" type="curve" smooth="yes"/>
	</contour>
	<contour>
	  <point x="378" y="743" type="move" name="top"/>
	</contour>
  </outline>
</glyph>
<glyph name="backslash" format="1">
  <advance width="600"/>
  <unicode hex="005C"/>
  <outline>
	<contour>
	  <point x="493" y="-80"/>
	  <point x="541" y="-17"/>
	  <point x="541" y="14" type="curve" smooth="yes"/>
	  <point x="541" y="86"/>
	  <point x="313" y="615"/>
	  <point x="239" y="827" type="curve" smooth="yes"/>
	  <point x="233" y="844"/>
	  <point x="232" y="857"/>
	  <point x="211" y="857" type="curve" smooth="yes"/>
	  <point x="186" y="857"/>
	  <point x="115" y="774"/>
	  <point x="115" y="729" type="curve" smooth="yes"/>
	  <point x="115" y="675"/>
	  <point x="171" y="568"/>
	  <point x="284" y="293" type="curve" smooth="yes"/>
	  <point x="357" y="116"/>
	  <point x="440" y="-80"/>
	  <point x="463" y="-80" type="curve" smooth="yes"/>
	</contour>
  </outline>
</glyph>
<glyph name="bracketright" format="1">
  <advance width="521"/>
  <unicode hex="005D"/>
  <outline>
    <contour>
      <point x="131" y="650"/>
      <point x="168" y="644"/>
      <point x="204" y="644" type="curve" smooth="yes"/>
      <point x="244" y="644"/>
      <point x="281" y="649"/>
      <point x="318" y="649" type="curve" smooth="yes"/>
      <point x="382" y="649"/>
      <point x="398" y="644"/>
      <point x="437" y="644" type="curve" smooth="yes"/>
      <point x="469" y="644"/>
      <point x="498" y="667"/>
      <point x="498" y="707" type="curve" smooth="yes"/>
      <point x="498" y="765"/>
      <point x="414" y="768"/>
      <point x="328" y="768" type="curve" smooth="yes"/>
      <point x="212" y="768"/>
      <point x="131" y="727"/>
      <point x="131" y="676" type="curve" smooth="yes"/>
    </contour>
    <contour>
      <point x="22" y="-27"/>
      <point x="143" y="-78"/>
      <point x="222" y="-78" type="curve" smooth="yes"/>
      <point x="316" y="-78"/>
      <point x="357" y="-57"/>
      <point x="374" y="17" type="curve" smooth="yes"/>
      <point x="410" y="182"/>
      <point x="498" y="544"/>
      <point x="498" y="714" type="curve" smooth="yes"/>
      <point x="498" y="727"/>
      <point x="477" y="744"/>
      <point x="460" y="744" type="curve" smooth="yes"/>
      <point x="432" y="744"/>
      <point x="336" y="696"/>
      <point x="336" y="651" type="curve" smooth="yes"/>
      <point x="336" y="464"/>
      <point x="223" y="83"/>
      <point x="222" y="68" type="curve" smooth="yes"/>
      <point x="221" y="55"/>
      <point x="208" y="53"/>
      <point x="189" y="53" type="curve" smooth="yes"/>
      <point x="138" y="53"/>
      <point x="110" y="63"/>
      <point x="61" y="63" type="curve" smooth="yes"/>
      <point x="40" y="63"/>
      <point x="22" y="55"/>
      <point x="22" y="33" type="curve" smooth="yes"/>
    </contour>
  </outline>
</glyph>
<glyph name="asciicircum" format="1">
  <advance width="422"/>
  <unicode hex="005E"/>
  <outline>
    <contour>
      <point x="15" y="575" type="curve" smooth="yes"/>
      <point x="15" y="556"/>
      <point x="58" y="523"/>
      <point x="91" y="523" type="curve" smooth="yes"/>
      <point x="124" y="523"/>
      <point x="132" y="572"/>
      <point x="166" y="635" type="curve" smooth="yes"/>
      <point x="201" y="700"/>
      <point x="225" y="723"/>
      <point x="265" y="761" type="curve"/>
      <point x="227" y="749" type="line"/>
      <point x="272" y="671"/>
      <point x="354" y="528"/>
      <point x="398" y="528" type="curve" smooth="yes"/>
      <point x="416" y="528"/>
      <point x="423" y="534"/>
      <point x="423" y="551" type="curve" smooth="yes"/>
      <point x="423" y="568"/>
      <point x="409" y="603"/>
      <point x="381" y="669" type="curve" smooth="yes"/>
      <point x="332" y="782"/>
      <point x="329" y="834"/>
      <point x="308" y="849" type="curve" smooth="yes"/>
      <point x="293" y="859"/>
      <point x="248" y="882"/>
      <point x="216" y="882" type="curve" smooth="yes"/>
      <point x="156" y="882"/>
      <point x="15" y="652"/>
    </contour>
  </outline>
</glyph>
<glyph name="grave" format="1">
  <advance width="0"/>
  <unicode hex="0060"/>
  <outline>
    <contour>
      <point x="-125" y="765"/>
      <point x="-85" y="745"/>
      <point x="-22" y="706" type="curve" smooth="yes"/>
      <point x="32" y="673"/>
      <point x="50" y="650"/>
      <point x="73" y="650" type="curve" smooth="yes"/>
      <point x="93" y="650"/>
      <point x="113" y="671"/>
      <point x="113" y="695" type="curve" smooth="yes"/>
      <point x="113" y="720"/>
      <point x="100" y="735"/>
      <point x="35" y="799" type="curve" smooth="yes"/>
      <point x="-6" y="839"/>
      <point x="-32" y="875"/>
      <point x="-58" y="875" type="curve" smooth="yes"/>
      <point x="-89" y="875"/>
      <point x="-125" y="832"/>
      <point x="-125" y="793" type="curve" smooth="yes"/>
    </contour>
    <contour>
      <point x="0" y="603" type="move" name="_top"/>
    </contour>
  </outline>
</glyph>
<glyph name="b" format="1">
  <advance width="567"/>
  <unicode hex="0062"/>
  <outline>
    <contour>
      <point x="150" y="548"/>
      <point x="18" y="169"/>
      <point x="18" y="104" type="curve" smooth="yes"/>
      <point x="18" y="76"/>
      <point x="74" y="12"/>
      <point x="103" y="12" type="curve" smooth="yes"/>
      <point x="134" y="12"/>
      <point x="176" y="226"/>
      <point x="211" y="341" type="curve" smooth="yes"/>
      <point x="242" y="443"/>
      <point x="280" y="603"/>
      <point x="280" y="683" type="curve" smooth="yes"/>
      <point x="280" y="737"/>
      <point x="207" y="808"/>
      <point x="179" y="808" type="curve" smooth="yes"/>
      <point x="157" y="808"/>
      <point x="150" y="796"/>
      <point x="150" y="778" type="curve" smooth="yes"/>
    </contour>
    <contour>
      <point x="301" y="527"/>
      <point x="115" y="284"/>
      <point x="46" y="143" type="curve"/>
      <point x="138" y="69" type="line"/>
      <point x="194" y="229"/>
      <point x="310" y="392"/>
      <point x="405" y="392" type="curve" smooth="yes"/>
      <point x="420" y="392"/>
      <point x="421" y="391"/>
      <point x="421" y="383" type="curve" smooth="yes"/>
      <point x="421" y="272"/>
      <point x="325" y="128"/>
      <point x="251" y="128" type="curve" smooth="yes"/>
      <point x="216" y="128"/>
      <point x="160" y="164"/>
      <point x="117" y="225" type="curve"/>
      <point x="37" y="161" type="line"/>
      <point x="105" y="81"/>
      <point x="195" y="13"/>
      <point x="268" y="13" type="curve" smooth="yes"/>
      <point x="427" y="13"/>
      <point x="542" y="259"/>
      <point x="542" y="379" type="curve" smooth="yes"/>
      <point x="542" y="436"/>
      <point x="478" y="527"/>
      <point x="413" y="527" type="curve" smooth="yes"/>
    </contour>
  </outline>
</glyph>
<glyph name="h" format="1">
  <advance width="563"/>
  <unicode hex="0068"/>
  <outline>
    <contour>
      <point x="161" y="808"/>
      <point x="150" y="791"/>
      <point x="150" y="766" type="curve" smooth="yes"/>
      <point x="150" y="741"/>
      <point x="110" y="554"/>
      <point x="81" y="416" type="curve" smooth="yes"/>
      <point x="49" y="258"/>
      <point x="17" y="152"/>
      <point x="17" y="108" type="curve" smooth="yes"/>
      <point x="17" y="80"/>
      <point x="74" y="12"/>
      <point x="104" y="12" type="curve" smooth="yes"/>
      <point x="140" y="12"/>
      <point x="175" y="69"/>
      <point x="217" y="142" type="curve" smooth="yes"/>
      <point x="269" y="232"/>
      <point x="336" y="335"/>
      <point x="387" y="335" type="curve" smooth="yes"/>
      <point x="395" y="335"/>
      <point x="395" y="326"/>
      <point x="395" y="313" type="curve" smooth="yes"/>
      <point x="395" y="295"/>
      <point x="391" y="278"/>
      <point x="388" y="261" type="curve" smooth="yes"/>
      <point x="378" y="202"/>
      <point x="346" y="118"/>
      <point x="346" y="59" type="curve" smooth="yes"/>
      <point x="346" y="24"/>
      <point x="358" y="12"/>
      <point x="379" y="12" type="curve" smooth="yes"/>
      <point x="438" y="12"/>
      <point x="497" y="145"/>
      <point x="520" y="262" type="curve" smooth="yes"/>
      <point x="528" y="305"/>
      <point x="533" y="348"/>
      <point x="533" y="382" type="curve" smooth="yes"/>
      <point x="533" y="429"/>
      <point x="464" y="528"/>
      <point x="422" y="528" type="curve" smooth="yes"/>
      <point x="357" y="528"/>
      <point x="250" y="407"/>
      <point x="163" y="230" type="curve"/>
      <point x="210" y="392"/>
      <point x="280" y="599"/>
      <point x="280" y="683" type="curve" smooth="yes"/>
      <point x="280" y="730"/>
      <point x="219" y="808"/>
      <point x="183" y="808" type="curve" smooth="yes"/>
    </contour>
  </outline>
</glyph>
<glyph name="l" format="1">
  <advance width="266"/>
  <unicode hex="006C"/>
  <outline>
	<contour>
	  <point x="247" y="458"/>
	  <point x="266" y="628"/>
	  <point x="266" y="682" type="curve" smooth="yes"/>
	  <point x="266" y="736"/>
	  <point x="195" y="808"/>
	  <point x="166" y="808" type="curve" smooth="yes"/>
	  <point x="143" y="808"/>
	  <point x="135" y="796"/>
	  <point x="135" y="779" type="curve" smooth="yes"/>
	  <point x="135" y="449"/>
	  <point x="26" y="132"/>
	  <point x="26" y="106" type="curve" smooth="yes"/>
	  <point x="26" y="76"/>
	  <point x="84" y="12"/>
	  <point x="113" y="12" type="curve" smooth="yes"/>
	  <point x="145" y="12"/>
	  <point x="197" y="234"/>
	  <point x="229" y="374" type="curve" smooth="yes"/>
	</contour>
	<contour>
	  <point x="243" y="733" type="move" name="top"/>
	</contour>
  </outline>
</glyph>
<glyph name="m" format="1">
  <advance width="819"/>
  <unicode hex="006D"/>
  <outline>
    <contour>
      <point x="211" y="479"/>
      <point x="156" y="536"/>
      <point x="102" y="536" type="curve" smooth="yes"/>
      <point x="59" y="536"/>
      <point x="85" y="359"/>
      <point x="43" y="216" type="curve" smooth="yes"/>
      <point x="28" y="167"/>
      <point x="15" y="132"/>
      <point x="15" y="103" type="curve" smooth="yes"/>
      <point x="15" y="82"/>
      <point x="71" y="12"/>
      <point x="102" y="12" type="curve" smooth="yes"/>
      <point x="140" y="12"/>
      <point x="200" y="104"/>
      <point x="230" y="155" type="curve" smooth="yes"/>
      <point x="301" y="275"/>
      <point x="337" y="370"/>
      <point x="364" y="370" type="curve" smooth="yes"/>
      <point x="373" y="370"/>
      <point x="373" y="354"/>
      <point x="373" y="331" type="curve" smooth="yes"/>
      <point x="373" y="175"/>
      <point x="340" y="126"/>
      <point x="340" y="89" type="curve" smooth="yes"/>
      <point x="340" y="59"/>
      <point x="388" y="13"/>
      <point x="414" y="13" type="curve" smooth="yes"/>
      <point x="451" y="13"/>
      <point x="468" y="76"/>
      <point x="501" y="139" type="curve" smooth="yes"/>
      <point x="586" y="301"/>
      <point x="622" y="370"/>
      <point x="653" y="370" type="curve" smooth="yes"/>
      <point x="660" y="370"/>
      <point x="663" y="356"/>
      <point x="663" y="337" type="curve" smooth="yes"/>
      <point x="663" y="271"/>
      <point x="611" y="141"/>
      <point x="611" y="59" type="curve" smooth="yes"/>
      <point x="611" y="24"/>
      <point x="623" y="12"/>
      <point x="644" y="12" type="curve" smooth="yes"/>
      <point x="734" y="12"/>
      <point x="789" y="306"/>
      <point x="789" y="385" type="curve" smooth="yes"/>
      <point x="789" y="425"/>
      <point x="756" y="528"/>
      <point x="698" y="528" type="curve" smooth="yes"/>
      <point x="611" y="528"/>
      <point x="498" y="382"/>
      <point x="473" y="280" type="curve"/>
      <point x="484" y="278" type="line"/>
      <point x="486" y="320"/>
      <point x="487" y="371"/>
      <point x="487" y="394" type="curve" smooth="yes"/>
      <point x="487" y="447"/>
      <point x="417" y="528"/>
      <point x="384" y="528" type="curve" smooth="yes"/>
      <point x="274" y="528"/>
      <point x="194" y="298"/>
      <point x="129" y="149" type="curve"/>
      <point x="143" y="156" type="line"/>
      <point x="172" y="261"/>
      <point x="211" y="364"/>
      <point x="211" y="447" type="curve" smooth="yes"/>
    </contour>
  </outline>
</glyph>
<glyph name="o" format="1">
  <advance width="456"/>
  <unicode hex="006F"/>
  <outline>
    <contour>
      <point x="431" y="442"/>
      <point x="354" y="529"/>
      <point x="253" y="529" type="curve" smooth="yes"/>
      <point x="151" y="529"/>
      <point x="20" y="350"/>
      <point x="20" y="180" type="curve" smooth="yes"/>
      <point x="20" y="86"/>
      <point x="83" y="12"/>
      <point x="155" y="12" type="curve" smooth="yes"/>
      <point x="309" y="12"/>
      <point x="431" y="190"/>
      <point x="431" y="353" type="curve" smooth="yes"/>
    </contour>
    <contour>
      <point x="298" y="415"/>
      <point x="300" y="367"/>
      <point x="300" y="342" type="curve" smooth="yes"/>
      <point x="300" y="270"/>
      <point x="242" y="148"/>
      <point x="166" y="114" type="curve"/>
      <point x="155" y="129"/>
      <point x="154" y="164"/>
      <point x="154" y="197" type="curve" smooth="yes"/>
      <point x="154" y="267"/>
      <point x="223" y="402"/>
      <point x="282" y="436" type="curve"/>
    </contour>
    <contour>
      <point x="287" y="507" type="move" name="top"/>
    </contour>
  </outline>
</glyph>
<glyph name="w" format="1">
  <advance width="710"/>
  <unicode hex="0077"/>
  <outline>
    <contour>
      <point x="625" y="528" type="curve" smooth="yes"/>
      <point x="577" y="528"/>
      <point x="574" y="265"/>
      <point x="477" y="168" type="curve"/>
      <point x="474" y="184"/>
      <point x="473" y="202"/>
      <point x="473" y="220" type="curve" smooth="yes"/>
      <point x="473" y="282"/>
      <point x="486" y="355"/>
      <point x="486" y="399" type="curve" smooth="yes"/>
      <point x="486" y="457"/>
      <point x="415" y="528"/>
      <point x="356" y="528" type="curve" smooth="yes"/>
      <point x="304" y="528"/>
      <point x="286" y="327"/>
      <point x="189" y="179" type="curve"/>
      <point x="186" y="265"/>
      <point x="186" y="371"/>
      <point x="186" y="410" type="curve" smooth="yes"/>
      <point x="186" y="438"/>
      <point x="124" y="528"/>
      <point x="68" y="528" type="curve" smooth="yes"/>
      <point x="51" y="528"/>
      <point x="40" y="516"/>
      <point x="40" y="487" type="curve" smooth="yes"/>
      <point x="40" y="434"/>
      <point x="68" y="154"/>
      <point x="102" y="73" type="curve" smooth="yes"/>
      <point x="114" y="44"/>
      <point x="164" y="13"/>
      <point x="182" y="13" type="curve" smooth="yes"/>
      <point x="221" y="13"/>
      <point x="307" y="116"/>
      <point x="369" y="318" type="curve"/>
      <point x="369" y="278"/>
      <point x="369" y="226"/>
      <point x="372" y="179" type="curve" smooth="yes"/>
      <point x="375" y="135"/>
      <point x="381" y="95"/>
      <point x="392" y="73" type="curve" smooth="yes"/>
      <point x="406" y="45"/>
      <point x="454" y="13"/>
      <point x="472" y="13" type="curve" smooth="yes"/>
      <point x="512" y="13"/>
      <point x="637" y="154"/>
      <point x="684" y="320" type="curve" smooth="yes"/>
      <point x="700" y="377"/>
      <point x="720" y="439"/>
      <point x="720" y="471" type="curve" smooth="yes"/>
      <point x="720" y="498"/>
      <point x="660" y="528"/>
    </contour>
  </outline>
</glyph>
<glyph name="y" format="1">
  <advance width="520"/>
  <unicode hex="0079"/>
  <outline>
    <contour>
      <point x="310" y="507" type="move" name="top"/>
    </contour>
    <contour>
      <point x="262" y="445" type="curve" smooth="yes"/>
      <point x="262" y="485"/>
      <point x="217" y="528"/>
      <point x="176" y="528" type="curve" smooth="yes"/>
      <point x="119" y="528"/>
      <point x="32" y="266"/>
      <point x="32" y="151" type="curve" smooth="yes"/>
      <point x="32" y="79"/>
      <point x="113" y="12"/>
      <point x="153" y="12" type="curve" smooth="yes"/>
      <point x="220" y="12"/>
      <point x="352" y="163"/>
      <point x="378" y="309" type="curve"/>
      <point x="356" y="325" type="line"/>
      <point x="253" y="62"/>
      <point x="225" y="-158"/>
      <point x="170" y="-158" type="curve" smooth="yes"/>
      <point x="125" y="-158"/>
      <point x="75" y="-64"/>
      <point x="40" y="-64" type="curve" smooth="yes"/>
      <point x="20" y="-64"/>
      <point x="-16" y="-112"/>
      <point x="-16" y="-143" type="curve" smooth="yes"/>
      <point x="-16" y="-191"/>
      <point x="70" y="-256"/>
      <point x="163" y="-256" type="curve" smooth="yes"/>
      <point x="271" y="-256"/>
      <point x="322" y="-173"/>
      <point x="358" y="-68" type="curve" smooth="yes"/>
      <point x="474" y="269"/>
      <point x="515" y="379"/>
      <point x="515" y="417" type="curve" smooth="yes"/>
      <point x="515" y="476"/>
      <point x="466" y="528"/>
      <point x="428" y="528" type="curve" smooth="yes"/>
      <point x="413" y="528"/>
      <point x="402" y="521"/>
      <point x="398" y="503" type="curve" smooth="yes"/>
      <point x="336" y="310"/>
      <point x="192" y="139"/>
      <point x="168" y="139" type="curve" smooth="yes"/>
      <point x="165" y="139"/>
      <point x="163" y="141"/>
      <point x="163" y="145" type="curve" smooth="yes"/>
      <point x="163" y="249"/>
      <point x="262" y="395"/>
    </contour>
  </outline>
</glyph>
<glyph name="z" format="1">
  <advance width="480"/>
  <unicode hex="007A"/>
  <outline>
    <contour>
      <point x="321" y="518"/>
      <point x="289" y="528"/>
      <point x="238" y="528" type="curve" smooth="yes"/>
      <point x="129" y="528"/>
      <point x="53" y="509"/>
      <point x="53" y="471" type="curve" smooth="yes"/>
      <point x="53" y="447"/>
      <point x="97" y="382"/>
      <point x="129" y="382" type="curve" smooth="yes"/>
      <point x="173" y="382"/>
      <point x="189" y="394"/>
      <point x="250" y="394" type="curve" smooth="yes"/>
      <point x="293" y="394"/>
      <point x="325" y="394"/>
      <point x="325" y="383" type="curve" smooth="yes"/>
      <point x="325" y="349"/>
      <point x="0" y="205"/>
      <point x="0" y="125" type="curve" smooth="yes"/>
      <point x="0" y="94"/>
      <point x="64" y="11"/>
      <point x="134" y="11" type="curve" smooth="yes"/>
      <point x="300" y="11"/>
      <point x="444" y="44"/>
      <point x="444" y="109" type="curve" smooth="yes"/>
      <point x="444" y="136"/>
      <point x="416" y="147"/>
      <point x="391" y="147" type="curve" smooth="yes"/>
      <point x="327" y="147"/>
      <point x="260" y="139"/>
      <point x="173" y="139" type="curve" smooth="yes"/>
      <point x="169" y="139"/>
      <point x="167" y="140"/>
      <point x="167" y="142" type="curve" smooth="yes"/>
      <point x="167" y="161"/>
      <point x="445" y="271"/>
      <point x="445" y="395" type="curve" smooth="yes"/>
      <point x="445" y="421"/>
      <point x="399" y="498"/>
      <point x="351" y="511" type="curve" smooth="yes"/>
    </contour>
    <contour>
      <point x="256" y="507" type="move" name="top"/>
    </contour>
  </outline>
</glyph>
<glyph name="exclamdown" format="1">
  <advance width="425"/>
  <unicode hex="00A1"/>
  <outline>
	<contour>
	  <point x="90" y="-143"/>
	  <point x="181" y="-226"/>
	  <point x="223" y="-226" type="curve" smooth="yes"/>
	  <point x="239" y="-226"/>
	  <point x="255" y="-218"/>
	  <point x="255" y="-197" type="curve" smooth="yes"/>
	  <point x="255" y="103"/>
	  <point x="304" y="241"/>
	  <point x="297" y="275" type="curve" smooth="yes"/>
	  <point x="296" y="314"/>
	  <point x="254" y="361"/>
	  <point x="217" y="361" type="curve" smooth="yes"/>
	  <point x="165" y="361"/>
	  <point x="90" y="-58"/>
	  <point x="90" y="-118" type="curve" smooth="yes"/>
	</contour>
	<contour>
	  <point x="205" y="519"/>
	  <point x="256" y="416"/>
	  <point x="288" y="416" type="curve" smooth="yes"/>
	  <point x="321" y="416"/>
	  <point x="358" y="462"/>
	  <point x="358" y="494" type="curve" smooth="yes"/>
	  <point x="358" y="531"/>
	  <point x="294" y="596"/>
	  <point x="254" y="596" type="curve" smooth="yes"/>
	  <point x="232" y="596"/>
	  <point x="205" y="568"/>
	  <point x="205" y="551" type="curve" smooth="yes"/>
	</contour>
  </outline>
</glyph>
<glyph name="sterling" format="1">
  <advance width="732"/>
  <unicode hex="00A3"/>
  <outline>
    <contour>
      <point x="646" y="643"/>
      <point x="591" y="736"/>
      <point x="520" y="736" type="curve" smooth="yes"/>
      <point x="369" y="736"/>
      <point x="310" y="587"/>
      <point x="254" y="329" type="curve" smooth="yes"/>
      <point x="222" y="181"/>
      <point x="169" y="116"/>
      <point x="149" y="116" type="curve" smooth="yes"/>
      <point x="140" y="116"/>
      <point x="123" y="147"/>
      <point x="123" y="162" type="curve" smooth="yes"/>
      <point x="123" y="178"/>
      <point x="129" y="193"/>
      <point x="152" y="193" type="curve" smooth="yes"/>
      <point x="205" y="193"/>
      <point x="283" y="-4"/>
      <point x="445" y="-4" type="curve" smooth="yes"/>
      <point x="518" y="-4"/>
      <point x="671" y="70"/>
      <point x="671" y="140" type="curve" smooth="yes"/>
      <point x="671" y="180"/>
      <point x="647" y="216"/>
      <point x="610" y="216" type="curve" smooth="yes"/>
      <point x="569" y="216"/>
      <point x="511" y="117"/>
      <point x="431" y="117" type="curve" smooth="yes"/>
      <point x="319" y="117"/>
      <point x="276" y="302"/>
      <point x="133" y="302" type="curve" smooth="yes"/>
      <point x="54" y="302"/>
      <point x="6" y="232"/>
      <point x="6" y="183" type="curve" smooth="yes"/>
      <point x="6" y="97"/>
      <point x="101" y="11"/>
      <point x="139" y="11" type="curve" smooth="yes"/>
      <point x="269" y="11"/>
      <point x="354" y="140"/>
      <point x="375" y="222" type="curve" smooth="yes"/>
      <point x="455" y="535"/>
      <point x="474" y="586"/>
      <point x="512" y="586" type="curve" smooth="yes"/>
      <point x="536" y="586"/>
      <point x="543" y="565"/>
      <point x="543" y="546" type="curve" smooth="yes"/>
      <point x="543" y="525"/>
      <point x="539" y="517"/>
      <point x="539" y="500" type="curve" smooth="yes"/>
      <point x="539" y="484"/>
      <point x="541" y="474"/>
      <point x="557" y="474" type="curve" smooth="yes"/>
      <point x="585" y="474"/>
      <point x="646" y="527"/>
      <point x="646" y="566" type="curve" smooth="yes"/>
    </contour>
    <contour>
      <point x="310" y="313"/>
      <point x="614" y="326"/>
      <point x="615" y="396" type="curve" smooth="yes"/>
      <point x="615" y="425"/>
      <point x="570" y="430"/>
      <point x="517" y="430" type="curve" smooth="yes"/>
      <point x="290" y="430"/>
      <point x="293" y="448"/>
      <point x="195" y="449" type="curve" smooth="yes"/>
      <point x="177" y="449"/>
      <point x="144" y="397"/>
      <point x="144" y="356" type="curve" smooth="yes"/>
      <point x="144" y="324"/>
      <point x="174" y="313"/>
      <point x="240" y="313" type="curve" smooth="yes"/>
    </contour>
  </outline>
</glyph>
<glyph name="currency" format="1">
  <advance width="600"/>
  <unicode hex="00A4"/>
  <outline>
    <contour>
      <point x="312" y="114" type="curve" smooth="yes"/>
      <point x="421" y="114"/>
      <point x="518" y="192"/>
      <point x="518" y="315" type="curve" smooth="yes"/>
      <point x="518" y="413"/>
      <point x="434" y="481"/>
      <point x="324" y="481" type="curve" smooth="yes"/>
      <point x="216" y="481"/>
      <point x="118" y="402"/>
      <point x="118" y="294" type="curve" smooth="yes"/>
      <point x="118" y="181"/>
      <point x="208" y="114"/>
    </contour>
    <contour>
      <point x="330" y="394" type="curve" smooth="yes"/>
      <point x="387" y="394"/>
      <point x="411" y="350"/>
      <point x="414" y="308" type="curve" smooth="yes"/>
      <point x="414" y="264"/>
      <point x="376" y="213"/>
      <point x="318" y="213" type="curve" smooth="yes"/>
      <point x="266" y="213"/>
      <point x="234" y="241"/>
      <point x="234" y="296" type="curve" smooth="yes"/>
      <point x="234" y="354"/>
      <point x="277" y="394"/>
    </contour>
    <contour>
      <point x="446" y="200" type="curve"/>
      <point x="354" y="134" type="line"/>
      <point x="397" y="76"/>
      <point x="439" y="35"/>
      <point x="472" y="35" type="curve" smooth="yes"/>
      <point x="494" y="35"/>
      <point x="505" y="48"/>
      <point x="505" y="72" type="curve" smooth="yes"/>
      <point x="505" y="91"/>
      <point x="478" y="142"/>
    </contour>
    <contour>
      <point x="235" y="512" type="curve" smooth="yes"/>
      <point x="215" y="547"/>
      <point x="139" y="560"/>
      <point x="88" y="560" type="curve" smooth="yes"/>
      <point x="70" y="560"/>
      <point x="69" y="548"/>
      <point x="69" y="532" type="curve" smooth="yes"/>
      <point x="69" y="511"/>
      <point x="139" y="451"/>
      <point x="177" y="373" type="curve"/>
      <point x="281" y="452" type="line"/>
      <point x="265" y="472"/>
      <point x="245" y="498"/>
    </contour>
    <contour>
      <point x="37" y="107" type="curve" smooth="yes"/>
      <point x="37" y="83"/>
      <point x="76" y="34"/>
      <point x="114" y="34" type="curve" smooth="yes"/>
      <point x="146" y="34"/>
      <point x="204" y="94"/>
      <point x="268" y="167" type="curve"/>
      <point x="176" y="255" type="line"/>
      <point x="100" y="168"/>
      <point x="37" y="118"/>
    </contour>
    <contour>
      <point x="582" y="478" type="curve" smooth="yes"/>
      <point x="582" y="510"/>
      <point x="526" y="560"/>
      <point x="501" y="560" type="curve" smooth="yes"/>
      <point x="473" y="560"/>
      <point x="415" y="519"/>
      <point x="367" y="463" type="curve"/>
      <point x="459" y="354" type="line"/>
      <point x="555" y="450"/>
      <point x="582" y="453"/>
    </contour>
  </outline>
</glyph>
<glyph name="yen" format="1">
  <advance width="615"/>
  <unicode hex="00A5"/>
  <outline>
    <contour>
      <point x="397" y="308"/>
      <point x="625" y="327"/>
      <point x="625" y="367" type="curve" smooth="yes"/>
      <point x="625" y="391"/>
      <point x="601" y="404"/>
      <point x="548" y="410" type="curve" smooth="yes"/>
      <point x="500" y="415"/>
      <point x="479" y="419"/>
      <point x="415" y="419" type="curve" smooth="yes"/>
      <point x="265" y="419"/>
      <point x="61" y="408"/>
      <point x="62" y="373" type="curve" smooth="yes"/>
      <point x="62" y="346"/>
      <point x="95" y="284"/>
      <point x="122" y="284" type="curve" smooth="yes"/>
      <point x="192" y="285"/>
      <point x="234" y="300"/>
      <point x="318" y="304" type="curve" smooth="yes"/>
    </contour>
    <contour>
      <point x="413" y="162"/>
      <point x="616" y="196"/>
      <point x="616" y="239" type="curve" smooth="yes"/>
      <point x="616" y="265"/>
      <point x="566" y="271"/>
      <point x="504" y="271" type="curve" smooth="yes"/>
      <point x="367" y="271"/>
      <point x="15" y="240"/>
      <point x="15" y="204" type="curve" smooth="yes"/>
      <point x="15" y="181"/>
      <point x="48" y="119"/>
      <point x="76" y="119" type="curve" smooth="yes"/>
      <point x="145" y="120"/>
      <point x="183" y="128"/>
      <point x="247" y="137" type="curve" smooth="yes"/>
    </contour>
    <contour>
      <point x="226" y="680"/>
      <point x="170" y="720"/>
      <point x="124" y="720" type="curve" smooth="yes"/>
      <point x="108" y="720"/>
      <point x="97" y="708"/>
      <point x="97" y="676" type="curve" smooth="yes"/>
      <point x="97" y="612"/>
      <point x="237" y="352"/>
      <point x="249" y="331" type="curve"/>
      <point x="243" y="201"/>
      <point x="228" y="119"/>
      <point x="228" y="87" type="curve" smooth="yes"/>
      <point x="228" y="47"/>
      <point x="304" y="-3"/>
      <point x="328" y="-3" type="curve" smooth="yes"/>
      <point x="348" y="-3"/>
      <point x="343" y="48"/>
      <point x="359" y="145" type="curve" smooth="yes"/>
      <point x="374" y="232"/>
      <point x="384" y="290"/>
      <point x="386" y="316" type="curve"/>
      <point x="414" y="349"/>
      <point x="592" y="606"/>
      <point x="592" y="659" type="curve" smooth="yes"/>
      <point x="592" y="689"/>
      <point x="549" y="720"/>
      <point x="512" y="720" type="curve" smooth="yes"/>
      <point x="478" y="720"/>
      <point x="424" y="551"/>
      <point x="332" y="448" type="curve"/>
      <point x="283" y="539"/>
      <point x="275" y="563"/>
      <point x="253" y="615" type="curve" smooth="yes"/>
    </contour>
  </outline>
</glyph>
<glyph name="brokenbar" format="1">
  <advance width="455"/>
  <unicode hex="00A6"/>
  <outline>
    <contour>
      <point x="143" y="155"/>
      <point x="95" y="-31"/>
      <point x="95" y="-71" type="curve" smooth="yes"/>
      <point x="95" y="-96"/>
      <point x="158" y="-166"/>
      <point x="187" y="-166" type="curve" smooth="yes"/>
      <point x="219" y="-166"/>
      <point x="280" y="117"/>
      <point x="280" y="154" type="curve" smooth="yes"/>
      <point x="280" y="208"/>
      <point x="200" y="279"/>
      <point x="172" y="279" type="curve" smooth="yes"/>
      <point x="149" y="279"/>
      <point x="143" y="267"/>
      <point x="143" y="249" type="curve" smooth="yes"/>
    </contour>
    <contour>
      <point x="251" y="751"/>
      <point x="203" y="565"/>
      <point x="203" y="525" type="curve" smooth="yes"/>
      <point x="203" y="500"/>
      <point x="266" y="430"/>
      <point x="295" y="430" type="curve" smooth="yes"/>
      <point x="327" y="430"/>
      <point x="389" y="713"/>
      <point x="389" y="750" type="curve" smooth="yes"/>
      <point x="389" y="804"/>
      <point x="308" y="875"/>
      <point x="280" y="875" type="curve" smooth="yes"/>
      <point x="258" y="875"/>
      <point x="251" y="863"/>
      <point x="251" y="845" type="curve" smooth="yes"/>
    </contour>
  </outline>
</glyph>
<glyph name="section" format="1">
  <advance width="529"/>
  <unicode hex="00A7"/>
  <outline>
    <contour>
      <point x="322" y="546" type="line"/>
      <point x="231" y="528"/>
      <point x="59" y="420"/>
      <point x="59" y="310" type="curve" smooth="yes"/>
      <point x="59" y="170"/>
      <point x="245" y="120"/>
      <point x="245" y="37" type="curve" smooth="yes"/>
      <point x="245" y="6"/>
      <point x="220" y="-18"/>
      <point x="177" y="-18" type="curve" smooth="yes"/>
      <point x="148" y="-18"/>
      <point x="122" y="1"/>
      <point x="101" y="29" type="curve" smooth="yes"/>
      <point x="80" y="56"/>
      <point x="64" y="87"/>
      <point x="44" y="87" type="curve" smooth="yes"/>
      <point x="21" y="87"/>
      <point x="-6" y="25"/>
      <point x="-6" y="-10" type="curve" smooth="yes"/>
      <point x="-6" y="-48"/>
      <point x="70" y="-134"/>
      <point x="176" y="-134" type="curve" smooth="yes"/>
      <point x="318" y="-134"/>
      <point x="381" y="-40"/>
      <point x="381" y="31" type="curve" smooth="yes"/>
      <point x="381" y="176"/>
      <point x="196" y="206"/>
      <point x="196" y="309" type="curve" smooth="yes"/>
      <point x="196" y="392"/>
      <point x="359" y="444"/>
      <point x="399" y="464" type="curve"/>
    </contour>
    <contour>
      <point x="531" y="758"/>
      <point x="465" y="815"/>
      <point x="402" y="815" type="curve" smooth="yes"/>
      <point x="324" y="815"/>
      <point x="168" y="711"/>
      <point x="168" y="605" type="curve" smooth="yes"/>
      <point x="168" y="495"/>
      <point x="368" y="405"/>
      <point x="368" y="313" type="curve" smooth="yes"/>
      <point x="368" y="240"/>
      <point x="301" y="196"/>
      <point x="239" y="196" type="curve"/>
      <point x="243" y="114" type="line"/>
      <point x="377" y="114"/>
      <point x="504" y="201"/>
      <point x="504" y="296" type="curve" smooth="yes"/>
      <point x="504" y="469"/>
      <point x="300" y="559"/>
      <point x="301" y="614" type="curve" smooth="yes"/>
      <point x="301" y="652"/>
      <point x="341" y="694"/>
      <point x="386" y="694" type="curve" smooth="yes"/>
      <point x="423" y="694"/>
      <point x="426" y="581"/>
      <point x="483" y="581" type="curve" smooth="yes"/>
      <point x="512" y="581"/>
      <point x="531" y="613"/>
      <point x="531" y="672" type="curve" smooth="yes"/>
    </contour>
  </outline>
</glyph>
<glyph name="dieresis" format="1">
  <advance width="0"/>
  <unicode hex="00A8"/>
  <outline>
    <contour>
      <point x="12" y="715"/>
      <point x="-33" y="810"/>
      <point x="-62" y="810" type="curve" smooth="yes"/>
      <point x="-91" y="810"/>
      <point x="-125" y="767"/>
      <point x="-125" y="738" type="curve" smooth="yes"/>
      <point x="-125" y="705"/>
      <point x="-70" y="648"/>
      <point x="-34" y="648" type="curve" smooth="yes"/>
      <point x="-14" y="648"/>
      <point x="12" y="673"/>
      <point x="12" y="690" type="curve" smooth="yes"/>
    </contour>
    <contour>
      <point x="190" y="715"/>
      <point x="145" y="810"/>
      <point x="116" y="810" type="curve" smooth="yes"/>
      <point x="87" y="810"/>
      <point x="53" y="767"/>
      <point x="53" y="738" type="curve" smooth="yes"/>
      <point x="53" y="705"/>
      <point x="108" y="648"/>
      <point x="144" y="648" type="curve" smooth="yes"/>
      <point x="164" y="648"/>
      <point x="190" y="673"/>
      <point x="190" y="690" type="curve" smooth="yes"/>
    </contour>
    <contour>
      <point x="0" y="592" type="move" name="_top"/>
    </contour>
  </outline>
</glyph>
<glyph name="copyright" format="1">
  <advance width="708"/>
  <unicode hex="00A9"/>
  <outline>
    <contour>
      <point x="512" y="60"/>
      <point x="672" y="206"/>
      <point x="672" y="404" type="curve" smooth="yes"/>
      <point x="672" y="549"/>
      <point x="575" y="660"/>
      <point x="415" y="660" type="curve" smooth="yes"/>
      <point x="235" y="660"/>
      <point x="58" y="492"/>
      <point x="58" y="309" type="curve" smooth="yes"/>
      <point x="58" y="170"/>
      <point x="143" y="60"/>
      <point x="306" y="60" type="curve" smooth="yes"/>
    </contour>
    <contour>
      <point x="576" y="234"/>
      <point x="472" y="134"/>
      <point x="302" y="134" type="curve" smooth="yes"/>
      <point x="211" y="134"/>
      <point x="152" y="190"/>
      <point x="152" y="295" type="curve" smooth="yes"/>
      <point x="152" y="478"/>
      <point x="306" y="585"/>
      <point x="431" y="585" type="curve" smooth="yes"/>
      <point x="515" y="585"/>
      <point x="576" y="513"/>
      <point x="576" y="410" type="curve" smooth="yes"/>
    </contour>
    <contour>
      <point x="447" y="527"/>
      <point x="476" y="483"/>
      <point x="476" y="460" type="curve"/>
      <point x="476" y="451"/>
      <point x="470" y="445"/>
      <point x="461" y="445" type="curve"/>
      <point x="450" y="445"/>
      <point x="449" y="449"/>
      <point x="433" y="449" type="curve"/>
      <point x="390" y="449"/>
      <point x="304" y="357"/>
      <point x="304" y="296" type="curve"/>
      <point x="304" y="282"/>
      <point x="308" y="277"/>
      <point x="321" y="277" type="curve" smooth="yes"/>
      <point x="400" y="277"/>
      <point x="455" y="309"/>
      <point x="471" y="309" type="curve"/>
      <point x="480" y="309"/>
      <point x="488" y="298"/>
      <point x="488" y="288" type="curve"/>
      <point x="488" y="256"/>
      <point x="388" y="200"/>
      <point x="325" y="200" type="curve"/>
      <point x="278" y="200"/>
      <point x="220" y="259"/>
      <point x="220" y="298" type="curve"/>
      <point x="220" y="383"/>
      <point x="327" y="527"/>
      <point x="423" y="527" type="curve"/>
    </contour>
    <contour>
      <point x="316" y="198" type="move" name="cedilla"/>
    </contour>
    <contour>
      <point x="417" y="510" type="move" name="top"/>
    </contour>
  </outline>
</glyph>
<glyph name="logicalnot" format="1">
  <advance width="496"/>
  <unicode hex="00AC"/>
  <outline>
    <contour>
      <point x="83" y="503" type="line" smooth="yes"/>
      <point x="65" y="503"/>
      <point x="60" y="495"/>
      <point x="60" y="478" type="curve" smooth="yes"/>
      <point x="60" y="448"/>
      <point x="103" y="370"/>
      <point x="155" y="370" type="curve" smooth="yes"/>
      <point x="247" y="370"/>
      <point x="332" y="379"/>
      <point x="418" y="379" type="curve" smooth="yes"/>
      <point x="454" y="379"/>
      <point x="495" y="378"/>
      <point x="495" y="368" type="curve" smooth="yes"/>
      <point x="495" y="282"/>
      <point x="382" y="118"/>
      <point x="382" y="92" type="curve" smooth="yes"/>
      <point x="382" y="78"/>
      <point x="391" y="67"/>
      <point x="410" y="67" type="curve" smooth="yes"/>
      <point x="495" y="67"/>
      <point x="628" y="292"/>
      <point x="628" y="377" type="curve" smooth="yes"/>
      <point x="628" y="416"/>
      <point x="600" y="484"/>
      <point x="559" y="492" type="curve" smooth="yes"/>
      <point x="515" y="501"/>
      <point x="427" y="503"/>
      <point x="412" y="503" type="curve"/>
    </contour>
  </outline>
</glyph>
<glyph name="registered" format="1">
  <advance width="671"/>
  <unicode hex="00AE"/>
  <outline>
	<contour>
	  <point x="566" y="630"/>
	  <point x="493" y="713"/>
	  <point x="373" y="713" type="curve" smooth="yes"/>
	  <point x="238" y="713"/>
	  <point x="105" y="587"/>
	  <point x="105" y="450" type="curve" smooth="yes"/>
	  <point x="105" y="345"/>
	  <point x="169" y="263"/>
	  <point x="291" y="263" type="curve" smooth="yes"/>
	  <point x="446" y="263"/>
	  <point x="566" y="372"/>
	  <point x="566" y="521" type="curve" smooth="yes"/>
	</contour>
	<contour>
	  <point x="220" y="319"/>
	  <point x="176" y="361"/>
	  <point x="176" y="439" type="curve" smooth="yes"/>
	  <point x="176" y="576"/>
	  <point x="291" y="657"/>
	  <point x="385" y="657" type="curve" smooth="yes"/>
	  <point x="448" y="657"/>
	  <point x="494" y="603"/>
	  <point x="494" y="525" type="curve" smooth="yes"/>
	  <point x="494" y="393"/>
	  <point x="415" y="319"/>
	  <point x="288" y="319" type="curve" smooth="yes"/>
	</contour>
	<contour>
	  <point x="422" y="509"/>
	  <point x="360" y="482"/>
	  <point x="360" y="471" type="curve" smooth="yes"/>
	  <point x="360" y="463"/>
	  <point x="364" y="454"/>
	  <point x="379" y="439" type="curve" smooth="yes"/>
	  <point x="398" y="422"/>
	  <point x="423" y="406"/>
	  <point x="423" y="395" type="curve" smooth="yes"/>
	  <point x="423" y="387"/>
	  <point x="417" y="381"/>
	  <point x="404" y="381" type="curve" smooth="yes"/>
	  <point x="361" y="381"/>
	  <point x="304" y="451"/>
	  <point x="302" y="480" type="curve" smooth="yes"/>
	  <point x="301" y="501"/>
	  <point x="369" y="522"/>
	  <point x="369" y="551" type="curve" smooth="yes"/>
	  <point x="369" y="556"/>
	  <point x="364" y="558"/>
	  <point x="345" y="558" type="curve" smooth="yes"/>
	  <point x="321" y="558"/>
	  <point x="304" y="542"/>
	  <point x="289" y="542" type="curve" smooth="yes"/>
	  <point x="274" y="542"/>
	  <point x="256" y="569"/>
	  <point x="256" y="577" type="curve" smooth="yes"/>
	  <point x="256" y="589"/>
	  <point x="300" y="608"/>
	  <point x="332" y="608" type="curve" smooth="yes"/>
	  <point x="396" y="608"/>
	  <point x="422" y="585"/>
	  <point x="422" y="554" type="curve" smooth="yes"/>
	</contour>
	<contour>
	  <point x="280" y="574"/>
	  <point x="283" y="579"/>
	  <point x="291" y="579" type="curve" smooth="yes"/>
	  <point x="302" y="579"/>
	  <point x="328" y="554"/>
	  <point x="328" y="536" type="curve" smooth="yes"/>
	  <point x="328" y="519"/>
	  <point x="323" y="499"/>
	  <point x="307" y="443" type="curve" smooth="yes"/>
	  <point x="296" y="406"/>
	  <point x="288" y="381"/>
	  <point x="279" y="381" type="curve" smooth="yes"/>
	  <point x="269" y="381"/>
	  <point x="249" y="403"/>
	  <point x="249" y="413" type="curve" smooth="yes"/>
	  <point x="249" y="435"/>
	  <point x="280" y="489"/>
	  <point x="280" y="567" type="curve" smooth="yes"/>
	</contour>
  </outline>
</glyph>
<glyph name="macron" format="1">
  <advance width="377"/>
  <unicode hex="00AF"/>
  <outline>
    <contour>
      <point x="320" y="613"/>
      <point x="367" y="620"/>
      <point x="367" y="648" type="curve" smooth="yes"/>
      <point x="367" y="671"/>
      <point x="334" y="678"/>
      <point x="288" y="678" type="curve" smooth="yes"/>
      <point x="143" y="678"/>
      <point x="10" y="677"/>
      <point x="10" y="637" type="curve" smooth="yes"/>
      <point x="10" y="614"/>
      <point x="38" y="573"/>
      <point x="66" y="572" type="curve" smooth="yes"/>
      <point x="92" y="572"/>
      <point x="129" y="582"/>
      <point x="207" y="595" type="curve" smooth="yes"/>
    </contour>
  </outline>
</glyph>
<glyph name="threesuperior" format="1">
  <advance width="300"/>
  <unicode hex="00B3"/>
  <outline>
    <contour>
      <point x="209" y="502"/>
      <point x="313" y="596"/>
      <point x="313" y="636" type="curve" smooth="yes"/>
      <point x="313" y="673"/>
      <point x="279" y="711"/>
      <point x="233" y="711" type="curve" smooth="yes"/>
      <point x="189" y="711"/>
      <point x="105" y="681"/>
      <point x="105" y="653" type="curve" smooth="yes"/>
      <point x="105" y="642"/>
      <point x="137" y="606"/>
      <point x="150" y="606" type="curve" smooth="yes"/>
      <point x="168" y="606"/>
      <point x="206" y="644"/>
      <point x="233" y="644" type="curve" smooth="yes"/>
      <point x="236" y="644"/>
      <point x="237" y="643"/>
      <point x="237" y="641" type="curve" smooth="yes"/>
      <point x="237" y="605"/>
      <point x="127" y="555"/>
      <point x="127" y="520" type="curve" smooth="yes"/>
      <point x="127" y="509"/>
      <point x="141" y="502"/>
      <point x="157" y="502" type="curve" smooth="yes"/>
    </contour>
    <contour>
      <point x="41" y="361"/>
      <point x="54" y="351"/>
      <point x="93" y="351" type="curve" smooth="yes"/>
      <point x="182" y="351"/>
      <point x="305" y="407"/>
      <point x="305" y="471" type="curve" smooth="yes"/>
      <point x="305" y="516"/>
      <point x="241" y="545"/>
      <point x="167" y="545" type="curve" smooth="yes"/>
      <point x="143" y="545"/>
      <point x="127" y="529"/>
      <point x="127" y="521" type="curve" smooth="yes"/>
      <point x="127" y="475"/>
      <point x="220" y="506"/>
      <point x="220" y="471" type="curve" smooth="yes"/>
      <point x="220" y="434"/>
      <point x="41" y="394"/>
      <point x="41" y="372" type="curve" smooth="yes"/>
    </contour>
  </outline>
</glyph>
<glyph name="acute" format="1">
  <advance width="266"/>
  <unicode hex="00B4"/>
  <outline>
	<contour>
	  <point x="22" y="745"/>
	  <point x="10" y="725"/>
	  <point x="10" y="696" type="curve" smooth="yes"/>
	  <point x="10" y="674"/>
	  <point x="27" y="650"/>
	  <point x="49" y="650" type="curve" smooth="yes"/>
	  <point x="71" y="650"/>
	  <point x="88" y="667"/>
	  <point x="124" y="687" type="curve" smooth="yes"/>
	  <point x="220" y="740"/>
	  <point x="256" y="741"/>
	  <point x="256" y="790" type="curve" smooth="yes"/>
	  <point x="256" y="828"/>
	  <point x="224" y="874"/>
	  <point x="192" y="874" type="curve" smooth="yes"/>
	  <point x="166" y="874"/>
	  <point x="146" y="850"/>
	  <point x="67" y="783" type="curve" smooth="yes"/>
	</contour>
  </outline>
</glyph>
<glyph name="paragraph" format="1">
  <advance width="592"/>
  <unicode hex="00B6"/>
  <outline>
    <contour>
      <point x="83" y="426"/>
      <point x="138" y="364"/>
      <point x="184" y="364" type="curve" smooth="yes"/>
      <point x="205" y="364"/>
      <point x="234" y="380"/>
      <point x="262" y="404" type="curve"/>
      <point x="215" y="223"/>
      <point x="167" y="104"/>
      <point x="167" y="74" type="curve" smooth="yes"/>
      <point x="167" y="43"/>
      <point x="210" y="12"/>
      <point x="235" y="12" type="curve" smooth="yes"/>
      <point x="261" y="12"/>
      <point x="323" y="222"/>
      <point x="361" y="362" type="curve" smooth="yes"/>
      <point x="394" y="483"/>
      <point x="425" y="640"/>
      <point x="425" y="674" type="curve" smooth="yes"/>
      <point x="425" y="677"/>
      <point x="425" y="683"/>
      <point x="424" y="687" type="curve"/>
      <point x="452" y="691"/>
      <point x="499" y="702"/>
      <point x="527" y="711" type="curve"/>
      <point x="484" y="363"/>
      <point x="371" y="110"/>
      <point x="371" y="74" type="curve" smooth="yes"/>
      <point x="371" y="45"/>
      <point x="415" y="12"/>
      <point x="438" y="12" type="curve" smooth="yes"/>
      <point x="464" y="12"/>
      <point x="526" y="222"/>
      <point x="565" y="362" type="curve" smooth="yes"/>
      <point x="589" y="446"/>
      <point x="630" y="646"/>
      <point x="630" y="679" type="curve" smooth="yes"/>
      <point x="630" y="729"/>
      <point x="589" y="789"/>
      <point x="565" y="797" type="curve" smooth="yes"/>
      <point x="553" y="802"/>
      <point x="534" y="805"/>
      <point x="509" y="805" type="curve" smooth="yes"/>
      <point x="450" y="805"/>
      <point x="349" y="794"/>
      <point x="279" y="772" type="curve" smooth="yes"/>
      <point x="157" y="734"/>
      <point x="83" y="583"/>
      <point x="83" y="472" type="curve" smooth="yes"/>
    </contour>
  </outline>
</glyph>
<glyph name="cedilla" format="1">
  <advance width="301"/>
  <unicode hex="00B8"/>
  <outline>
    <contour>
      <point x="232" y="75"/>
      <point x="208" y="80"/>
      <point x="186" y="80" type="curve" smooth="yes"/>
      <point x="167" y="80"/>
      <point x="149" y="74"/>
      <point x="144" y="60" type="curve" smooth="yes"/>
      <point x="132" y="30"/>
      <point x="88" y="-51"/>
      <point x="88" y="-75" type="curve" smooth="yes"/>
      <point x="88" y="-94"/>
      <point x="148" y="-92"/>
      <point x="171" y="-110" type="curve"/>
      <point x="101" y="-145"/>
      <point x="10" y="-133"/>
      <point x="10" y="-166" type="curve" smooth="yes"/>
      <point x="10" y="-181"/>
      <point x="40" y="-204"/>
      <point x="81" y="-204" type="curve" smooth="yes"/>
      <point x="186" y="-204"/>
      <point x="290" y="-149"/>
      <point x="291" y="-91" type="curve" smooth="yes"/>
      <point x="291" y="-56"/>
      <point x="219" y="-27"/>
      <point x="190" y="-27" type="curve" smooth="yes"/>
      <point x="176" y="-27"/>
      <point x="162" y="-34"/>
      <point x="155" y="-42" type="curve"/>
      <point x="178" y="-56" type="line"/>
      <point x="205" y="-18"/>
      <point x="232" y="40"/>
      <point x="232" y="56" type="curve" smooth="yes"/>
    </contour>
  </outline>
</glyph>
<glyph name="onesuperior" format="1">
  <advance width="161"/>
  <unicode hex="00B9"/>
  <outline>
    <contour>
      <point x="198" y="676"/>
      <point x="145" y="721"/>
      <point x="122" y="721" type="curve" smooth="yes"/>
      <point x="114" y="721"/>
      <point x="106" y="718"/>
      <point x="106" y="706" type="curve" smooth="yes"/>
      <point x="106" y="519"/>
      <point x="68" y="417"/>
      <point x="68" y="378" type="curve" smooth="yes"/>
      <point x="68" y="358"/>
      <point x="96" y="332"/>
      <point x="112" y="332" type="curve" smooth="yes"/>
      <point x="137" y="332"/>
      <point x="150" y="425"/>
      <point x="172" y="513" type="curve" smooth="yes"/>
      <point x="186" y="571"/>
      <point x="198" y="622"/>
      <point x="198" y="663" type="curve" smooth="yes"/>
    </contour>
  </outline>
</glyph>
<glyph name="ordmasculine" format="1">
  <advance width="452"/>
  <unicode hex="00BA"/>
  <outline>
	<contour>
	  <point x="437" y="623"/>
	  <point x="399" y="707"/>
	  <point x="330" y="707" type="curve" smooth="yes"/>
	  <point x="219" y="707"/>
	  <point x="133" y="587"/>
	  <point x="133" y="461" type="curve" smooth="yes"/>
	  <point x="133" y="394"/>
	  <point x="182" y="336"/>
	  <point x="231" y="336" type="curve" smooth="yes"/>
	  <point x="360" y="336"/>
	  <point x="437" y="470"/>
	  <point x="437" y="578" type="curve" smooth="yes"/>
	</contour>
	<contour>
	  <point x="226" y="521"/>
	  <point x="272" y="606"/>
	  <point x="325" y="619" type="curve"/>
	  <point x="340" y="610"/>
	  <point x="346" y="589"/>
	  <point x="346" y="567" type="curve" smooth="yes"/>
	  <point x="346" y="497"/>
	  <point x="282" y="426"/>
	  <point x="247" y="417" type="curve"/>
	  <point x="231" y="433"/>
	  <point x="226" y="446"/>
	  <point x="226" y="468" type="curve" smooth="yes"/>
	</contour>
  </outline>
</glyph>
<glyph name="guillemotright" format="1">
  <advance width="833"/>
  <unicode hex="00BB"/>
  <outline>
	<contour>
	  <point x="174" y="475"/>
	  <point x="127" y="437"/>
	  <point x="127" y="416" type="curve" smooth="yes"/>
	  <point x="127" y="399"/>
	  <point x="137" y="394"/>
	  <point x="156" y="391" type="curve" smooth="yes"/>
	  <point x="278" y="375"/>
	  <point x="312" y="351"/>
	  <point x="312" y="338" type="curve" smooth="yes"/>
	  <point x="312" y="296"/>
	  <point x="92" y="250"/>
	  <point x="92" y="205" type="curve" smooth="yes"/>
	  <point x="92" y="188"/>
	  <point x="107" y="176"/>
	  <point x="131" y="176" type="curve" smooth="yes"/>
	  <point x="214" y="176"/>
	  <point x="424" y="272"/>
	  <point x="424" y="343" type="curve" smooth="yes"/>
	  <point x="424" y="399"/>
	  <point x="254" y="475"/>
	  <point x="201" y="475" type="curve" smooth="yes"/>
	</contour>
	<contour>
	  <point x="450" y="501"/>
	  <point x="412" y="475"/>
	  <point x="412" y="454" type="curve" smooth="yes"/>
	  <point x="412" y="437"/>
	  <point x="421" y="429"/>
	  <point x="440" y="423" type="curve" smooth="yes"/>
	  <point x="557" y="386"/>
	  <point x="580" y="347"/>
	  <point x="580" y="329" type="curve" smooth="yes"/>
	  <point x="580" y="275"/>
	  <point x="371" y="233"/>
	  <point x="371" y="197" type="curve" smooth="yes"/>
	  <point x="371" y="180"/>
	  <point x="388" y="171"/>
	  <point x="419" y="171" type="curve" smooth="yes"/>
	  <point x="468" y="171"/>
	  <point x="564" y="203"/>
	  <point x="650" y="264" type="curve" smooth="yes"/>
	  <point x="672" y="280"/>
	  <point x="687" y="322"/>
	  <point x="687" y="344" type="curve" smooth="yes"/>
	  <point x="687" y="395"/>
	  <point x="512" y="501"/>
	  <point x="475" y="501" type="curve" smooth="yes"/>
	</contour>
  </outline>
</glyph>
<glyph name="onequarter" format="1">
  <advance width="823"/>
  <unicode hex="00BC"/>
  <outline>
    <contour>
      <point x="153" y="-8"/>
      <point x="270" y="157"/>
      <point x="385" y="311" type="curve" smooth="yes"/>
      <point x="562" y="548"/>
      <point x="655" y="660"/>
      <point x="655" y="705" type="curve" smooth="yes"/>
      <point x="655" y="742"/>
      <point x="615" y="796"/>
      <point x="585" y="796" type="curve" smooth="yes"/>
      <point x="573" y="796"/>
      <point x="569" y="788"/>
      <point x="558" y="772" type="curve" smooth="yes"/>
      <point x="431" y="587"/>
      <point x="68" y="90"/>
      <point x="68" y="47" type="curve" smooth="yes"/>
      <point x="68" y="23"/>
      <point x="98" y="-8"/>
      <point x="119" y="-8" type="curve" smooth="yes"/>
    </contour>
    <contour>
      <point x="258" y="621"/>
      <point x="273" y="686"/>
      <point x="273" y="738" type="curve" smooth="yes"/>
      <point x="273" y="754"/>
      <point x="206" y="813"/>
      <point x="176" y="813" type="curve" smooth="yes"/>
      <point x="165" y="813"/>
      <point x="155" y="808"/>
      <point x="155" y="793" type="curve" smooth="yes"/>
      <point x="155" y="542"/>
      <point x="108" y="432"/>
      <point x="108" y="376" type="curve" smooth="yes"/>
      <point x="108" y="349"/>
      <point x="142" y="316"/>
      <point x="162" y="316" type="curve" smooth="yes"/>
      <point x="196" y="316"/>
      <point x="213" y="436"/>
      <point x="240" y="547" type="curve" smooth="yes"/>
    </contour>
    <contour>
      <point x="623" y="87"/>
      <point x="712" y="121"/>
      <point x="712" y="170" type="curve"/>
      <point x="712" y="201"/>
      <point x="699" y="217"/>
      <point x="668" y="217" type="curve"/>
      <point x="637" y="217"/>
      <point x="583" y="177"/>
      <point x="534" y="177" type="curve" smooth="yes"/>
      <point x="522" y="177"/>
      <point x="518" y="178"/>
      <point x="518" y="189" type="curve" smooth="yes"/>
      <point x="518" y="220"/>
      <point x="644" y="364"/>
      <point x="644" y="391" type="curve"/>
      <point x="644" y="414"/>
      <point x="607" y="451"/>
      <point x="585" y="451" type="curve"/>
      <point x="546" y="451"/>
      <point x="413" y="264"/>
      <point x="413" y="183" type="curve" smooth="yes"/>
      <point x="413" y="124"/>
      <point x="464" y="87"/>
      <point x="532" y="87" type="curve" smooth="yes"/>
    </contour>
    <contour>
      <point x="757" y="273"/>
      <point x="699" y="319"/>
      <point x="677" y="319" type="curve"/>
      <point x="666" y="319"/>
      <point x="656" y="312"/>
      <point x="656" y="299" type="curve"/>
      <point x="656" y="147"/>
      <point x="594" y="23"/>
      <point x="594" y="-35" type="curve"/>
      <point x="594" y="-61"/>
      <point x="612" y="-92"/>
      <point x="636" y="-92" type="curve"/>
      <point x="686" y="-92"/>
      <point x="757" y="209"/>
      <point x="757" y="250" type="curve"/>
    </contour>
  </outline>
</glyph>
<glyph name="onehalf" format="1">
  <advance width="858"/>
  <unicode hex="00BD"/>
  <outline>
	<contour>
	  <point x="264" y="621"/>
	  <point x="279" y="690"/>
	  <point x="279" y="738" type="curve" smooth="yes"/>
	  <point x="279" y="754"/>
	  <point x="212" y="813"/>
	  <point x="182" y="813" type="curve" smooth="yes"/>
	  <point x="171" y="813"/>
	  <point x="161" y="808"/>
	  <point x="161" y="793" type="curve" smooth="yes"/>
	  <point x="161" y="533"/>
	  <point x="114" y="424"/>
	  <point x="114" y="376" type="curve" smooth="yes"/>
	  <point x="114" y="349"/>
	  <point x="148" y="316"/>
	  <point x="168" y="316" type="curve" smooth="yes"/>
	  <point x="202" y="316"/>
	  <point x="219" y="436"/>
	  <point x="246" y="547" type="curve" smooth="yes"/>
	</contour>
	<contour>
	  <point x="561" y="288"/>
	  <point x="575" y="343"/>
	  <point x="618" y="343" type="curve"/>
	  <point x="629" y="343"/>
	  <point x="637" y="336"/>
	  <point x="637" y="320" type="curve"/>
	  <point x="637" y="234"/>
	  <point x="406" y="99"/>
	  <point x="406" y="61" type="curve"/>
	  <point x="406" y="27"/>
	  <point x="465" y="-23"/>
	  <point x="496" y="-23" type="curve"/>
	  <point x="558" y="-23"/>
	  <point x="757" y="19"/>
	  <point x="757" y="60" type="curve"/>
	  <point x="757" y="81"/>
	  <point x="732" y="90"/>
	  <point x="691" y="90" type="curve"/>
	  <point x="646" y="90"/>
	  <point x="563" y="78"/>
	  <point x="512" y="64" type="curve"/>
	  <point x="519" y="62" type="line"/>
	  <point x="587" y="78"/>
	  <point x="736" y="215"/>
	  <point x="736" y="325" type="curve"/>
	  <point x="736" y="393"/>
	  <point x="703" y="448"/>
	  <point x="618" y="448" type="curve"/>
	  <point x="533" y="448"/>
	  <point x="479" y="388"/>
	  <point x="479" y="341" type="curve"/>
	  <point x="479" y="326"/>
	  <point x="533" y="288"/>
	  <point x="550" y="288" type="curve"/>
	</contour>
	<contour>
	  <point x="154" y="-8"/>
	  <point x="274" y="157"/>
	  <point x="391" y="311" type="curve" smooth="yes"/>
	  <point x="570" y="547"/>
	  <point x="661" y="657"/>
	  <point x="661" y="703" type="curve" smooth="yes"/>
	  <point x="661" y="748"/>
	  <point x="616" y="796"/>
	  <point x="592" y="796" type="curve" smooth="yes"/>
	  <point x="578" y="796"/>
	  <point x="574" y="789"/>
	  <point x="564" y="772" type="curve" smooth="yes"/>
	  <point x="429" y="549"/>
	  <point x="74" y="110"/>
	  <point x="74" y="48" type="curve" smooth="yes"/>
	  <point x="74" y="19"/>
	  <point x="108" y="-8"/>
	  <point x="125" y="-8" type="curve" smooth="yes"/>
	</contour>
  </outline>
</glyph>
<glyph name="questiondown" format="1">
  <advance width="396"/>
  <unicode hex="00BF"/>
  <outline>
    <contour>
      <point x="4" y="-147"/>
      <point x="74" y="-205"/>
      <point x="171" y="-205" type="curve" smooth="yes"/>
      <point x="256" y="-205"/>
      <point x="347" y="-133"/>
      <point x="347" y="-53" type="curve" smooth="yes"/>
      <point x="347" y="-27"/>
      <point x="293" y="26"/>
      <point x="276" y="26" type="curve" smooth="yes"/>
      <point x="265" y="26"/>
      <point x="251" y="17"/>
      <point x="243" y="14" type="curve" smooth="yes"/>
      <point x="231" y="8"/>
      <point x="228" y="-5"/>
      <point x="228" y="-23" type="curve" smooth="yes"/>
      <point x="228" y="-46"/>
      <point x="207" y="-66"/>
      <point x="176" y="-66" type="curve" smooth="yes"/>
      <point x="155" y="-66"/>
      <point x="135" y="-54"/>
      <point x="135" y="-31" type="curve" smooth="yes"/>
      <point x="135" y="59"/>
      <point x="311" y="125"/>
      <point x="311" y="256" type="curve" smooth="yes"/>
      <point x="311" y="308"/>
      <point x="301" y="351"/>
      <point x="275" y="351" type="curve" smooth="yes"/>
      <point x="241" y="351"/>
      <point x="223" y="287"/>
      <point x="202" y="244" type="curve" smooth="yes"/>
      <point x="158" y="153"/>
      <point x="4" y="81"/>
      <point x="4" y="-48" type="curve" smooth="yes"/>
    </contour>
    <contour>
      <point x="400" y="531"/>
      <point x="336" y="596"/>
      <point x="296" y="596" type="curve" smooth="yes"/>
      <point x="274" y="596"/>
      <point x="247" y="568"/>
      <point x="247" y="551" type="curve" smooth="yes"/>
      <point x="247" y="519"/>
      <point x="298" y="416"/>
      <point x="330" y="416" type="curve" smooth="yes"/>
      <point x="363" y="416"/>
      <point x="400" y="462"/>
      <point x="400" y="494" type="curve" smooth="yes"/>
    </contour>
  </outline>
</glyph>
<glyph name="Agrave" format="1">
  <advance width="631"/>
  <unicode hex="00C0"/>
  <outline>
	<contour>
	  <point x="358" y="744"/>
	  <point x="258" y="707"/>
	  <point x="244" y="662" type="curve" smooth="yes"/>
	  <point x="208" y="550"/>
	  <point x="169" y="454"/>
	  <point x="146" y="384" type="curve" smooth="yes"/>
	  <point x="106" y="267"/>
	  <point x="34" y="135"/>
	  <point x="34" y="100" type="curve" smooth="yes"/>
	  <point x="34" y="55"/>
	  <point x="101" y="14"/>
	  <point x="124" y="14" type="curve" smooth="yes"/>
	  <point x="172" y="14"/>
	  <point x="341" y="570"/>
	  <point x="367" y="651" type="curve"/>
	  <point x="336" y="656" type="line"/>
	  <point x="350" y="560"/>
	  <point x="374" y="241"/>
	  <point x="390" y="136" type="curve" smooth="yes"/>
	  <point x="406" y="33"/>
	  <point x="423" y="14"/>
	  <point x="450" y="14" type="curve" smooth="yes"/>
	  <point x="483" y="14"/>
	  <point x="498" y="48"/>
	  <point x="498" y="177" type="curve" smooth="yes"/>
	  <point x="498" y="505"/>
	  <point x="451" y="744"/>
	  <point x="390" y="744" type="curve" smooth="yes"/>
	</contour>
	<contour>
	  <point x="583" y="381"/>
	  <point x="559" y="388"/>
	  <point x="508" y="388" type="curve" smooth="yes"/>
	  <point x="299" y="388"/>
	  <point x="31" y="338"/>
	  <point x="31" y="277" type="curve" smooth="yes"/>
	  <point x="31" y="243"/>
	  <point x="67" y="196"/>
	  <point x="100" y="196" type="curve" smooth="yes"/>
	  <point x="131" y="196"/>
	  <point x="190" y="220"/>
	  <point x="270" y="242" type="curve" smooth="yes"/>
	  <point x="372" y="270"/>
	  <point x="583" y="303"/>
	  <point x="583" y="353" type="curve" smooth="yes"/>
	</contour>
	<contour>
	  <point x="206" y="905"/>
	  <point x="246" y="885"/>
	  <point x="309" y="846" type="curve" smooth="yes"/>
	  <point x="363" y="813"/>
	  <point x="381" y="790"/>
	  <point x="404" y="790" type="curve" smooth="yes"/>
	  <point x="424" y="790"/>
	  <point x="444" y="811"/>
	  <point x="444" y="835" type="curve" smooth="yes"/>
	  <point x="444" y="860"/>
	  <point x="431" y="875"/>
	  <point x="366" y="939" type="curve" smooth="yes"/>
	  <point x="325" y="979"/>
	  <point x="299" y="1015"/>
	  <point x="273" y="1015" type="curve" smooth="yes"/>
	  <point x="242" y="1015"/>
	  <point x="206" y="972"/>
	  <point x="206" y="933" type="curve" smooth="yes"/>
	</contour>
	<contour>
	  <point x="397" y="8" type="move" name="ogonek"/>
	</contour>
	<contour>
	  <point x="332" y="743" type="move" name="top"/>
	</contour>
  </outline>
</glyph>
<glyph name="Acircumflex" format="1">
  <advance width="631"/>
  <unicode hex="00C2"/>
  <outline>
	<contour>
	  <point x="358" y="744"/>
	  <point x="258" y="707"/>
	  <point x="244" y="662" type="curve" smooth="yes"/>
	  <point x="208" y="550"/>
	  <point x="169" y="454"/>
	  <point x="146" y="384" type="curve" smooth="yes"/>
	  <point x="106" y="267"/>
	  <point x="34" y="135"/>
	  <point x="34" y="100" type="curve" smooth="yes"/>
	  <point x="34" y="55"/>
	  <point x="101" y="14"/>
	  <point x="124" y="14" type="curve" smooth="yes"/>
	  <point x="172" y="14"/>
	  <point x="341" y="570"/>
	  <point x="367" y="651" type="curve"/>
	  <point x="336" y="656" type="line"/>
	  <point x="350" y="560"/>
	  <point x="374" y="241"/>
	  <point x="390" y="136" type="curve" smooth="yes"/>
	  <point x="406" y="33"/>
	  <point x="423" y="14"/>
	  <point x="450" y="14" type="curve" smooth="yes"/>
	  <point x="483" y="14"/>
	  <point x="498" y="48"/>
	  <point x="498" y="177" type="curve" smooth="yes"/>
	  <point x="498" y="505"/>
	  <point x="451" y="744"/>
	  <point x="390" y="744" type="curve" smooth="yes"/>
	</contour>
	<contour>
	  <point x="583" y="381"/>
	  <point x="559" y="388"/>
	  <point x="508" y="388" type="curve" smooth="yes"/>
	  <point x="299" y="388"/>
	  <point x="31" y="338"/>
	  <point x="31" y="277" type="curve" smooth="yes"/>
	  <point x="31" y="243"/>
	  <point x="67" y="196"/>
	  <point x="100" y="196" type="curve" smooth="yes"/>
	  <point x="131" y="196"/>
	  <point x="190" y="220"/>
	  <point x="270" y="242" type="curve" smooth="yes"/>
	  <point x="372" y="270"/>
	  <point x="583" y="303"/>
	  <point x="583" y="353" type="curve" smooth="yes"/>
	</contour>
	<contour>
	  <point x="417" y="958"/>
	  <point x="404" y="1001"/>
	  <point x="378" y="1001" type="curve" smooth="yes"/>
	  <point x="359" y="1001"/>
	  <point x="317" y="972"/>
	  <point x="270" y="945" type="curve" smooth="yes"/>
	  <point x="221" y="917"/>
	  <point x="197" y="891"/>
	  <point x="197" y="855" type="curve" smooth="yes"/>
	  <point x="197" y="828"/>
	  <point x="214" y="806"/>
	  <point x="241" y="806" type="curve" smooth="yes"/>
	  <point x="279" y="806"/>
	  <point x="295" y="843"/>
	  <point x="365" y="879" type="curve"/>
	  <point x="400" y="834"/>
	  <point x="463" y="787"/>
	  <point x="501" y="787" type="curve" smooth="yes"/>
	  <point x="517" y="787"/>
	  <point x="531" y="802"/>
	  <point x="531" y="813" type="curve" smooth="yes"/>
	  <point x="531" y="852"/>
	  <point x="484" y="884"/>
	  <point x="452" y="920" type="curve" smooth="yes"/>
	</contour>
	<contour>
	  <point x="397" y="8" type="move" name="ogonek"/>
	</contour>
	<contour>
	  <point x="332" y="743" type="move" name="top"/>
	</contour>
  </outline>
</glyph>
<glyph name="Atilde" format="1">
  <advance width="631"/>
  <unicode hex="00C3"/>
  <outline>
    <contour>
      <point x="358" y="744"/>
      <point x="258" y="707"/>
      <point x="244" y="662" type="curve" smooth="yes"/>
      <point x="208" y="550"/>
      <point x="169" y="454"/>
      <point x="146" y="384" type="curve" smooth="yes"/>
      <point x="106" y="267"/>
      <point x="34" y="135"/>
      <point x="34" y="100" type="curve" smooth="yes"/>
      <point x="34" y="55"/>
      <point x="101" y="14"/>
      <point x="124" y="14" type="curve" smooth="yes"/>
      <point x="172" y="14"/>
      <point x="341" y="570"/>
      <point x="367" y="651" type="curve"/>
      <point x="336" y="656" type="line"/>
      <point x="350" y="560"/>
      <point x="374" y="241"/>
      <point x="390" y="136" type="curve" smooth="yes"/>
      <point x="406" y="33"/>
      <point x="423" y="14"/>
      <point x="450" y="14" type="curve" smooth="yes"/>
      <point x="483" y="14"/>
      <point x="498" y="48"/>
      <point x="498" y="177" type="curve" smooth="yes"/>
      <point x="498" y="505"/>
      <point x="451" y="744"/>
      <point x="390" y="744" type="curve" smooth="yes"/>
    </contour>
    <contour>
      <point x="583" y="381"/>
      <point x="559" y="388"/>
      <point x="508" y="388" type="curve" smooth="yes"/>
      <point x="299" y="388"/>
      <point x="31" y="338"/>
      <point x="31" y="277" type="curve" smooth="yes"/>
      <point x="31" y="243"/>
      <point x="67" y="196"/>
      <point x="100" y="196" type="curve" smooth="yes"/>
      <point x="131" y="196"/>
      <point x="190" y="220"/>
      <point x="270" y="242" type="curve" smooth="yes"/>
      <point x="372" y="270"/>
      <point x="583" y="303"/>
      <point x="583" y="353" type="curve" smooth="yes"/>
    </contour>
    <contour>
      <point x="232" y="985"/>
      <point x="163" y="900"/>
      <point x="163" y="842" type="curve" smooth="yes"/>
      <point x="163" y="810"/>
      <point x="188" y="794"/>
      <point x="216" y="794" type="curve" smooth="yes"/>
      <point x="272" y="794"/>
      <point x="270" y="866"/>
      <point x="315" y="888" type="curve"/>
      <point x="348" y="827"/>
      <point x="398" y="783"/>
      <point x="441" y="783" type="curve" smooth="yes"/>
      <point x="490" y="783"/>
      <point x="557" y="867"/>
      <point x="557" y="926" type="curve" smooth="yes"/>
      <point x="557" y="957"/>
      <point x="542" y="974"/>
      <point x="517" y="974" type="curve" smooth="yes"/>
      <point x="465" y="974"/>
      <point x="454" y="908"/>
      <point x="429" y="893" type="curve" smooth="yes"/>
      <point x="398" y="909"/>
      <point x="383" y="985"/>
      <point x="298" y="985" type="curve" smooth="yes"/>
    </contour>
    <contour>
      <point x="397" y="8" type="move" name="ogonek"/>
    </contour>
    <contour>
      <point x="332" y="743" type="move" name="top"/>
    </contour>
  </outline>
</glyph>
<glyph name="Adieresis" format="1">
  <advance width="631"/>
  <unicode hex="00C4"/>
  <outline>
    <contour>
      <point x="358" y="744"/>
      <point x="258" y="707"/>
      <point x="244" y="662" type="curve" smooth="yes"/>
      <point x="208" y="550"/>
      <point x="169" y="454"/>
      <point x="146" y="384" type="curve" smooth="yes"/>
      <point x="106" y="267"/>
      <point x="34" y="135"/>
      <point x="34" y="100" type="curve" smooth="yes"/>
      <point x="34" y="55"/>
      <point x="101" y="14"/>
      <point x="124" y="14" type="curve" smooth="yes"/>
      <point x="172" y="14"/>
      <point x="341" y="570"/>
      <point x="367" y="651" type="curve"/>
      <point x="336" y="656" type="line"/>
      <point x="350" y="560"/>
      <point x="374" y="241"/>
      <point x="390" y="136" type="curve" smooth="yes"/>
      <point x="406" y="33"/>
      <point x="423" y="14"/>
      <point x="450" y="14" type="curve" smooth="yes"/>
      <point x="483" y="14"/>
      <point x="498" y="48"/>
      <point x="498" y="177" type="curve" smooth="yes"/>
      <point x="498" y="505"/>
      <point x="451" y="744"/>
      <point x="390" y="744" type="curve" smooth="yes"/>
    </contour>
    <contour>
      <point x="583" y="381"/>
      <point x="559" y="388"/>
      <point x="508" y="388" type="curve" smooth="yes"/>
      <point x="299" y="388"/>
      <point x="31" y="338"/>
      <point x="31" y="277" type="curve" smooth="yes"/>
      <point x="31" y="243"/>
      <point x="67" y="196"/>
      <point x="100" y="196" type="curve" smooth="yes"/>
      <point x="131" y="196"/>
      <point x="190" y="220"/>
      <point x="270" y="242" type="curve" smooth="yes"/>
      <point x="372" y="270"/>
      <point x="583" y="303"/>
      <point x="583" y="353" type="curve" smooth="yes"/>
    </contour>
    <contour>
      <point x="343" y="866"/>
      <point x="298" y="961"/>
      <point x="269" y="961" type="curve" smooth="yes"/>
      <point x="240" y="961"/>
      <point x="206" y="918"/>
      <point x="206" y="889" type="curve" smooth="yes"/>
      <point x="206" y="856"/>
      <point x="261" y="799"/>
      <point x="297" y="799" type="curve" smooth="yes"/>
      <point x="317" y="799"/>
      <point x="343" y="824"/>
      <point x="343" y="841" type="curve" smooth="yes"/>
    </contour>
    <contour>
      <point x="521" y="866"/>
      <point x="476" y="961"/>
      <point x="447" y="961" type="curve" smooth="yes"/>
      <point x="418" y="961"/>
      <point x="384" y="918"/>
      <point x="384" y="889" type="curve" smooth="yes"/>
      <point x="384" y="856"/>
      <point x="439" y="799"/>
      <point x="475" y="799" type="curve" smooth="yes"/>
      <point x="495" y="799"/>
      <point x="521" y="824"/>
      <point x="521" y="841" type="curve" smooth="yes"/>
    </contour>
    <contour>
      <point x="397" y="8" type="move" name="ogonek"/>
    </contour>
    <contour>
      <point x="332" y="743" type="move" name="top"/>
    </contour>
  </outline>
</glyph>
<glyph name="AE" format="1">
  <advance width="899"/>
  <unicode hex="00C6"/>
  <outline>
    <contour>
      <point x="373" y="736"/>
      <point x="306" y="725"/>
      <point x="267" y="672" type="curve" smooth="yes"/>
      <point x="228" y="619"/>
      <point x="173" y="463"/>
      <point x="150" y="401" type="curve" smooth="yes"/>
      <point x="111" y="295"/>
      <point x="34" y="126"/>
      <point x="34" y="99" type="curve" smooth="yes"/>
      <point x="34" y="60"/>
      <point x="93" y="15"/>
      <point x="118" y="15" type="curve" smooth="yes"/>
      <point x="148" y="15"/>
      <point x="213" y="182"/>
      <point x="273" y="339" type="curve" smooth="yes"/>
      <point x="305" y="423"/>
      <point x="362" y="551"/>
      <point x="393" y="584" type="curve" smooth="yes"/>
      <point x="410" y="602"/>
      <point x="513" y="613"/>
      <point x="666" y="613" type="curve" smooth="yes"/>
      <point x="813" y="613"/>
      <point x="939" y="630"/>
      <point x="939" y="665" type="curve" smooth="yes"/>
      <point x="939" y="703"/>
      <point x="847" y="736"/>
      <point x="610" y="736" type="curve" smooth="yes"/>
    </contour>
    <contour>
      <point x="818" y="436"/>
      <point x="746" y="441"/>
      <point x="656" y="441" type="curve" smooth="yes"/>
      <point x="568" y="441"/>
      <point x="136" y="401"/>
      <point x="137" y="340" type="curve" smooth="yes"/>
      <point x="137" y="301"/>
      <point x="170" y="267"/>
      <point x="206" y="267" type="curve" smooth="yes"/>
      <point x="250" y="267"/>
      <point x="429" y="301"/>
      <point x="503" y="313" type="curve" smooth="yes"/>
      <point x="664" y="340"/>
      <point x="818" y="342"/>
      <point x="818" y="396" type="curve" smooth="yes"/>
    </contour>
    <contour>
      <point x="656" y="20"/>
      <point x="843" y="90"/>
      <point x="843" y="164" type="curve" smooth="yes"/>
      <point x="843" y="180"/>
      <point x="837" y="191"/>
      <point x="824" y="191" type="curve" smooth="yes"/>
      <point x="801" y="191"/>
      <point x="685" y="150"/>
      <point x="542" y="150" type="curve" smooth="yes"/>
      <point x="532" y="150"/>
      <point x="525" y="156"/>
      <point x="525" y="167" type="curve" smooth="yes"/>
      <point x="525" y="242"/>
      <point x="621" y="433"/>
      <point x="621" y="594" type="curve" smooth="yes"/>
      <point x="621" y="639"/>
      <point x="527" y="690"/>
      <point x="502" y="690" type="curve" smooth="yes"/>
      <point x="488" y="690"/>
      <point x="486" y="683"/>
      <point x="486" y="666" type="curve" smooth="yes"/>
      <point x="486" y="487"/>
      <point x="380" y="246"/>
      <point x="380" y="131" type="curve" smooth="yes"/>
      <point x="380" y="75"/>
      <point x="439" y="20"/>
      <point x="500" y="20" type="curve" smooth="yes"/>
    </contour>
    <contour>
      <point x="355" y="0" type="move" name="ogonek"/>
    </contour>
    <contour>
      <point x="355" y="0" type="move" name="top"/>
    </contour>
  </outline>
</glyph>
<glyph name="Ccedilla" format="1">
  <advance width="629"/>
  <unicode hex="00C7"/>
  <outline>
	<contour>
	  <point x="535" y="661"/>
	  <point x="478" y="747"/>
	  <point x="441" y="747" type="curve" smooth="yes"/>
	  <point x="254" y="747"/>
	  <point x="37" y="423"/>
	  <point x="37" y="231" type="curve" smooth="yes"/>
	  <point x="37" y="142"/>
	  <point x="152" y="13"/>
	  <point x="239" y="13" type="curve" smooth="yes"/>
	  <point x="362" y="13"/>
	  <point x="559" y="135"/>
	  <point x="559" y="206" type="curve" smooth="yes"/>
	  <point x="559" y="228"/>
	  <point x="548" y="245"/>
	  <point x="540" y="245" type="curve" smooth="yes"/>
	  <point x="514" y="245"/>
	  <point x="387" y="160"/>
	  <point x="230" y="160" type="curve" smooth="yes"/>
	  <point x="194" y="160"/>
	  <point x="184" y="180"/>
	  <point x="184" y="221" type="curve" smooth="yes"/>
	  <point x="184" y="356"/>
	  <point x="359" y="592"/>
	  <point x="463" y="592" type="curve" smooth="yes"/>
	  <point x="489" y="592"/>
	  <point x="507" y="584"/>
	  <point x="522" y="584" type="curve" smooth="yes"/>
	  <point x="528" y="584"/>
	  <point x="535" y="589"/>
	  <point x="535" y="609" type="curve" smooth="yes"/>
	</contour>
	<contour>
	  <point x="277" y="75"/>
	  <point x="253" y="80"/>
	  <point x="231" y="80" type="curve" smooth="yes"/>
	  <point x="212" y="80"/>
	  <point x="194" y="74"/>
	  <point x="189" y="60" type="curve" smooth="yes"/>
	  <point x="177" y="30"/>
	  <point x="133" y="-51"/>
	  <point x="133" y="-75" type="curve" smooth="yes"/>
	  <point x="133" y="-94"/>
	  <point x="193" y="-92"/>
	  <point x="216" y="-110" type="curve"/>
	  <point x="146" y="-145"/>
	  <point x="55" y="-133"/>
	  <point x="55" y="-166" type="curve" smooth="yes"/>
	  <point x="55" y="-181"/>
	  <point x="85" y="-204"/>
	  <point x="126" y="-204" type="curve" smooth="yes"/>
	  <point x="231" y="-204"/>
	  <point x="335" y="-149"/>
	  <point x="336" y="-91" type="curve" smooth="yes"/>
	  <point x="336" y="-56"/>
	  <point x="264" y="-27"/>
	  <point x="235" y="-27" type="curve" smooth="yes"/>
	  <point x="221" y="-27"/>
	  <point x="207" y="-34"/>
	  <point x="200" y="-42" type="curve"/>
	  <point x="223" y="-56" type="line"/>
	  <point x="250" y="-18"/>
	  <point x="277" y="40"/>
	  <point x="277" y="56" type="curve" smooth="yes"/>
	</contour>
	<contour>
	  <point x="208" y="8" type="move" name="cedilla"/>
	</contour>
	<contour>
	  <point x="438" y="743" type="move" name="top"/>
	</contour>
  </outline>
</glyph>
<glyph name="Eacute" format="1">
  <advance width="551"/>
  <unicode hex="00C9"/>
  <outline>
	<contour>
	  <point x="301" y="20"/>
	  <point x="488" y="90"/>
	  <point x="488" y="164" type="curve" smooth="yes"/>
	  <point x="488" y="180"/>
	  <point x="482" y="191"/>
	  <point x="469" y="191" type="curve" smooth="yes"/>
	  <point x="446" y="191"/>
	  <point x="330" y="150"/>
	  <point x="187" y="150" type="curve" smooth="yes"/>
	  <point x="177" y="150"/>
	  <point x="170" y="156"/>
	  <point x="170" y="167" type="curve" smooth="yes"/>
	  <point x="170" y="242"/>
	  <point x="266" y="433"/>
	  <point x="266" y="594" type="curve" smooth="yes"/>
	  <point x="266" y="639"/>
	  <point x="172" y="690"/>
	  <point x="147" y="690" type="curve" smooth="yes"/>
	  <point x="133" y="690"/>
	  <point x="131" y="683"/>
	  <point x="131" y="666" type="curve" smooth="yes"/>
	  <point x="131" y="487"/>
	  <point x="25" y="246"/>
	  <point x="25" y="131" type="curve" smooth="yes"/>
	  <point x="25" y="75"/>
	  <point x="84" y="20"/>
	  <point x="145" y="20" type="curve" smooth="yes"/>
	</contour>
	<contour>
	  <point x="289" y="320"/>
	  <point x="469" y="350"/>
	  <point x="469" y="420" type="curve" smooth="yes"/>
	  <point x="469" y="434"/>
	  <point x="456" y="444"/>
	  <point x="439" y="444" type="curve" smooth="yes"/>
	  <point x="395" y="444"/>
	  <point x="342" y="433"/>
	  <point x="248" y="433" type="curve" smooth="yes"/>
	  <point x="175" y="433"/>
	  <point x="146" y="452"/>
	  <point x="113" y="452" type="curve" smooth="yes"/>
	  <point x="101" y="452"/>
	  <point x="97" y="447"/>
	  <point x="97" y="431" type="curve" smooth="yes"/>
	  <point x="97" y="408"/>
	  <point x="158" y="320"/>
	  <point x="187" y="320" type="curve" smooth="yes"/>
	</contour>
	<contour>
	  <point x="130" y="620"/>
	  <point x="171" y="577"/>
	  <point x="194" y="577" type="curve" smooth="yes"/>
	  <point x="231" y="577"/>
	  <point x="284" y="598"/>
	  <point x="349" y="610" type="curve" smooth="yes"/>
	  <point x="462" y="631"/>
	  <point x="591" y="624"/>
	  <point x="591" y="680" type="curve" smooth="yes"/>
	  <point x="591" y="720"/>
	  <point x="469" y="728"/>
	  <point x="375" y="728" type="curve" smooth="yes"/>
	  <point x="187" y="728"/>
	  <point x="130" y="722"/>
	  <point x="130" y="661" type="curve" smooth="yes"/>
	</contour>
	<contour>
	  <point x="341" y="885"/>
	  <point x="329" y="865"/>
	  <point x="329" y="836" type="curve" smooth="yes"/>
	  <point x="329" y="814"/>
	  <point x="346" y="790"/>
	  <point x="368" y="790" type="curve" smooth="yes"/>
	  <point x="390" y="790"/>
	  <point x="407" y="807"/>
	  <point x="443" y="827" type="curve" smooth="yes"/>
	  <point x="539" y="880"/>
	  <point x="575" y="881"/>
	  <point x="575" y="930" type="curve" smooth="yes"/>
	  <point x="575" y="968"/>
	  <point x="543" y="1014"/>
	  <point x="511" y="1014" type="curve" smooth="yes"/>
	  <point x="485" y="1014"/>
	  <point x="465" y="990"/>
	  <point x="386" y="923" type="curve" smooth="yes"/>
	</contour>
	<contour>
	  <point x="440" y="101" type="move" name="ogonek"/>
	</contour>
	<contour>
	  <point x="342" y="743" type="move" name="top"/>
	</contour>
  </outline>
</glyph>
<glyph name="Ecircumflex" format="1">
  <advance width="551"/>
  <unicode hex="00CA"/>
  <outline>
    <contour>
      <point x="301" y="20"/>
      <point x="488" y="90"/>
      <point x="488" y="164" type="curve" smooth="yes"/>
      <point x="488" y="180"/>
      <point x="482" y="191"/>
      <point x="469" y="191" type="curve" smooth="yes"/>
      <point x="446" y="191"/>
      <point x="330" y="150"/>
      <point x="187" y="150" type="curve" smooth="yes"/>
      <point x="177" y="150"/>
      <point x="170" y="156"/>
      <point x="170" y="167" type="curve" smooth="yes"/>
      <point x="170" y="242"/>
      <point x="266" y="433"/>
      <point x="266" y="594" type="curve" smooth="yes"/>
      <point x="266" y="639"/>
      <point x="172" y="690"/>
      <point x="147" y="690" type="curve" smooth="yes"/>
      <point x="133" y="690"/>
      <point x="131" y="683"/>
      <point x="131" y="666" type="curve" smooth="yes"/>
      <point x="131" y="487"/>
      <point x="25" y="246"/>
      <point x="25" y="131" type="curve" smooth="yes"/>
      <point x="25" y="75"/>
      <point x="84" y="20"/>
      <point x="145" y="20" type="curve" smooth="yes"/>
    </contour>
    <contour>
      <point x="289" y="320"/>
      <point x="469" y="350"/>
      <point x="469" y="420" type="curve" smooth="yes"/>
      <point x="469" y="434"/>
      <point x="456" y="444"/>
      <point x="439" y="444" type="curve" smooth="yes"/>
      <point x="395" y="444"/>
      <point x="342" y="433"/>
      <point x="248" y="433" type="curve" smooth="yes"/>
      <point x="175" y="433"/>
      <point x="146" y="452"/>
      <point x="113" y="452" type="curve" smooth="yes"/>
      <point x="101" y="452"/>
      <point x="97" y="447"/>
      <point x="97" y="431" type="curve" smooth="yes"/>
      <point x="97" y="408"/>
      <point x="158" y="320"/>
      <point x="187" y="320" type="curve" smooth="yes"/>
    </contour>
    <contour>
      <point x="130" y="620"/>
      <point x="171" y="577"/>
      <point x="194" y="577" type="curve" smooth="yes"/>
      <point x="231" y="577"/>
      <point x="284" y="598"/>
      <point x="349" y="610" type="curve" smooth="yes"/>
      <point x="462" y="631"/>
      <point x="591" y="624"/>
      <point x="591" y="680" type="curve" smooth="yes"/>
      <point x="591" y="720"/>
      <point x="469" y="728"/>
      <point x="375" y="728" type="curve" smooth="yes"/>
      <point x="187" y="728"/>
      <point x="130" y="722"/>
      <point x="130" y="661" type="curve" smooth="yes"/>
    </contour>
    <contour>
      <point x="428" y="958"/>
      <point x="415" y="1001"/>
      <point x="389" y="1001" type="curve" smooth="yes"/>
      <point x="370" y="1001"/>
      <point x="328" y="972"/>
      <point x="281" y="945" type="curve" smooth="yes"/>
      <point x="232" y="917"/>
      <point x="208" y="891"/>
      <point x="208" y="855" type="curve" smooth="yes"/>
      <point x="208" y="828"/>
      <point x="225" y="806"/>
      <point x="252" y="806" type="curve" smooth="yes"/>
      <point x="290" y="806"/>
      <point x="306" y="843"/>
      <point x="376" y="879" type="curve"/>
      <point x="411" y="834"/>
      <point x="474" y="787"/>
      <point x="512" y="787" type="curve" smooth="yes"/>
      <point x="528" y="787"/>
      <point x="542" y="802"/>
      <point x="542" y="813" type="curve" smooth="yes"/>
      <point x="542" y="852"/>
      <point x="495" y="884"/>
      <point x="463" y="920" type="curve" smooth="yes"/>
    </contour>
    <contour>
      <point x="440" y="101" type="move" name="ogonek"/>
    </contour>
    <contour>
      <point x="342" y="743" type="move" name="top"/>
    </contour>
  </outline>
</glyph>
<glyph name="Igrave" format="1">
  <advance width="309"/>
  <unicode hex="00CC"/>
  <outline>
	<contour>
	  <point x="148" y="608"/>
	  <point x="50" y="162"/>
	  <point x="50" y="118" type="curve" smooth="yes"/>
	  <point x="50" y="90"/>
	  <point x="110" y="13"/>
	  <point x="138" y="13" type="curve" smooth="yes"/>
	  <point x="168" y="13"/>
	  <point x="187" y="140"/>
	  <point x="217" y="285" type="curve" smooth="yes"/>
	  <point x="253" y="459"/>
	  <point x="286" y="573"/>
	  <point x="286" y="607" type="curve" smooth="yes"/>
	  <point x="286" y="667"/>
	  <point x="210" y="745"/>
	  <point x="182" y="745" type="curve" smooth="yes"/>
	  <point x="160" y="745"/>
	  <point x="152" y="733"/>
	  <point x="151" y="712" type="curve" smooth="yes"/>
	</contour>
	<contour>
	  <point x="109" y="905"/>
	  <point x="149" y="885"/>
	  <point x="212" y="846" type="curve" smooth="yes"/>
	  <point x="266" y="813"/>
	  <point x="284" y="790"/>
	  <point x="307" y="790" type="curve" smooth="yes"/>
	  <point x="327" y="790"/>
	  <point x="347" y="811"/>
	  <point x="347" y="835" type="curve" smooth="yes"/>
	  <point x="347" y="860"/>
	  <point x="334" y="875"/>
	  <point x="269" y="939" type="curve" smooth="yes"/>
	  <point x="228" y="979"/>
	  <point x="202" y="1015"/>
	  <point x="176" y="1015" type="curve" smooth="yes"/>
	  <point x="145" y="1015"/>
	  <point x="109" y="972"/>
	  <point x="109" y="933" type="curve" smooth="yes"/>
	</contour>
	<contour>
	  <point x="77" y="8" type="move" name="ogonek"/>
	</contour>
	<contour>
	  <point x="234" y="743" type="move" name="top"/>
	</contour>
  </outline>
</glyph>
<glyph name="Iacute" format="1">
  <advance width="309"/>
  <unicode hex="00CD"/>
  <outline>
    <contour>
      <point x="148" y="608"/>
      <point x="50" y="162"/>
      <point x="50" y="118" type="curve" smooth="yes"/>
      <point x="50" y="90"/>
      <point x="110" y="13"/>
      <point x="138" y="13" type="curve" smooth="yes"/>
      <point x="168" y="13"/>
      <point x="187" y="140"/>
      <point x="217" y="285" type="curve" smooth="yes"/>
      <point x="253" y="459"/>
      <point x="286" y="573"/>
      <point x="286" y="607" type="curve" smooth="yes"/>
      <point x="286" y="667"/>
      <point x="210" y="745"/>
      <point x="182" y="745" type="curve" smooth="yes"/>
      <point x="160" y="745"/>
      <point x="152" y="733"/>
      <point x="151" y="712" type="curve" smooth="yes"/>
    </contour>
    <contour>
      <point x="233" y="885"/>
      <point x="221" y="865"/>
      <point x="221" y="836" type="curve" smooth="yes"/>
      <point x="221" y="814"/>
      <point x="238" y="790"/>
      <point x="260" y="790" type="curve" smooth="yes"/>
      <point x="282" y="790"/>
      <point x="299" y="807"/>
      <point x="335" y="827" type="curve" smooth="yes"/>
      <point x="431" y="880"/>
      <point x="467" y="881"/>
      <point x="467" y="930" type="curve" smooth="yes"/>
      <point x="467" y="968"/>
      <point x="435" y="1014"/>
      <point x="403" y="1014" type="curve" smooth="yes"/>
      <point x="377" y="1014"/>
      <point x="357" y="990"/>
      <point x="278" y="923" type="curve" smooth="yes"/>
    </contour>
    <contour>
      <point x="77" y="8" type="move" name="ogonek"/>
    </contour>
    <contour>
      <point x="234" y="743" type="move" name="top"/>
    </contour>
  </outline>
</glyph>
<glyph name="Icircumflex" format="1">
  <advance width="309"/>
  <unicode hex="00CE"/>
  <outline>
    <contour>
      <point x="148" y="608"/>
      <point x="50" y="162"/>
      <point x="50" y="118" type="curve" smooth="yes"/>
      <point x="50" y="90"/>
      <point x="110" y="13"/>
      <point x="138" y="13" type="curve" smooth="yes"/>
      <point x="168" y="13"/>
      <point x="187" y="140"/>
      <point x="217" y="285" type="curve" smooth="yes"/>
      <point x="253" y="459"/>
      <point x="286" y="573"/>
      <point x="286" y="607" type="curve" smooth="yes"/>
      <point x="286" y="667"/>
      <point x="210" y="745"/>
      <point x="182" y="745" type="curve" smooth="yes"/>
      <point x="160" y="745"/>
      <point x="152" y="733"/>
      <point x="151" y="712" type="curve" smooth="yes"/>
    </contour>
    <contour>
      <point x="320" y="958"/>
      <point x="307" y="1001"/>
      <point x="281" y="1001" type="curve" smooth="yes"/>
      <point x="262" y="1001"/>
      <point x="220" y="972"/>
      <point x="173" y="945" type="curve" smooth="yes"/>
      <point x="124" y="917"/>
      <point x="100" y="891"/>
      <point x="100" y="855" type="curve" smooth="yes"/>
      <point x="100" y="828"/>
      <point x="117" y="806"/>
      <point x="144" y="806" type="curve" smooth="yes"/>
      <point x="182" y="806"/>
      <point x="198" y="843"/>
      <point x="268" y="879" type="curve"/>
      <point x="303" y="834"/>
      <point x="366" y="787"/>
      <point x="404" y="787" type="curve" smooth="yes"/>
      <point x="420" y="787"/>
      <point x="434" y="802"/>
      <point x="434" y="813" type="curve" smooth="yes"/>
      <point x="434" y="852"/>
      <point x="387" y="884"/>
      <point x="355" y="920" type="curve" smooth="yes"/>
    </contour>
    <contour>
      <point x="77" y="8" type="move" name="ogonek"/>
    </contour>
    <contour>
      <point x="234" y="743" type="move" name="top"/>
    </contour>
  </outline>
</glyph>
<glyph name="Ograve" format="1">
  <advance width="619"/>
  <unicode hex="00D2"/>
  <outline>
	<contour>
	  <point x="32" y="140"/>
	  <point x="118" y="13"/>
	  <point x="222" y="13" type="curve" smooth="yes"/>
	  <point x="429" y="13"/>
	  <point x="607" y="284"/>
	  <point x="607" y="471" type="curve" smooth="yes"/>
	  <point x="607" y="613"/>
	  <point x="520" y="747"/>
	  <point x="386" y="747" type="curve" smooth="yes"/>
	  <point x="242" y="747"/>
	  <point x="32" y="487"/>
	  <point x="32" y="230" type="curve" smooth="yes"/>
	</contour>
	<contour>
	  <point x="437" y="616"/>
	  <point x="465" y="567"/>
	  <point x="465" y="461" type="curve" smooth="yes"/>
	  <point x="465" y="320"/>
	  <point x="306" y="134"/>
	  <point x="221" y="134" type="curve" smooth="yes"/>
	  <point x="197" y="134"/>
	  <point x="179" y="172"/>
	  <point x="179" y="230" type="curve" smooth="yes"/>
	  <point x="179" y="411"/>
	  <point x="333" y="616"/>
	  <point x="398" y="616" type="curve" smooth="yes"/>
	</contour>
	<contour>
	  <point x="329" y="905"/>
	  <point x="369" y="885"/>
	  <point x="432" y="846" type="curve" smooth="yes"/>
	  <point x="486" y="813"/>
	  <point x="504" y="790"/>
	  <point x="527" y="790" type="curve" smooth="yes"/>
	  <point x="547" y="790"/>
	  <point x="567" y="811"/>
	  <point x="567" y="835" type="curve" smooth="yes"/>
	  <point x="567" y="860"/>
	  <point x="554" y="875"/>
	  <point x="489" y="939" type="curve" smooth="yes"/>
	  <point x="448" y="979"/>
	  <point x="422" y="1015"/>
	  <point x="396" y="1015" type="curve" smooth="yes"/>
	  <point x="365" y="1015"/>
	  <point x="329" y="972"/>
	  <point x="329" y="933" type="curve" smooth="yes"/>
	</contour>
	<contour>
	  <point x="454" y="743" type="move" name="top"/>
	</contour>
  </outline>
</glyph>
<glyph name="Oacute" format="1">
  <advance width="619"/>
  <unicode hex="00D3"/>
  <outline>
    <contour>
      <point x="32" y="140"/>
      <point x="118" y="13"/>
      <point x="222" y="13" type="curve" smooth="yes"/>
      <point x="429" y="13"/>
      <point x="607" y="284"/>
      <point x="607" y="471" type="curve" smooth="yes"/>
      <point x="607" y="613"/>
      <point x="520" y="747"/>
      <point x="386" y="747" type="curve" smooth="yes"/>
      <point x="242" y="747"/>
      <point x="32" y="487"/>
      <point x="32" y="230" type="curve" smooth="yes"/>
    </contour>
    <contour>
      <point x="437" y="616"/>
      <point x="465" y="567"/>
      <point x="465" y="461" type="curve" smooth="yes"/>
      <point x="465" y="320"/>
      <point x="306" y="134"/>
      <point x="221" y="134" type="curve" smooth="yes"/>
      <point x="197" y="134"/>
      <point x="179" y="172"/>
      <point x="179" y="230" type="curve" smooth="yes"/>
      <point x="179" y="411"/>
      <point x="333" y="616"/>
      <point x="398" y="616" type="curve" smooth="yes"/>
    </contour>
    <contour>
      <point x="453" y="885"/>
      <point x="441" y="865"/>
      <point x="441" y="836" type="curve" smooth="yes"/>
      <point x="441" y="814"/>
      <point x="458" y="790"/>
      <point x="480" y="790" type="curve" smooth="yes"/>
      <point x="502" y="790"/>
      <point x="519" y="807"/>
      <point x="555" y="827" type="curve" smooth="yes"/>
      <point x="651" y="880"/>
      <point x="687" y="881"/>
      <point x="687" y="930" type="curve" smooth="yes"/>
      <point x="687" y="968"/>
      <point x="655" y="1014"/>
      <point x="623" y="1014" type="curve" smooth="yes"/>
      <point x="597" y="1014"/>
      <point x="577" y="990"/>
      <point x="498" y="923" type="curve" smooth="yes"/>
    </contour>
    <contour>
      <point x="454" y="743" type="move" name="top"/>
    </contour>
  </outline>
</glyph>
<glyph name="Ocircumflex" format="1">
  <advance width="619"/>
  <unicode hex="00D4"/>
  <outline>
    <contour>
      <point x="32" y="140"/>
      <point x="118" y="13"/>
      <point x="222" y="13" type="curve" smooth="yes"/>
      <point x="429" y="13"/>
      <point x="607" y="284"/>
      <point x="607" y="471" type="curve" smooth="yes"/>
      <point x="607" y="613"/>
      <point x="520" y="747"/>
      <point x="386" y="747" type="curve" smooth="yes"/>
      <point x="242" y="747"/>
      <point x="32" y="487"/>
      <point x="32" y="230" type="curve" smooth="yes"/>
    </contour>
    <contour>
      <point x="437" y="616"/>
      <point x="465" y="567"/>
      <point x="465" y="461" type="curve" smooth="yes"/>
      <point x="465" y="320"/>
      <point x="306" y="134"/>
      <point x="221" y="134" type="curve" smooth="yes"/>
      <point x="197" y="134"/>
      <point x="179" y="172"/>
      <point x="179" y="230" type="curve" smooth="yes"/>
      <point x="179" y="411"/>
      <point x="333" y="616"/>
      <point x="398" y="616" type="curve" smooth="yes"/>
    </contour>
    <contour>
      <point x="540" y="958"/>
      <point x="527" y="1001"/>
      <point x="501" y="1001" type="curve" smooth="yes"/>
      <point x="482" y="1001"/>
      <point x="440" y="972"/>
      <point x="393" y="945" type="curve" smooth="yes"/>
      <point x="344" y="917"/>
      <point x="320" y="891"/>
      <point x="320" y="855" type="curve" smooth="yes"/>
      <point x="320" y="828"/>
      <point x="337" y="806"/>
      <point x="364" y="806" type="curve" smooth="yes"/>
      <point x="402" y="806"/>
      <point x="418" y="843"/>
      <point x="488" y="879" type="curve"/>
      <point x="523" y="834"/>
      <point x="586" y="787"/>
      <point x="624" y="787" type="curve" smooth="yes"/>
      <point x="640" y="787"/>
      <point x="654" y="802"/>
      <point x="654" y="813" type="curve" smooth="yes"/>
      <point x="654" y="852"/>
      <point x="607" y="884"/>
      <point x="575" y="920" type="curve" smooth="yes"/>
    </contour>
    <contour>
      <point x="454" y="743" type="move" name="top"/>
    </contour>
  </outline>
</glyph>
<glyph name="Otilde" format="1">
  <advance width="619"/>
  <unicode hex="00D5"/>
  <outline>
	<contour>
	  <point x="32" y="140"/>
	  <point x="118" y="13"/>
	  <point x="222" y="13" type="curve" smooth="yes"/>
	  <point x="429" y="13"/>
	  <point x="607" y="284"/>
	  <point x="607" y="471" type="curve" smooth="yes"/>
	  <point x="607" y="613"/>
	  <point x="520" y="747"/>
	  <point x="386" y="747" type="curve" smooth="yes"/>
	  <point x="242" y="747"/>
	  <point x="32" y="487"/>
	  <point x="32" y="230" type="curve" smooth="yes"/>
	</contour>
	<contour>
	  <point x="437" y="616"/>
	  <point x="465" y="567"/>
	  <point x="465" y="461" type="curve" smooth="yes"/>
	  <point x="465" y="320"/>
	  <point x="306" y="134"/>
	  <point x="221" y="134" type="curve" smooth="yes"/>
	  <point x="197" y="134"/>
	  <point x="179" y="172"/>
	  <point x="179" y="230" type="curve" smooth="yes"/>
	  <point x="179" y="411"/>
	  <point x="333" y="616"/>
	  <point x="398" y="616" type="curve" smooth="yes"/>
	</contour>
	<contour>
	  <point x="355" y="985"/>
	  <point x="286" y="900"/>
	  <point x="286" y="842" type="curve" smooth="yes"/>
	  <point x="286" y="810"/>
	  <point x="311" y="794"/>
	  <point x="339" y="794" type="curve" smooth="yes"/>
	  <point x="395" y="794"/>
	  <point x="393" y="866"/>
	  <point x="438" y="888" type="curve"/>
	  <point x="471" y="827"/>
	  <point x="521" y="783"/>
	  <point x="564" y="783" type="curve" smooth="yes"/>
	  <point x="613" y="783"/>
	  <point x="680" y="867"/>
	  <point x="680" y="926" type="curve" smooth="yes"/>
	  <point x="680" y="957"/>
	  <point x="665" y="974"/>
	  <point x="640" y="974" type="curve" smooth="yes"/>
	  <point x="588" y="974"/>
	  <point x="577" y="908"/>
	  <point x="552" y="893" type="curve" smooth="yes"/>
	  <point x="521" y="909"/>
	  <point x="506" y="985"/>
	  <point x="421" y="985" type="curve" smooth="yes"/>
	</contour>
	<contour>
	  <point x="454" y="743" type="move" name="top"/>
	</contour>
  </outline>
</glyph>
<glyph name="Odieresis" format="1">
  <advance width="619"/>
  <unicode hex="00D6"/>
  <outline>
    <contour>
      <point x="32" y="140"/>
      <point x="118" y="13"/>
      <point x="222" y="13" type="curve" smooth="yes"/>
      <point x="429" y="13"/>
      <point x="607" y="284"/>
      <point x="607" y="471" type="curve" smooth="yes"/>
      <point x="607" y="613"/>
      <point x="520" y="747"/>
      <point x="386" y="747" type="curve" smooth="yes"/>
      <point x="242" y="747"/>
      <point x="32" y="487"/>
      <point x="32" y="230" type="curve" smooth="yes"/>
    </contour>
    <contour>
      <point x="437" y="616"/>
      <point x="465" y="567"/>
      <point x="465" y="461" type="curve" smooth="yes"/>
      <point x="465" y="320"/>
      <point x="306" y="134"/>
      <point x="221" y="134" type="curve" smooth="yes"/>
      <point x="197" y="134"/>
      <point x="179" y="172"/>
      <point x="179" y="230" type="curve" smooth="yes"/>
      <point x="179" y="411"/>
      <point x="333" y="616"/>
      <point x="398" y="616" type="curve" smooth="yes"/>
    </contour>
    <contour>
      <point x="466" y="866"/>
      <point x="421" y="961"/>
      <point x="392" y="961" type="curve" smooth="yes"/>
      <point x="363" y="961"/>
      <point x="329" y="918"/>
      <point x="329" y="889" type="curve" smooth="yes"/>
      <point x="329" y="856"/>
      <point x="384" y="799"/>
      <point x="420" y="799" type="curve" smooth="yes"/>
      <point x="440" y="799"/>
      <point x="466" y="824"/>
      <point x="466" y="841" type="curve" smooth="yes"/>
    </contour>
    <contour>
      <point x="644" y="866"/>
      <point x="599" y="961"/>
      <point x="570" y="961" type="curve" smooth="yes"/>
      <point x="541" y="961"/>
      <point x="507" y="918"/>
      <point x="507" y="889" type="curve" smooth="yes"/>
      <point x="507" y="856"/>
      <point x="562" y="799"/>
      <point x="598" y="799" type="curve" smooth="yes"/>
      <point x="618" y="799"/>
      <point x="644" y="824"/>
      <point x="644" y="841" type="curve" smooth="yes"/>
    </contour>
    <contour>
      <point x="454" y="743" type="move" name="top"/>
    </contour>
  </outline>
</glyph>
<glyph name="multiply" format="1">
  <advance width="433"/>
  <unicode hex="00D7"/>
  <outline>
    <contour>
      <point x="430" y="193"/>
      <point x="209" y="404"/>
      <point x="209" y="507" type="curve" smooth="yes"/>
      <point x="209" y="539"/>
      <point x="114" y="563"/>
      <point x="63" y="563" type="curve" smooth="yes"/>
      <point x="46" y="563"/>
      <point x="45" y="552"/>
      <point x="45" y="535" type="curve" smooth="yes"/>
      <point x="45" y="474"/>
      <point x="291" y="97"/>
      <point x="398" y="97" type="curve" smooth="yes"/>
      <point x="419" y="97"/>
      <point x="430" y="111"/>
      <point x="430" y="135" type="curve" smooth="yes"/>
    </contour>
    <contour>
      <point x="429" y="416"/>
      <point x="496" y="467"/>
      <point x="496" y="483" type="curve" smooth="yes"/>
      <point x="496" y="515"/>
      <point x="447" y="564"/>
      <point x="422" y="564" type="curve" smooth="yes"/>
      <point x="377" y="564"/>
      <point x="301" y="470"/>
      <point x="223" y="382" type="curve" smooth="yes"/>
      <point x="103" y="249"/>
      <point x="18" y="189"/>
      <point x="18" y="171" type="curve" smooth="yes"/>
      <point x="18" y="146"/>
      <point x="56" y="97"/>
      <point x="95" y="97" type="curve" smooth="yes"/>
      <point x="124" y="97"/>
      <point x="169" y="150"/>
      <point x="285" y="269" type="curve" smooth="yes"/>
    </contour>
  </outline>
</glyph>
<glyph name="Ugrave" format="1">
  <advance width="578"/>
  <unicode hex="00D9"/>
  <outline>
    <contour>
      <point x="258" y="694"/>
      <point x="184" y="747"/>
      <point x="156" y="747" type="curve" smooth="yes"/>
      <point x="133" y="747"/>
      <point x="126" y="734"/>
      <point x="126" y="714" type="curve" smooth="yes"/>
      <point x="126" y="623"/>
      <point x="46" y="425"/>
      <point x="46" y="229" type="curve" smooth="yes"/>
      <point x="46" y="143"/>
      <point x="133" y="12"/>
      <point x="226" y="12" type="curve" smooth="yes"/>
      <point x="435" y="12"/>
      <point x="576" y="358"/>
      <point x="576" y="574" type="curve" smooth="yes"/>
      <point x="576" y="672"/>
      <point x="476" y="748"/>
      <point x="443" y="748" type="curve" smooth="yes"/>
      <point x="423" y="748"/>
      <point x="417" y="736"/>
      <point x="417" y="717" type="curve" smooth="yes"/>
      <point x="417" y="684"/>
      <point x="430" y="668"/>
      <point x="430" y="569" type="curve" smooth="yes"/>
      <point x="430" y="354"/>
      <point x="304" y="151"/>
      <point x="236" y="151" type="curve" smooth="yes"/>
      <point x="203" y="151"/>
      <point x="186" y="199"/>
      <point x="186" y="249" type="curve" smooth="yes"/>
      <point x="186" y="374"/>
      <point x="258" y="563"/>
      <point x="258" y="635" type="curve" smooth="yes"/>
    </contour>
    <contour>
      <point x="174" y="905"/>
      <point x="214" y="885"/>
      <point x="277" y="846" type="curve" smooth="yes"/>
      <point x="331" y="813"/>
      <point x="349" y="790"/>
      <point x="372" y="790" type="curve" smooth="yes"/>
      <point x="392" y="790"/>
      <point x="412" y="811"/>
      <point x="412" y="835" type="curve" smooth="yes"/>
      <point x="412" y="860"/>
      <point x="399" y="875"/>
      <point x="334" y="939" type="curve" smooth="yes"/>
      <point x="293" y="979"/>
      <point x="267" y="1015"/>
      <point x="241" y="1015" type="curve" smooth="yes"/>
      <point x="210" y="1015"/>
      <point x="174" y="972"/>
      <point x="174" y="933" type="curve" smooth="yes"/>
    </contour>
    <contour>
      <point x="241" y="23" type="move" name="ogonek"/>
    </contour>
    <contour>
      <point x="313" y="743" type="move" name="top"/>
    </contour>
  </outline>
</glyph>
<glyph name="Uacute" format="1">
  <advance width="578"/>
  <unicode hex="00DA"/>
  <outline>
    <contour>
      <point x="258" y="694"/>
      <point x="184" y="747"/>
      <point x="156" y="747" type="curve" smooth="yes"/>
      <point x="133" y="747"/>
      <point x="126" y="734"/>
      <point x="126" y="714" type="curve" smooth="yes"/>
      <point x="126" y="623"/>
      <point x="46" y="425"/>
      <point x="46" y="229" type="curve" smooth="yes"/>
      <point x="46" y="143"/>
      <point x="133" y="12"/>
      <point x="226" y="12" type="curve" smooth="yes"/>
      <point x="435" y="12"/>
      <point x="576" y="358"/>
      <point x="576" y="574" type="curve" smooth="yes"/>
      <point x="576" y="672"/>
      <point x="476" y="748"/>
      <point x="443" y="748" type="curve" smooth="yes"/>
      <point x="423" y="748"/>
      <point x="417" y="736"/>
      <point x="417" y="717" type="curve" smooth="yes"/>
      <point x="417" y="684"/>
      <point x="430" y="668"/>
      <point x="430" y="569" type="curve" smooth="yes"/>
      <point x="430" y="354"/>
      <point x="304" y="151"/>
      <point x="236" y="151" type="curve" smooth="yes"/>
      <point x="203" y="151"/>
      <point x="186" y="199"/>
      <point x="186" y="249" type="curve" smooth="yes"/>
      <point x="186" y="374"/>
      <point x="258" y="563"/>
      <point x="258" y="635" type="curve" smooth="yes"/>
    </contour>
    <contour>
      <point x="298" y="885"/>
      <point x="286" y="865"/>
      <point x="286" y="836" type="curve" smooth="yes"/>
      <point x="286" y="814"/>
      <point x="303" y="790"/>
      <point x="325" y="790" type="curve" smooth="yes"/>
      <point x="347" y="790"/>
      <point x="364" y="807"/>
      <point x="400" y="827" type="curve" smooth="yes"/>
      <point x="496" y="880"/>
      <point x="532" y="881"/>
      <point x="532" y="930" type="curve" smooth="yes"/>
      <point x="532" y="968"/>
      <point x="500" y="1014"/>
      <point x="468" y="1014" type="curve" smooth="yes"/>
      <point x="442" y="1014"/>
      <point x="422" y="990"/>
      <point x="343" y="923" type="curve" smooth="yes"/>
    </contour>
    <contour>
      <point x="241" y="23" type="move" name="ogonek"/>
    </contour>
    <contour>
      <point x="313" y="743" type="move" name="top"/>
    </contour>
  </outline>
</glyph>
<glyph name="Yacute" format="1">
  <advance width="561"/>
  <unicode hex="00DD"/>
  <outline>
    <contour>
      <point x="282" y="404"/>
      <point x="244" y="468"/>
      <point x="217" y="541" type="curve" smooth="yes"/>
      <point x="185" y="627"/>
      <point x="193" y="747"/>
      <point x="143" y="747" type="curve" smooth="yes"/>
      <point x="83" y="747"/>
      <point x="74" y="703"/>
      <point x="74" y="631" type="curve" smooth="yes"/>
      <point x="74" y="507"/>
      <point x="132" y="335"/>
      <point x="255" y="287" type="curve"/>
      <point x="216" y="212"/>
      <point x="162" y="116"/>
      <point x="162" y="77" type="curve" smooth="yes"/>
      <point x="162" y="35"/>
      <point x="177" y="13"/>
      <point x="202" y="13" type="curve" smooth="yes"/>
      <point x="243" y="13"/>
      <point x="287" y="74"/>
      <point x="300" y="101" type="curve" smooth="yes"/>
      <point x="406" y="318"/>
      <point x="607" y="573"/>
      <point x="607" y="642" type="curve" smooth="yes"/>
      <point x="607" y="697"/>
      <point x="575" y="747"/>
      <point x="528" y="747" type="curve" smooth="yes"/>
      <point x="473" y="747"/>
      <point x="347" y="404"/>
      <point x="302" y="404" type="curve" smooth="yes"/>
    </contour>
    <contour>
      <point x="335" y="885"/>
      <point x="323" y="865"/>
      <point x="323" y="836" type="curve" smooth="yes"/>
      <point x="323" y="814"/>
      <point x="340" y="790"/>
      <point x="362" y="790" type="curve" smooth="yes"/>
      <point x="384" y="790"/>
      <point x="401" y="807"/>
      <point x="437" y="827" type="curve" smooth="yes"/>
      <point x="533" y="880"/>
      <point x="569" y="881"/>
      <point x="569" y="930" type="curve" smooth="yes"/>
      <point x="569" y="968"/>
      <point x="537" y="1014"/>
      <point x="505" y="1014" type="curve" smooth="yes"/>
      <point x="479" y="1014"/>
      <point x="459" y="990"/>
      <point x="380" y="923" type="curve" smooth="yes"/>
    </contour>
    <contour>
      <point x="336" y="743" type="move" name="top"/>
    </contour>
  </outline>
</glyph>
<glyph name="germandbls" format="1">
  <advance width="599"/>
  <unicode hex="00DF"/>
  <outline>
    <contour>
      <point x="456" y="392"/>
      <point x="554" y="435"/>
      <point x="554" y="521" type="curve" smooth="yes"/>
      <point x="554" y="595"/>
      <point x="470" y="724"/>
      <point x="351" y="724" type="curve" smooth="yes"/>
      <point x="204" y="724"/>
      <point x="151" y="619"/>
      <point x="131" y="508" type="curve" smooth="yes"/>
      <point x="100" y="337"/>
      <point x="28" y="134"/>
      <point x="28" y="83" type="curve" smooth="yes"/>
      <point x="28" y="54"/>
      <point x="68" y="10"/>
      <point x="96" y="10" type="curve" smooth="yes"/>
      <point x="163" y="10"/>
      <point x="230" y="334"/>
      <point x="255" y="458" type="curve" smooth="yes"/>
      <point x="270" y="536"/>
      <point x="290" y="595"/>
      <point x="342" y="595" type="curve" smooth="yes"/>
      <point x="373" y="595"/>
      <point x="427" y="562"/>
      <point x="427" y="509" type="curve" smooth="yes"/>
      <point x="427" y="449"/>
      <point x="302" y="407"/>
      <point x="302" y="370" type="curve" smooth="yes"/>
      <point x="302" y="310"/>
      <point x="419" y="300"/>
      <point x="419" y="203" type="curve" smooth="yes"/>
      <point x="419" y="140"/>
      <point x="344" y="125"/>
      <point x="304" y="125" type="curve" smooth="yes"/>
      <point x="284" y="125"/>
      <point x="275" y="127"/>
      <point x="262" y="127" type="curve" smooth="yes"/>
      <point x="240" y="127"/>
      <point x="228" y="117"/>
      <point x="228" y="93" type="curve" smooth="yes"/>
      <point x="228" y="51"/>
      <point x="266" y="12"/>
      <point x="339" y="12" type="curve" smooth="yes"/>
      <point x="457" y="12"/>
      <point x="548" y="103"/>
      <point x="548" y="194" type="curve" smooth="yes"/>
      <point x="548" y="311"/>
      <point x="456" y="337"/>
      <point x="456" y="359" type="curve" smooth="yes"/>
    </contour>
  </outline>
</glyph>
<glyph name="adieresis" format="1">
  <advance width="518"/>
  <unicode hex="00E4"/>
  <outline>
    <contour>
      <point x="489" y="448"/>
      <point x="390" y="528"/>
      <point x="337" y="528" type="curve" smooth="yes"/>
      <point x="180" y="528"/>
      <point x="29" y="248"/>
      <point x="29" y="149" type="curve" smooth="yes"/>
      <point x="29" y="92"/>
      <point x="116" y="12"/>
      <point x="172" y="12" type="curve" smooth="yes"/>
      <point x="262" y="12"/>
      <point x="392" y="167"/>
      <point x="448" y="260" type="curve"/>
      <point x="363" y="312" type="line"/>
      <point x="334" y="267"/>
      <point x="323" y="212"/>
      <point x="323" y="162" type="curve" smooth="yes"/>
      <point x="323" y="83"/>
      <point x="368" y="12"/>
      <point x="399" y="12" type="curve" smooth="yes"/>
      <point x="429" y="12"/>
      <point x="435" y="72"/>
      <point x="446" y="134" type="curve" smooth="yes"/>
      <point x="460" y="211"/>
      <point x="477" y="239"/>
      <point x="477" y="269" type="curve" smooth="yes"/>
      <point x="477" y="291"/>
      <point x="402" y="345"/>
      <point x="386" y="345" type="curve" smooth="yes"/>
      <point x="368" y="345"/>
      <point x="359" y="342"/>
      <point x="357" y="330" type="curve" smooth="yes"/>
      <point x="333" y="205"/>
      <point x="207" y="138"/>
      <point x="168" y="138" type="curve" smooth="yes"/>
      <point x="155" y="138"/>
      <point x="153" y="140"/>
      <point x="153" y="151" type="curve" smooth="yes"/>
      <point x="153" y="203"/>
      <point x="267" y="401"/>
      <point x="355" y="401" type="curve" smooth="yes"/>
      <point x="371" y="401"/>
      <point x="375" y="365"/>
      <point x="375" y="301" type="curve" smooth="yes"/>
      <point x="375" y="262"/>
      <point x="385" y="237"/>
      <point x="406" y="237" type="curve" smooth="yes"/>
      <point x="430" y="237"/>
      <point x="489" y="333"/>
      <point x="489" y="385" type="curve" smooth="yes"/>
    </contour>
    <contour>
      <point x="395" y="630"/>
      <point x="350" y="725"/>
      <point x="321" y="725" type="curve" smooth="yes"/>
      <point x="292" y="725"/>
      <point x="258" y="682"/>
      <point x="258" y="653" type="curve" smooth="yes"/>
      <point x="258" y="620"/>
      <point x="313" y="563"/>
      <point x="349" y="563" type="curve" smooth="yes"/>
      <point x="369" y="563"/>
      <point x="395" y="588"/>
      <point x="395" y="605" type="curve" smooth="yes"/>
    </contour>
    <contour>
      <point x="573" y="630"/>
      <point x="528" y="725"/>
      <point x="499" y="725" type="curve" smooth="yes"/>
      <point x="470" y="725"/>
      <point x="436" y="682"/>
      <point x="436" y="653" type="curve" smooth="yes"/>
      <point x="436" y="620"/>
      <point x="491" y="563"/>
      <point x="527" y="563" type="curve" smooth="yes"/>
      <point x="547" y="563"/>
      <point x="573" y="588"/>
      <point x="573" y="605" type="curve" smooth="yes"/>
    </contour>
    <contour>
      <point x="344" y="7" type="move" name="ogonek"/>
    </contour>
    <contour>
      <point x="374" y="507" type="move" name="top"/>
    </contour>
  </outline>
</glyph>
<glyph name="ccedilla" format="1">
  <advance width="493"/>
  <unicode hex="00E7"/>
  <outline>
	<contour>
	  <point x="180" y="527"/>
	  <point x="25" y="310"/>
	  <point x="25" y="169" type="curve" smooth="yes"/>
	  <point x="25" y="103"/>
	  <point x="136" y="12"/>
	  <point x="199" y="12" type="curve" smooth="yes"/>
	  <point x="302" y="12"/>
	  <point x="430" y="89"/>
	  <point x="430" y="147" type="curve" smooth="yes"/>
	  <point x="430" y="164"/>
	  <point x="418" y="171"/>
	  <point x="402" y="171" type="curve" smooth="yes"/>
	  <point x="362" y="171"/>
	  <point x="357" y="138"/>
	  <point x="220" y="138" type="curve" smooth="yes"/>
	  <point x="181" y="138"/>
	  <point x="168" y="149"/>
	  <point x="168" y="179" type="curve" smooth="yes"/>
	  <point x="168" y="256"/>
	  <point x="286" y="396"/>
	  <point x="337" y="396" type="curve" smooth="yes"/>
	  <point x="372" y="396"/>
	  <point x="384" y="374"/>
	  <point x="410" y="374" type="curve" smooth="yes"/>
	  <point x="424" y="374"/>
	  <point x="434" y="384"/>
	  <point x="434" y="400" type="curve" smooth="yes"/>
	  <point x="434" y="445"/>
	  <point x="374" y="527"/>
	  <point x="325" y="527" type="curve" smooth="yes"/>
	</contour>
	<contour>
	  <point x="242" y="74"/>
	  <point x="218" y="79"/>
	  <point x="196" y="79" type="curve" smooth="yes"/>
	  <point x="177" y="79"/>
	  <point x="159" y="73"/>
	  <point x="154" y="59" type="curve" smooth="yes"/>
	  <point x="142" y="29"/>
	  <point x="98" y="-52"/>
	  <point x="98" y="-76" type="curve" smooth="yes"/>
	  <point x="98" y="-95"/>
	  <point x="158" y="-93"/>
	  <point x="181" y="-111" type="curve"/>
	  <point x="111" y="-146"/>
	  <point x="20" y="-134"/>
	  <point x="20" y="-167" type="curve" smooth="yes"/>
	  <point x="20" y="-182"/>
	  <point x="50" y="-205"/>
	  <point x="91" y="-205" type="curve" smooth="yes"/>
	  <point x="196" y="-205"/>
	  <point x="300" y="-150"/>
	  <point x="301" y="-92" type="curve" smooth="yes"/>
	  <point x="301" y="-57"/>
	  <point x="229" y="-28"/>
	  <point x="200" y="-28" type="curve" smooth="yes"/>
	  <point x="186" y="-28"/>
	  <point x="172" y="-35"/>
	  <point x="165" y="-43" type="curve"/>
	  <point x="188" y="-57" type="line"/>
	  <point x="215" y="-19"/>
	  <point x="242" y="39"/>
	  <point x="242" y="55" type="curve" smooth="yes"/>
	</contour>
	<contour>
	  <point x="164" y="7" type="move" name="cedilla"/>
	</contour>
	<contour>
	  <point x="279" y="507" type="move" name="top"/>
	</contour>
  </outline>
</glyph>
<glyph name="eacute" format="1">
  <advance width="454"/>
  <unicode hex="00E9"/>
  <outline>
    <contour>
      <point x="252" y="649"/>
      <point x="240" y="629"/>
      <point x="240" y="600" type="curve" smooth="yes"/>
      <point x="240" y="578"/>
      <point x="257" y="554"/>
      <point x="279" y="554" type="curve" smooth="yes"/>
      <point x="301" y="554"/>
      <point x="318" y="571"/>
      <point x="354" y="591" type="curve" smooth="yes"/>
      <point x="450" y="644"/>
      <point x="486" y="645"/>
      <point x="486" y="694" type="curve" smooth="yes"/>
      <point x="486" y="732"/>
      <point x="454" y="778"/>
      <point x="422" y="778" type="curve" smooth="yes"/>
      <point x="396" y="778"/>
      <point x="376" y="754"/>
      <point x="297" y="687" type="curve" smooth="yes"/>
    </contour>
    <contour>
      <point x="166" y="528"/>
      <point x="15" y="336"/>
      <point x="15" y="194" type="curve" smooth="yes"/>
      <point x="15" y="99"/>
      <point x="79" y="12"/>
      <point x="211" y="12" type="curve" smooth="yes"/>
      <point x="312" y="12"/>
      <point x="415" y="69"/>
      <point x="415" y="121" type="curve" smooth="yes"/>
      <point x="415" y="137"/>
      <point x="405" y="148"/>
      <point x="374" y="148" type="curve" smooth="yes"/>
      <point x="346" y="148"/>
      <point x="316" y="120"/>
      <point x="190" y="120" type="curve" smooth="yes"/>
      <point x="139" y="120"/>
      <point x="136" y="137"/>
      <point x="136" y="173" type="curve" smooth="yes"/>
      <point x="136" y="256"/>
      <point x="228" y="405"/>
      <point x="292" y="405" type="curve" smooth="yes"/>
      <point x="310" y="405"/>
      <point x="347" y="370"/>
      <point x="347" y="357" type="curve" smooth="yes"/>
      <point x="347" y="318"/>
      <point x="276" y="309"/>
      <point x="210" y="309" type="curve" smooth="yes"/>
      <point x="182" y="309"/>
      <point x="144" y="314"/>
      <point x="126" y="318" type="curve"/>
      <point x="115" y="232" type="line"/>
      <point x="143" y="222"/>
      <point x="190" y="214"/>
      <point x="252" y="214" type="curve" smooth="yes"/>
      <point x="353" y="214"/>
      <point x="463" y="274"/>
      <point x="463" y="341" type="curve" smooth="yes"/>
      <point x="463" y="417"/>
      <point x="383" y="528"/>
      <point x="286" y="528" type="curve" smooth="yes"/>
    </contour>
    <contour>
      <point x="279" y="43" type="move" name="ogonek"/>
    </contour>
    <contour>
      <point x="263" y="507" type="move" name="top"/>
    </contour>
  </outline>
</glyph>
<glyph name="ecircumflex" format="1">
  <advance width="454"/>
  <unicode hex="00EA"/>
  <outline>
	<contour>
	  <point x="339" y="722"/>
	  <point x="326" y="765"/>
	  <point x="300" y="765" type="curve" smooth="yes"/>
	  <point x="281" y="765"/>
	  <point x="239" y="736"/>
	  <point x="192" y="709" type="curve" smooth="yes"/>
	  <point x="143" y="681"/>
	  <point x="119" y="655"/>
	  <point x="119" y="619" type="curve" smooth="yes"/>
	  <point x="119" y="592"/>
	  <point x="136" y="570"/>
	  <point x="163" y="570" type="curve" smooth="yes"/>
	  <point x="201" y="570"/>
	  <point x="217" y="607"/>
	  <point x="287" y="643" type="curve"/>
	  <point x="322" y="598"/>
	  <point x="385" y="551"/>
	  <point x="423" y="551" type="curve" smooth="yes"/>
	  <point x="439" y="551"/>
	  <point x="453" y="566"/>
	  <point x="453" y="577" type="curve" smooth="yes"/>
	  <point x="453" y="616"/>
	  <point x="406" y="648"/>
	  <point x="374" y="684" type="curve" smooth="yes"/>
	</contour>
	<contour>
	  <point x="166" y="528"/>
	  <point x="15" y="336"/>
	  <point x="15" y="194" type="curve" smooth="yes"/>
	  <point x="15" y="99"/>
	  <point x="79" y="12"/>
	  <point x="211" y="12" type="curve" smooth="yes"/>
	  <point x="312" y="12"/>
	  <point x="415" y="69"/>
	  <point x="415" y="121" type="curve" smooth="yes"/>
	  <point x="415" y="137"/>
	  <point x="405" y="148"/>
	  <point x="374" y="148" type="curve" smooth="yes"/>
	  <point x="346" y="148"/>
	  <point x="316" y="120"/>
	  <point x="190" y="120" type="curve" smooth="yes"/>
	  <point x="139" y="120"/>
	  <point x="136" y="137"/>
	  <point x="136" y="173" type="curve" smooth="yes"/>
	  <point x="136" y="256"/>
	  <point x="228" y="405"/>
	  <point x="292" y="405" type="curve" smooth="yes"/>
	  <point x="310" y="405"/>
	  <point x="347" y="370"/>
	  <point x="347" y="357" type="curve" smooth="yes"/>
	  <point x="347" y="318"/>
	  <point x="276" y="309"/>
	  <point x="210" y="309" type="curve" smooth="yes"/>
	  <point x="182" y="309"/>
	  <point x="144" y="314"/>
	  <point x="126" y="318" type="curve"/>
	  <point x="115" y="232" type="line"/>
	  <point x="143" y="222"/>
	  <point x="190" y="214"/>
	  <point x="252" y="214" type="curve" smooth="yes"/>
	  <point x="353" y="214"/>
	  <point x="463" y="274"/>
	  <point x="463" y="341" type="curve" smooth="yes"/>
	  <point x="463" y="417"/>
	  <point x="383" y="528"/>
	  <point x="286" y="528" type="curve" smooth="yes"/>
	</contour>
	<contour>
	  <point x="279" y="43" type="move" name="ogonek"/>
	</contour>
	<contour>
	  <point x="263" y="507" type="move" name="top"/>
	</contour>
  </outline>
</glyph>
<glyph name="igrave" format="1">
  <advance width="260"/>
  <unicode hex="00EC"/>
  <outline>
    <contour>
      <point x="250" y="455"/>
      <point x="210" y="528"/>
      <point x="160" y="528" type="curve" smooth="yes"/>
      <point x="124" y="528"/>
      <point x="108" y="382"/>
      <point x="88" y="286" type="curve" smooth="yes"/>
      <point x="68" y="188"/>
      <point x="44" y="114"/>
      <point x="44" y="67" type="curve" smooth="yes"/>
      <point x="44" y="40"/>
      <point x="65" y="13"/>
      <point x="96" y="13" type="curve" smooth="yes"/>
      <point x="116" y="13"/>
      <point x="137" y="20"/>
      <point x="147" y="52" type="curve" smooth="yes"/>
      <point x="187" y="174"/>
      <point x="250" y="383"/>
      <point x="250" y="411" type="curve" smooth="yes"/>
    </contour>
    <contour>
      <point x="58" y="669"/>
      <point x="98" y="649"/>
      <point x="161" y="610" type="curve" smooth="yes"/>
      <point x="215" y="577"/>
      <point x="233" y="554"/>
      <point x="256" y="554" type="curve" smooth="yes"/>
      <point x="276" y="554"/>
      <point x="296" y="575"/>
      <point x="296" y="599" type="curve" smooth="yes"/>
      <point x="296" y="624"/>
      <point x="283" y="639"/>
      <point x="218" y="703" type="curve" smooth="yes"/>
      <point x="177" y="743"/>
      <point x="151" y="779"/>
      <point x="125" y="779" type="curve" smooth="yes"/>
      <point x="94" y="779"/>
      <point x="58" y="736"/>
      <point x="58" y="697" type="curve" smooth="yes"/>
    </contour>
    <contour>
      <point x="53" y="7" type="move" name="ogonek"/>
    </contour>
    <contour>
      <point x="183" y="507" type="move" name="top"/>
    </contour>
  </outline>
</glyph>
<glyph name="iacute" format="1">
  <advance width="260"/>
  <unicode hex="00ED"/>
  <outline>
	<contour>
	  <point x="182" y="649"/>
	  <point x="170" y="629"/>
	  <point x="170" y="600" type="curve" smooth="yes"/>
	  <point x="170" y="578"/>
	  <point x="187" y="554"/>
	  <point x="209" y="554" type="curve" smooth="yes"/>
	  <point x="231" y="554"/>
	  <point x="248" y="571"/>
	  <point x="284" y="591" type="curve" smooth="yes"/>
	  <point x="380" y="644"/>
	  <point x="416" y="645"/>
	  <point x="416" y="694" type="curve" smooth="yes"/>
	  <point x="416" y="732"/>
	  <point x="384" y="778"/>
	  <point x="352" y="778" type="curve" smooth="yes"/>
	  <point x="326" y="778"/>
	  <point x="306" y="754"/>
	  <point x="227" y="687" type="curve" smooth="yes"/>
	</contour>
	<contour>
	  <point x="250" y="455"/>
	  <point x="210" y="528"/>
	  <point x="160" y="528" type="curve" smooth="yes"/>
	  <point x="124" y="528"/>
	  <point x="108" y="382"/>
	  <point x="88" y="286" type="curve" smooth="yes"/>
	  <point x="68" y="188"/>
	  <point x="44" y="114"/>
	  <point x="44" y="67" type="curve" smooth="yes"/>
	  <point x="44" y="40"/>
	  <point x="65" y="13"/>
	  <point x="96" y="13" type="curve" smooth="yes"/>
	  <point x="116" y="13"/>
	  <point x="137" y="20"/>
	  <point x="147" y="52" type="curve" smooth="yes"/>
	  <point x="187" y="174"/>
	  <point x="250" y="383"/>
	  <point x="250" y="411" type="curve" smooth="yes"/>
	</contour>
	<contour>
	  <point x="53" y="7" type="move" name="ogonek"/>
	</contour>
	<contour>
	  <point x="183" y="507" type="move" name="top"/>
	</contour>
  </outline>
</glyph>
<glyph name="icircumflex" format="1">
  <advance width="260"/>
  <unicode hex="00EE"/>
  <outline>
    <contour>
      <point x="269" y="722"/>
      <point x="256" y="765"/>
      <point x="230" y="765" type="curve" smooth="yes"/>
      <point x="211" y="765"/>
      <point x="169" y="736"/>
      <point x="122" y="709" type="curve" smooth="yes"/>
      <point x="73" y="681"/>
      <point x="49" y="655"/>
      <point x="49" y="619" type="curve" smooth="yes"/>
      <point x="49" y="592"/>
      <point x="66" y="570"/>
      <point x="93" y="570" type="curve" smooth="yes"/>
      <point x="131" y="570"/>
      <point x="147" y="607"/>
      <point x="217" y="643" type="curve"/>
      <point x="252" y="598"/>
      <point x="315" y="551"/>
      <point x="353" y="551" type="curve" smooth="yes"/>
      <point x="369" y="551"/>
      <point x="383" y="566"/>
      <point x="383" y="577" type="curve" smooth="yes"/>
      <point x="383" y="616"/>
      <point x="336" y="648"/>
      <point x="304" y="684" type="curve" smooth="yes"/>
    </contour>
    <contour>
      <point x="250" y="455"/>
      <point x="210" y="528"/>
      <point x="160" y="528" type="curve" smooth="yes"/>
      <point x="124" y="528"/>
      <point x="108" y="382"/>
      <point x="88" y="286" type="curve" smooth="yes"/>
      <point x="68" y="188"/>
      <point x="44" y="114"/>
      <point x="44" y="67" type="curve" smooth="yes"/>
      <point x="44" y="40"/>
      <point x="65" y="13"/>
      <point x="96" y="13" type="curve" smooth="yes"/>
      <point x="116" y="13"/>
      <point x="137" y="20"/>
      <point x="147" y="52" type="curve" smooth="yes"/>
      <point x="187" y="174"/>
      <point x="250" y="383"/>
      <point x="250" y="411" type="curve" smooth="yes"/>
    </contour>
    <contour>
      <point x="53" y="7" type="move" name="ogonek"/>
    </contour>
    <contour>
      <point x="183" y="507" type="move" name="top"/>
    </contour>
  </outline>
</glyph>
<glyph name="ocircumflex" format="1">
  <advance width="452"/>
  <unicode hex="00F4"/>
  <outline>
	<contour>
	  <point x="373" y="722"/>
	  <point x="360" y="765"/>
	  <point x="334" y="765" type="curve" smooth="yes"/>
	  <point x="315" y="765"/>
	  <point x="273" y="736"/>
	  <point x="226" y="709" type="curve" smooth="yes"/>
	  <point x="177" y="681"/>
	  <point x="153" y="655"/>
	  <point x="153" y="619" type="curve" smooth="yes"/>
	  <point x="153" y="592"/>
	  <point x="170" y="570"/>
	  <point x="197" y="570" type="curve" smooth="yes"/>
	  <point x="235" y="570"/>
	  <point x="251" y="607"/>
	  <point x="321" y="643" type="curve"/>
	  <point x="356" y="598"/>
	  <point x="419" y="551"/>
	  <point x="457" y="551" type="curve" smooth="yes"/>
	  <point x="473" y="551"/>
	  <point x="487" y="566"/>
	  <point x="487" y="577" type="curve" smooth="yes"/>
	  <point x="487" y="616"/>
	  <point x="440" y="648"/>
	  <point x="408" y="684" type="curve" smooth="yes"/>
	</contour>
	<contour>
	  <point x="431" y="442"/>
	  <point x="354" y="529"/>
	  <point x="253" y="529" type="curve" smooth="yes"/>
	  <point x="151" y="529"/>
	  <point x="20" y="350"/>
	  <point x="20" y="180" type="curve" smooth="yes"/>
	  <point x="20" y="86"/>
	  <point x="83" y="12"/>
	  <point x="155" y="12" type="curve" smooth="yes"/>
	  <point x="309" y="12"/>
	  <point x="431" y="190"/>
	  <point x="431" y="353" type="curve" smooth="yes"/>
	</contour>
	<contour>
	  <point x="298" y="415"/>
	  <point x="300" y="367"/>
	  <point x="300" y="342" type="curve" smooth="yes"/>
	  <point x="300" y="270"/>
	  <point x="242" y="148"/>
	  <point x="166" y="114" type="curve"/>
	  <point x="155" y="129"/>
	  <point x="154" y="164"/>
	  <point x="154" y="197" type="curve" smooth="yes"/>
	  <point x="154" y="267"/>
	  <point x="223" y="402"/>
	  <point x="282" y="436" type="curve"/>
	</contour>
	<contour>
	  <point x="287" y="507" type="move" name="top"/>
	</contour>
  </outline>
</glyph>
<glyph name="odieresis" format="1">
  <advance width="452"/>
  <unicode hex="00F6"/>
  <outline>
	<contour>
	  <point x="299" y="630"/>
	  <point x="254" y="725"/>
	  <point x="225" y="725" type="curve" smooth="yes"/>
	  <point x="196" y="725"/>
	  <point x="162" y="682"/>
	  <point x="162" y="653" type="curve" smooth="yes"/>
	  <point x="162" y="620"/>
	  <point x="217" y="563"/>
	  <point x="253" y="563" type="curve" smooth="yes"/>
	  <point x="273" y="563"/>
	  <point x="299" y="588"/>
	  <point x="299" y="605" type="curve" smooth="yes"/>
	</contour>
	<contour>
	  <point x="477" y="630"/>
	  <point x="432" y="725"/>
	  <point x="403" y="725" type="curve" smooth="yes"/>
	  <point x="374" y="725"/>
	  <point x="340" y="682"/>
	  <point x="340" y="653" type="curve" smooth="yes"/>
	  <point x="340" y="620"/>
	  <point x="395" y="563"/>
	  <point x="431" y="563" type="curve" smooth="yes"/>
	  <point x="451" y="563"/>
	  <point x="477" y="588"/>
	  <point x="477" y="605" type="curve" smooth="yes"/>
	</contour>
	<contour>
	  <point x="431" y="442"/>
	  <point x="354" y="529"/>
	  <point x="253" y="529" type="curve" smooth="yes"/>
	  <point x="151" y="529"/>
	  <point x="20" y="350"/>
	  <point x="20" y="180" type="curve" smooth="yes"/>
	  <point x="20" y="86"/>
	  <point x="83" y="12"/>
	  <point x="155" y="12" type="curve" smooth="yes"/>
	  <point x="309" y="12"/>
	  <point x="431" y="190"/>
	  <point x="431" y="353" type="curve" smooth="yes"/>
	</contour>
	<contour>
	  <point x="298" y="415"/>
	  <point x="300" y="367"/>
	  <point x="300" y="342" type="curve" smooth="yes"/>
	  <point x="300" y="270"/>
	  <point x="242" y="148"/>
	  <point x="166" y="114" type="curve"/>
	  <point x="155" y="129"/>
	  <point x="154" y="164"/>
	  <point x="154" y="197" type="curve" smooth="yes"/>
	  <point x="154" y="267"/>
	  <point x="223" y="402"/>
	  <point x="282" y="436" type="curve"/>
	</contour>
	<contour>
	  <point x="287" y="507" type="move" name="top"/>
	</contour>
  </outline>
</glyph>
<glyph name="divide" format="1">
  <advance width="600"/>
  <unicode hex="00F7"/>
  <outline>
	<contour>
	  <point x="233" y="267"/>
	  <point x="661" y="285"/>
	  <point x="661" y="376" type="curve" smooth="yes"/>
	  <point x="661" y="399"/>
	  <point x="612" y="405"/>
	  <point x="544" y="405" type="curve" smooth="yes"/>
	  <point x="496" y="405"/>
	  <point x="323" y="397"/>
	  <point x="215" y="390" type="curve" smooth="yes"/>
	  <point x="143" y="386"/>
	  <point x="75" y="381"/>
	  <point x="50" y="381" type="curve" smooth="yes"/>
	  <point x="28" y="381"/>
	  <point x="19" y="372"/>
	  <point x="19" y="354" type="curve" smooth="yes"/>
	  <point x="19" y="321"/>
	  <point x="50" y="267"/>
	  <point x="95" y="267" type="curve" smooth="yes"/>
	</contour>
	<contour>
	  <point x="188" y="106"/>
	  <point x="256" y="38"/>
	  <point x="298" y="38" type="curve" smooth="yes"/>
	  <point x="322" y="38"/>
	  <point x="353" y="69"/>
	  <point x="353" y="89" type="curve" smooth="yes"/>
	  <point x="353" y="122"/>
	  <point x="299" y="230"/>
	  <point x="264" y="230" type="curve" smooth="yes"/>
	  <point x="229" y="230"/>
	  <point x="188" y="180"/>
	  <point x="188" y="146" type="curve" smooth="yes"/>
	</contour>
	<contour>
	  <point x="298" y="508"/>
	  <point x="365" y="439"/>
	  <point x="408" y="439" type="curve" smooth="yes"/>
	  <point x="432" y="439"/>
	  <point x="462" y="470"/>
	  <point x="462" y="490" type="curve" smooth="yes"/>
	  <point x="462" y="523"/>
	  <point x="409" y="632"/>
	  <point x="373" y="632" type="curve" smooth="yes"/>
	  <point x="338" y="632"/>
	  <point x="298" y="582"/>
	  <point x="298" y="547" type="curve" smooth="yes"/>
	</contour>
  </outline>
</glyph>
<glyph name="oslash" format="1">
  <advance width="452"/>
  <unicode hex="00F8"/>
  <outline>
	<contour>
	  <point x="491" y="442"/>
	  <point x="418" y="529"/>
	  <point x="317" y="529" type="curve" smooth="yes"/>
	  <point x="177" y="529"/>
	  <point x="20" y="335"/>
	  <point x="20" y="180" type="curve" smooth="yes"/>
	  <point x="20" y="86"/>
	  <point x="119" y="12"/>
	  <point x="179" y="12" type="curve" smooth="yes"/>
	  <point x="333" y="12"/>
	  <point x="491" y="201"/>
	  <point x="491" y="353" type="curve" smooth="yes"/>
	</contour>
	<contour>
	  <point x="133" y="253"/>
	  <point x="248" y="436"/>
	  <point x="320" y="436" type="curve" smooth="yes"/>
	  <point x="355" y="436"/>
	  <point x="386" y="387"/>
	  <point x="386" y="363" type="curve" smooth="yes"/>
	  <point x="386" y="290"/>
	  <point x="280" y="100"/>
	  <point x="179" y="100" type="curve" smooth="yes"/>
	  <point x="160" y="100"/>
	  <point x="133" y="137"/>
	  <point x="133" y="183" type="curve" smooth="yes"/>
	</contour>
	<contour>
	  <point x="513" y="516"/>
	  <point x="500" y="529"/>
	  <point x="481" y="529" type="curve" smooth="yes"/>
	  <point x="428" y="529"/>
	  <point x="347" y="417"/>
	  <point x="224" y="287" type="curve" smooth="yes"/>
	  <point x="111" y="167"/>
	  <point x="10" y="51"/>
	  <point x="10" y="29" type="curve" smooth="yes"/>
	  <point x="10" y="19"/>
	  <point x="14" y="10"/>
	  <point x="30" y="10" type="curve" smooth="yes"/>
	  <point x="57" y="10"/>
	  <point x="126" y="53"/>
	  <point x="475" y="429" type="curve" smooth="yes"/>
	  <point x="505" y="462"/>
	  <point x="513" y="486"/>
	  <point x="513" y="499" type="curve" smooth="yes"/>
	</contour>
  </outline>
</glyph>
<glyph name="ugrave" format="1">
  <advance width="479"/>
  <unicode hex="00F9"/>
  <outline>
    <contour>
      <point x="238" y="485"/>
      <point x="204" y="528"/>
      <point x="164" y="528" type="curve" smooth="yes"/>
      <point x="95" y="528"/>
      <point x="7" y="250"/>
      <point x="7" y="134" type="curve" smooth="yes"/>
      <point x="7" y="79"/>
      <point x="90" y="12"/>
      <point x="129" y="12" type="curve" smooth="yes"/>
      <point x="210" y="12"/>
      <point x="340" y="221"/>
      <point x="371" y="300" type="curve"/>
      <point x="345" y="311" type="line"/>
      <point x="314" y="255"/>
      <point x="281" y="137"/>
      <point x="281" y="70" type="curve" smooth="yes"/>
      <point x="281" y="29"/>
      <point x="304" y="12"/>
      <point x="328" y="12" type="curve" smooth="yes"/>
      <point x="350" y="12"/>
      <point x="365" y="23"/>
      <point x="375" y="54" type="curve" smooth="yes"/>
      <point x="436" y="250"/>
      <point x="492" y="393"/>
      <point x="492" y="416" type="curve" smooth="yes"/>
      <point x="492" y="455"/>
      <point x="438" y="528"/>
      <point x="403" y="528" type="curve" smooth="yes"/>
      <point x="387" y="528"/>
      <point x="379" y="521"/>
      <point x="373" y="503" type="curve" smooth="yes"/>
      <point x="308" y="303"/>
      <point x="169" y="139"/>
      <point x="142" y="139" type="curve" smooth="yes"/>
      <point x="139" y="139"/>
      <point x="137" y="141"/>
      <point x="137" y="145" type="curve" smooth="yes"/>
      <point x="137" y="239"/>
      <point x="238" y="413"/>
      <point x="238" y="445" type="curve" smooth="yes"/>
    </contour>
    <contour>
      <point x="159" y="669"/>
      <point x="199" y="649"/>
      <point x="262" y="610" type="curve" smooth="yes"/>
      <point x="316" y="577"/>
      <point x="334" y="554"/>
      <point x="357" y="554" type="curve" smooth="yes"/>
      <point x="377" y="554"/>
      <point x="397" y="575"/>
      <point x="397" y="599" type="curve" smooth="yes"/>
      <point x="397" y="624"/>
      <point x="384" y="639"/>
      <point x="319" y="703" type="curve" smooth="yes"/>
      <point x="278" y="743"/>
      <point x="252" y="779"/>
      <point x="226" y="779" type="curve" smooth="yes"/>
      <point x="195" y="779"/>
      <point x="159" y="736"/>
      <point x="159" y="697" type="curve" smooth="yes"/>
    </contour>
    <contour>
      <point x="283" y="7" type="move" name="ogonek"/>
    </contour>
    <contour>
      <point x="287" y="507" type="move" name="top"/>
    </contour>
  </outline>
</glyph>
<glyph name="ucircumflex" format="1">
  <advance width="479"/>
  <unicode hex="00FB"/>
  <outline>
	<contour>
	  <point x="370" y="722"/>
	  <point x="357" y="765"/>
	  <point x="331" y="765" type="curve" smooth="yes"/>
	  <point x="312" y="765"/>
	  <point x="270" y="736"/>
	  <point x="223" y="709" type="curve" smooth="yes"/>
	  <point x="174" y="681"/>
	  <point x="150" y="655"/>
	  <point x="150" y="619" type="curve" smooth="yes"/>
	  <point x="150" y="592"/>
	  <point x="167" y="570"/>
	  <point x="194" y="570" type="curve" smooth="yes"/>
	  <point x="232" y="570"/>
	  <point x="248" y="607"/>
	  <point x="318" y="643" type="curve"/>
	  <point x="353" y="598"/>
	  <point x="416" y="551"/>
	  <point x="454" y="551" type="curve" smooth="yes"/>
	  <point x="470" y="551"/>
	  <point x="484" y="566"/>
	  <point x="484" y="577" type="curve" smooth="yes"/>
	  <point x="484" y="616"/>
	  <point x="437" y="648"/>
	  <point x="405" y="684" type="curve" smooth="yes"/>
	</contour>
	<contour>
	  <point x="238" y="485"/>
	  <point x="204" y="528"/>
	  <point x="164" y="528" type="curve" smooth="yes"/>
	  <point x="95" y="528"/>
	  <point x="7" y="250"/>
	  <point x="7" y="134" type="curve" smooth="yes"/>
	  <point x="7" y="79"/>
	  <point x="90" y="12"/>
	  <point x="129" y="12" type="curve" smooth="yes"/>
	  <point x="210" y="12"/>
	  <point x="340" y="221"/>
	  <point x="371" y="300" type="curve"/>
	  <point x="345" y="311" type="line"/>
	  <point x="314" y="255"/>
	  <point x="281" y="137"/>
	  <point x="281" y="70" type="curve" smooth="yes"/>
	  <point x="281" y="29"/>
	  <point x="304" y="12"/>
	  <point x="328" y="12" type="curve" smooth="yes"/>
	  <point x="350" y="12"/>
	  <point x="365" y="23"/>
	  <point x="375" y="54" type="curve" smooth="yes"/>
	  <point x="436" y="250"/>
	  <point x="492" y="393"/>
	  <point x="492" y="416" type="curve" smooth="yes"/>
	  <point x="492" y="455"/>
	  <point x="438" y="528"/>
	  <point x="403" y="528" type="curve" smooth="yes"/>
	  <point x="387" y="528"/>
	  <point x="379" y="521"/>
	  <point x="373" y="503" type="curve" smooth="yes"/>
	  <point x="308" y="303"/>
	  <point x="169" y="139"/>
	  <point x="142" y="139" type="curve" smooth="yes"/>
	  <point x="139" y="139"/>
	  <point x="137" y="141"/>
	  <point x="137" y="145" type="curve" smooth="yes"/>
	  <point x="137" y="239"/>
	  <point x="238" y="413"/>
	  <point x="238" y="445" type="curve" smooth="yes"/>
	</contour>
	<contour>
	  <point x="283" y="7" type="move" name="ogonek"/>
	</contour>
	<contour>
	  <point x="287" y="507" type="move" name="top"/>
	</contour>
  </outline>
</glyph>
<glyph name="yacute" format="1">
  <advance width="520"/>
  <unicode hex="00FD"/>
  <outline>
	<contour>
	  <point x="262" y="485"/>
	  <point x="217" y="528"/>
	  <point x="176" y="528" type="curve" smooth="yes"/>
	  <point x="119" y="528"/>
	  <point x="32" y="266"/>
	  <point x="32" y="151" type="curve" smooth="yes"/>
	  <point x="32" y="79"/>
	  <point x="113" y="12"/>
	  <point x="153" y="12" type="curve" smooth="yes"/>
	  <point x="220" y="12"/>
	  <point x="352" y="163"/>
	  <point x="378" y="309" type="curve"/>
	  <point x="356" y="325" type="line"/>
	  <point x="253" y="62"/>
	  <point x="225" y="-158"/>
	  <point x="170" y="-158" type="curve" smooth="yes"/>
	  <point x="125" y="-158"/>
	  <point x="75" y="-64"/>
	  <point x="40" y="-64" type="curve" smooth="yes"/>
	  <point x="20" y="-64"/>
	  <point x="-16" y="-112"/>
	  <point x="-16" y="-143" type="curve" smooth="yes"/>
	  <point x="-16" y="-191"/>
	  <point x="70" y="-256"/>
	  <point x="163" y="-256" type="curve" smooth="yes"/>
	  <point x="271" y="-256"/>
	  <point x="322" y="-173"/>
	  <point x="358" y="-68" type="curve" smooth="yes"/>
	  <point x="474" y="269"/>
	  <point x="515" y="379"/>
	  <point x="515" y="417" type="curve" smooth="yes"/>
	  <point x="515" y="476"/>
	  <point x="466" y="528"/>
	  <point x="428" y="528" type="curve" smooth="yes"/>
	  <point x="413" y="528"/>
	  <point x="402" y="521"/>
	  <point x="398" y="503" type="curve" smooth="yes"/>
	  <point x="336" y="310"/>
	  <point x="192" y="139"/>
	  <point x="168" y="139" type="curve" smooth="yes"/>
	  <point x="165" y="139"/>
	  <point x="163" y="141"/>
	  <point x="163" y="145" type="curve" smooth="yes"/>
	  <point x="163" y="249"/>
	  <point x="262" y="395"/>
	  <point x="262" y="445" type="curve" smooth="yes"/>
	</contour>
	<contour>
	  <point x="309" y="649"/>
	  <point x="297" y="629"/>
	  <point x="297" y="600" type="curve" smooth="yes"/>
	  <point x="297" y="578"/>
	  <point x="314" y="554"/>
	  <point x="336" y="554" type="curve" smooth="yes"/>
	  <point x="358" y="554"/>
	  <point x="375" y="571"/>
	  <point x="411" y="591" type="curve" smooth="yes"/>
	  <point x="507" y="644"/>
	  <point x="543" y="645"/>
	  <point x="543" y="694" type="curve" smooth="yes"/>
	  <point x="543" y="732"/>
	  <point x="511" y="778"/>
	  <point x="479" y="778" type="curve" smooth="yes"/>
	  <point x="453" y="778"/>
	  <point x="433" y="754"/>
	  <point x="354" y="687" type="curve" smooth="yes"/>
	</contour>
	<contour>
	  <point x="310" y="507" type="move" name="top"/>
	</contour>
  </outline>
</glyph>
<glyph name="amacron" format="1">
  <advance width="518"/>
  <unicode hex="0101"/>
  <outline>
    <contour>
      <point x="489" y="448"/>
      <point x="390" y="528"/>
      <point x="337" y="528" type="curve" smooth="yes"/>
      <point x="180" y="528"/>
      <point x="29" y="248"/>
      <point x="29" y="149" type="curve" smooth="yes"/>
      <point x="29" y="92"/>
      <point x="116" y="12"/>
      <point x="172" y="12" type="curve" smooth="yes"/>
      <point x="262" y="12"/>
      <point x="392" y="167"/>
      <point x="448" y="260" type="curve"/>
      <point x="363" y="312" type="line"/>
      <point x="334" y="267"/>
      <point x="323" y="212"/>
      <point x="323" y="162" type="curve" smooth="yes"/>
      <point x="323" y="83"/>
      <point x="368" y="12"/>
      <point x="399" y="12" type="curve" smooth="yes"/>
      <point x="429" y="12"/>
      <point x="435" y="72"/>
      <point x="446" y="134" type="curve" smooth="yes"/>
      <point x="460" y="211"/>
      <point x="477" y="239"/>
      <point x="477" y="269" type="curve" smooth="yes"/>
      <point x="477" y="291"/>
      <point x="402" y="345"/>
      <point x="386" y="345" type="curve" smooth="yes"/>
      <point x="368" y="345"/>
      <point x="359" y="342"/>
      <point x="357" y="330" type="curve" smooth="yes"/>
      <point x="333" y="205"/>
      <point x="207" y="138"/>
      <point x="168" y="138" type="curve" smooth="yes"/>
      <point x="155" y="138"/>
      <point x="153" y="140"/>
      <point x="153" y="151" type="curve" smooth="yes"/>
      <point x="153" y="203"/>
      <point x="267" y="401"/>
      <point x="355" y="401" type="curve" smooth="yes"/>
      <point x="371" y="401"/>
      <point x="375" y="365"/>
      <point x="375" y="301" type="curve" smooth="yes"/>
      <point x="375" y="262"/>
      <point x="385" y="237"/>
      <point x="406" y="237" type="curve" smooth="yes"/>
      <point x="430" y="237"/>
      <point x="489" y="333"/>
      <point x="489" y="385" type="curve" smooth="yes"/>
    </contour>
    <contour>
      <point x="540" y="613"/>
      <point x="587" y="620"/>
      <point x="587" y="648" type="curve" smooth="yes"/>
      <point x="587" y="671"/>
      <point x="554" y="678"/>
      <point x="508" y="678" type="curve" smooth="yes"/>
      <point x="363" y="678"/>
      <point x="230" y="677"/>
      <point x="230" y="637" type="curve" smooth="yes"/>
      <point x="230" y="614"/>
      <point x="258" y="573"/>
      <point x="286" y="572" type="curve" smooth="yes"/>
      <point x="312" y="572"/>
      <point x="349" y="582"/>
      <point x="427" y="595" type="curve" smooth="yes"/>
    </contour>
    <contour>
      <point x="344" y="7" type="move" name="ogonek"/>
    </contour>
    <contour>
      <point x="374" y="507" type="move" name="top"/>
    </contour>
  </outline>
</glyph>
